SplineFontDB: 1.0
FontName: THSarabunPSK-Bold
FullName: THSarabunPSK-Bold
FamilyName: TH SarabunPSK
Weight: Bold
Copyright: Copyright (c) 2006 by Department of Intellectual Property (DIP), Ministry of Commerce and Software Industry Promotion Agency (Public Organization) (SIPA). All rights reserved.\nCreated by : Suppakit CHALERMLARP.
Version: 1.1
ItalicAngle: 0
UnderlinePosition: -35
UnderlineWidth: 30
Ascent: 800
Descent: 200
Order2: 1
XUID: [1021 375 425136265 10574758]
FSType: 0
OS2Version: 3
OS2_WeightWidthSlopeOnly: 0
OS2_UseTypoMetrics: 1
CreationTime: 1158862012
ModificationTime: 1174407489
PfmFamily: 17
TTFWeight: 700
TTFWidth: 5
LineGap: 30
VLineGap: 0
Panose: 2 11 5 0 4 2 0 2 0 3
OS2TypoAscent: 50
OS2TypoAOffset: 1
OS2TypoDescent: -50
OS2TypoDOffset: 1
OS2TypoLinegap: 0
OS2WinAscent: 6
OS2WinAOffset: 1
OS2WinDescent: -207
OS2WinDOffset: 1
HheadAscent: 6
HheadAOffset: 1
HheadDescent: 207
HheadDOffset: 1
OS2SubXSize: 700
OS2SubYSize: 650
OS2SubXOff: 0
OS2SubYOff: 140
OS2SupXSize: 700
OS2SupYSize: 650
OS2SupXOff: 0
OS2SupYOff: 477
OS2StrikeYSize: 30
OS2StrikeYPos: 250
OS2FamilyClass: 2053
OS2Vendor: 'psk '
ScriptLang: 2
 1 latn 1 dflt 
 0 
MarkAttachClasses: 1
ChainSub: coverage 0 0 'liga' 0 0 0 1
 1 0 1
  Coverage: 64 uni0E48.alt2 uni0E49.alt2 uni0E4A.alt2 uni0E4B.alt2 uni0E4C.alt2
  FCoverage: 7 uni0E33
 1
  SeqLookup: 0 'L056'
EndFPST
ChainSub: coverage 0 0 'liga' 0 0 0 1
 1 1 0
  Coverage: 7 uni0E47
  BCoverage: 12 uni0E2C.alt1
 1
  SeqLookup: 0 'L055'
EndFPST
ChainSub: coverage 0 0 'liga' 0 0 0 1
 1 0 1
  Coverage: 7 uni0E2C
  FCoverage: 39 uni0E34 uni0E35 uni0E36 uni0E37 uni0E47
 1
  SeqLookup: 0 'L055'
EndFPST
ChainSub: coverage 0 0 'liga' 0 0 0 1
 1 0 1
  Coverage: 15 uni0E0E uni0E0F
  FCoverage: 38 uni0E38.alt1 uni0E39.alt1 uni0E3A.alt1
 1
  SeqLookup: 0 'L055'
EndFPST
ChainSub: coverage 0 0 'liga' 0 0 0 1
 1 1 0
  Coverage: 5 a b c
  BCoverage: 23 uni0E1B uni0E1D uni0E1F
 1
  SeqLookup: 0 'L055'
EndFPST
ChainSub: coverage 0 0 'liga' 0 0 0 1
 1 0 1

StartChar: .notdef
Encoding: 65536 -1 0
Width: 698
Flags: W
Fore
645 0 m 1,0,-1
 53 0 l 1,1,-1
 53 809 l 1,2,-1
 645 809 l 1,3,-1
 645 0 l 1,0,-1
609 31 m 1,4,-1
 609 778 l 1,5,-1
 89 778 l 1,6,-1
 89 31 l 1,7,-1
 609 31 l 1,4,-1
EndSplineSet
EndChar
StartChar: exclam
Encoding: 33 33 2
Width: 168
Flags: W
Fore
111 139 m 1,0,-1
 55 139 l 1,1,-1
 48 476 l 1,2,-1
 120 476 l 1,3,-1
 111 139 l 1,0,-1
132 39 m 256,4,5
 132 19 132 19 118 5 c 128,-1,6
 104 -9 104 -9 84 -9 c 256,7,8
 64 -9 64 -9 50 5 c 128,-1,9
 36 19 36 19 36 39 c 256,10,11
 36 59 36 59 50 73 c 128,-1,12
 64 87 64 87 84 87 c 256,13,14
 104 87 104 87 118 73 c 128,-1,15
 132 59 132 59 132 39 c 256,4,5
EndSplineSet
EndChar
StartChar: quotedbl
Encoding: 34 34 3
Width: 291
Flags: W
Fore
229 333 m 1,0,-1
 183 333 l 1,1,-1
 170 526 l 1,2,-1
 241 526 l 1,3,-1
 229 333 l 1,0,-1
107 333 m 1,4,-1
 62 333 l 1,5,-1
 49 526 l 1,6,-1
 120 526 l 1,7,-1
 107 333 l 1,4,-1
EndSplineSet
EndChar
StartChar: numbersign
Encoding: 35 35 4
Width: 462
Flags: W
Fore
322 0 m 1,0,-1
 263 0 l 1,1,-1
 283 142 l 1,2,-1
 154 142 l 1,3,-1
 137 0 l 1,4,-1
 78 0 l 1,5,-1
 95 142 l 1,6,-1
 33 142 l 1,7,-1
 33 195 l 1,8,-1
 102 195 l 1,9,-1
 114 284 l 1,10,-1
 46 284 l 1,11,-1
 46 338 l 1,12,-1
 120 338 l 1,13,-1
 139 475 l 1,14,-1
 196 475 l 1,15,-1
 179 338 l 1,16,-1
 306 338 l 1,17,-1
 323 475 l 1,18,-1
 382 475 l 1,19,-1
 365 338 l 1,20,-1
 428 338 l 1,21,-1
 428 284 l 1,22,-1
 357 284 l 1,23,-1
 346 195 l 1,24,-1
 413 195 l 1,25,-1
 413 142 l 1,26,-1
 341 142 l 1,27,-1
 322 0 l 1,0,-1
288 195 m 1,28,-1
 300 284 l 1,29,-1
 172 284 l 1,30,-1
 161 195 l 1,31,-1
 288 195 l 1,28,-1
EndSplineSet
EndChar
StartChar: dollar
Encoding: 36 36 5
Width: 367
Flags: W
Fore
324 138 m 0,0,1
 324 96 324 96 294 62 c 128,-1,2
 264 28 264 28 213 17 c 1,3,-1
 213 -55 l 1,4,-1
 154 -55 l 1,5,-1
 154 15 l 1,6,7
 88 21 88 21 43 56 c 1,8,-1
 70 104 l 1,9,10
 114 69 114 69 175 69 c 0,11,12
 215 69 215 69 239 87.5 c 128,-1,13
 263 106 263 106 263 136 c 0,14,15
 263 183 263 183 182 217 c 0,16,17
 55 271 55 271 55 344 c 0,18,19
 55 387 55 387 83.5 418 c 128,-1,20
 112 449 112 449 162 459 c 1,21,-1
 162 533 l 1,22,-1
 220 533 l 1,23,-1
 220 460 l 1,24,25
 267 454 267 454 316 427 c 1,26,-1
 286 378 l 1,27,28
 252 407 252 407 193 407 c 0,29,30
 160 407 160 407 138 391.5 c 128,-1,31
 116 376 116 376 116 349 c 0,32,33
 116 311 116 311 204 272 c 0,34,35
 270 243 270 243 297 213 c 128,-1,36
 324 183 324 183 324 138 c 0,0,1
EndSplineSet
EndChar
StartChar: percent
Encoding: 37 37 6
Width: 688
Flags: W
Fore
217 -9 m 1,0,-1
 156 -9 l 1,1,-1
 461 476 l 1,2,-1
 522 476 l 1,3,-1
 217 -9 l 1,0,-1
276 338 m 0,4,5
 276 192 276 192 157 192 c 0,6,7
 39 192 39 192 39 338 c 0,8,9
 39 485 39 485 157 485 c 0,10,11
 276 485 276 485 276 338 c 0,4,5
217 338 m 0,12,13
 217 432 217 432 157 432 c 0,14,15
 99 432 99 432 99 338 c 0,16,17
 99 246 99 246 157 246 c 0,18,19
 217 246 217 246 217 338 c 0,12,13
649 139 m 0,20,21
 649 -8 649 -8 529 -8 c 0,22,23
 410 -8 410 -8 410 139 c 0,24,25
 410 285 410 285 529 285 c 0,26,27
 649 285 649 285 649 139 c 0,20,21
589 139 m 0,28,29
 589 233 589 233 529 233 c 0,30,31
 470 233 470 233 470 139 c 0,32,33
 470 46 470 46 529 46 c 0,34,35
 589 46 589 46 589 139 c 0,28,29
EndSplineSet
EndChar
StartChar: ampersand
Encoding: 38 38 7
Width: 486
Flags: W
Fore
420 -14 m 1,0,-1
 352 48 l 1,1,2
 273 -9 273 -9 192 -9 c 0,3,4
 124 -9 124 -9 79.5 33 c 128,-1,5
 35 75 35 75 35 134 c 0,6,7
 35 223 35 223 130 275 c 1,8,9
 93 323 93 323 93 368 c 0,10,11
 93 420 93 420 129.5 456 c 128,-1,12
 166 492 166 492 223 492 c 0,13,14
 272 492 272 492 303.5 462.5 c 128,-1,15
 335 433 335 433 335 387 c 0,16,17
 335 308 335 308 221 255 c 1,18,19
 266 205 266 205 348 126 c 1,20,21
 397 190 397 190 404 266 c 1,22,-1
 457 266 l 1,23,24
 443 158 443 158 390 89 c 1,25,26
 437 46 437 46 474 14 c 1,27,-1
 420 -14 l 1,0,-1
277 384 m 0,28,29
 277 441 277 441 220 441 c 0,30,31
 190 441 190 441 172 421 c 128,-1,32
 154 401 154 401 154 372 c 256,33,34
 154 343 154 343 191 298 c 1,35,36
 277 341 277 341 277 384 c 0,28,29
312 85 m 1,37,38
 167 233 l 1,39,40
 98 194 98 194 98 138 c 0,41,42
 98 97 98 97 127 71 c 128,-1,43
 156 45 156 45 200 45 c 0,44,45
 266 45 266 45 312 85 c 1,37,38
EndSplineSet
EndChar
StartChar: quotesingle
Encoding: 39 39 8
Width: 169
Flags: W
Fore
107 333 m 1,0,-1
 62 333 l 1,1,-1
 49 526 l 1,2,-1
 120 526 l 1,3,-1
 107 333 l 1,0,-1
EndSplineSet
EndChar
StartChar: parenleft
Encoding: 40 40 9
Width: 244
Flags: W
Fore
162 -55 m 1,0,1
 44 67 44 67 44 235 c 0,2,3
 44 392 44 392 159 530 c 1,4,-1
 233 530 l 1,5,6
 106 391 106 391 106 235 c 0,7,8
 106 87 106 87 232 -55 c 1,9,-1
 162 -55 l 1,0,1
EndSplineSet
EndChar
StartChar: parenright
Encoding: 41 41 10
Width: 244
Flags: W
Fore
199 238 m 0,0,1
 199 74 199 74 81 -55 c 1,2,-1
 12 -55 l 1,3,4
 137 94 137 94 137 238 c 0,5,6
 137 383 137 383 11 530 c 1,7,-1
 80 530 l 1,8,9
 199 403 199 403 199 238 c 0,0,1
EndSplineSet
EndChar
StartChar: asterisk
Encoding: 42 42 11
Width: 343
Flags: W
Fore
266 277 m 1,0,-1
 215 247 l 1,1,-1
 171 333 l 1,2,-1
 127 247 l 1,3,-1
 76 277 l 1,4,-1
 138 354 l 1,5,-1
 39 345 l 1,6,-1
 39 397 l 1,7,-1
 138 389 l 1,8,-1
 76 466 l 1,9,-1
 127 496 l 1,10,-1
 171 410 l 1,11,-1
 215 496 l 1,12,-1
 266 466 l 1,13,-1
 204 389 l 1,14,-1
 303 397 l 1,15,-1
 303 346 l 1,16,-1
 204 354 l 1,17,-1
 266 277 l 1,0,-1
EndSplineSet
EndChar
StartChar: plus
Encoding: 43 43 12
Width: 417
Flags: W
Fore
240 0 m 1,0,-1
 177 0 l 1,1,-1
 177 157 l 1,2,-1
 29 157 l 1,3,-1
 29 212 l 1,4,-1
 177 212 l 1,5,-1
 177 363 l 1,6,-1
 240 363 l 1,7,-1
 240 212 l 1,8,-1
 388 212 l 1,9,-1
 388 157 l 1,10,-1
 240 157 l 1,11,-1
 240 0 l 1,0,-1
EndSplineSet
EndChar
StartChar: comma
Encoding: 44 44 13
Width: 172
Flags: W
Fore
137 37 m 0,0,1
 137 -62 137 -62 46 -107 c 1,2,-1
 25 -78 l 1,3,4
 78 -46 78 -46 86 -8 c 1,5,6
 38 -5 38 -5 38 42 c 0,7,8
 38 63 38 63 52.5 77.5 c 128,-1,9
 67 92 67 92 87 92 c 0,10,11
 108 92 108 92 122.5 76.5 c 128,-1,12
 137 61 137 61 137 37 c 0,0,1
EndSplineSet
EndChar
StartChar: hyphen
Encoding: 173 45 14
AltUni: 173
Width: 226
Flags: W
Fore
213 157 m 1,0,-1
 13 157 l 1,1,-1
 13 211 l 1,2,-1
 213 211 l 1,3,-1
 213 157 l 1,0,-1
EndSplineSet
EndChar
StartChar: period
Encoding: 46 46 15
Width: 172
Flags: W
Fore
134 39 m 256,0,1
 134 19 134 19 120 5 c 128,-1,2
 106 -9 106 -9 86 -9 c 256,3,4
 66 -9 66 -9 52 5 c 128,-1,5
 38 19 38 19 38 39 c 256,6,7
 38 59 38 59 52 73 c 128,-1,8
 66 87 66 87 86 87 c 256,9,10
 106 87 106 87 120 73 c 128,-1,11
 134 59 134 59 134 39 c 256,0,1
EndSplineSet
EndChar
StartChar: slash
Encoding: 47 47 16
Width: 276
Flags: W
Fore
34 -28 m 1,0,-1
 -30 -28 l 1,1,-1
 237 492 l 1,2,-1
 301 492 l 1,3,-1
 34 -28 l 1,0,-1
EndSplineSet
EndChar
StartChar: zero
Encoding: 48 48 17
Width: 378
Flags: W
Fore
349 235 m 256,0,1
 349 134 349 134 307 62.5 c 128,-1,2
 265 -9 265 -9 187 -9 c 0,3,4
 112 -9 112 -9 70 62.5 c 128,-1,5
 28 134 28 134 28 235 c 256,6,7
 28 336 28 336 70 407.5 c 128,-1,8
 112 479 112 479 187 479 c 0,9,10
 265 479 265 479 307 407.5 c 128,-1,11
 349 336 349 336 349 235 c 256,0,1
285 235 m 256,12,13
 285 319 285 319 261 371.5 c 128,-1,14
 237 424 237 424 189 424 c 0,15,16
 140 424 140 424 116 371.5 c 128,-1,17
 92 319 92 319 92 235 c 256,18,19
 92 151 92 151 116 98.5 c 128,-1,20
 140 46 140 46 188 46 c 0,21,22
 237 46 237 46 261 98.5 c 128,-1,23
 285 151 285 151 285 235 c 256,12,13
EndSplineSet
EndChar
StartChar: one
Encoding: 49 49 18
Width: 378
Flags: W
Fore
307 0 m 1,0,-1
 96 0 l 1,1,-1
 96 51 l 1,2,-1
 170 51 l 1,3,-1
 170 383 l 1,4,-1
 107 330 l 1,5,-1
 70 371 l 1,6,-1
 197 478 l 1,7,8
 234 478 234 478 234 430 c 2,9,-1
 234 51 l 1,10,-1
 307 51 l 1,11,-1
 307 0 l 1,0,-1
EndSplineSet
EndChar
StartChar: two
Encoding: 50 50 19
Width: 378
Flags: W
Fore
348 0 m 1,0,-1
 24 0 l 1,1,2
 32 44 32 44 41 72 c 1,3,4
 67 104 67 104 200 228 c 0,5,6
 282 305 282 305 282 354 c 0,7,8
 282 420 282 420 204 420 c 0,9,10
 127 420 127 420 112 331 c 1,11,-1
 53 346 l 1,12,13
 60 410 60 410 103 445 c 0,14,15
 143 478 143 478 205 478 c 0,16,17
 266 478 266 478 306 442 c 128,-1,18
 346 406 346 406 346 351 c 0,19,20
 346 302 346 302 294 240 c 0,21,22
 262 203 262 203 187 137 c 0,23,24
 120 78 120 78 105 56 c 1,25,-1
 360 56 l 1,26,-1
 348 0 l 1,0,-1
EndSplineSet
EndChar
StartChar: three
Encoding: 51 51 20
Width: 378
Flags: W
Fore
345 165 m 0,0,1
 345 87 345 87 289.5 39.5 c 128,-1,2
 234 -8 234 -8 144 -8 c 0,3,4
 76 -8 76 -8 26 34 c 1,5,-1
 54 85 l 1,6,7
 99 53 99 53 154 53 c 0,8,9
 206 53 206 53 244 86 c 128,-1,10
 282 119 282 119 282 163 c 0,11,12
 282 195 282 195 261.5 217 c 128,-1,13
 241 239 241 239 210 239 c 0,14,15
 173 239 173 239 139 210 c 1,16,-1
 112 254 l 1,17,18
 161 282 161 282 199 317 c 0,19,20
 244 359 244 359 244 385 c 0,21,22
 244 424 244 424 189 424 c 0,23,24
 153 424 153 424 122.5 401 c 128,-1,25
 92 378 92 378 79 347 c 1,26,-1
 34 370 l 1,27,28
 53 420 53 420 95.5 449 c 128,-1,29
 138 478 138 478 192 478 c 0,30,31
 240 478 240 478 272 453 c 128,-1,32
 304 428 304 428 304 386 c 0,33,34
 304 345 304 345 242 292 c 1,35,36
 289 283 289 283 317 249 c 128,-1,37
 345 215 345 215 345 165 c 0,0,1
EndSplineSet
EndChar
StartChar: four
Encoding: 52 52 21
Width: 378
Flags: W
Fore
229 160 m 1,0,-1
 229 404 l 1,1,2
 181 373 181 373 142.5 303 c 128,-1,3
 104 233 104 233 91 160 c 1,4,-1
 229 160 l 1,0,-1
293 0 m 1,5,-1
 229 0 l 1,6,-1
 229 106 l 1,7,-1
 28 106 l 1,8,9
 28 231 28 231 107 355.5 c 128,-1,10
 186 480 186 480 293 489 c 1,11,-1
 293 160 l 1,12,-1
 357 160 l 1,13,-1
 350 106 l 1,14,-1
 293 106 l 1,15,-1
 293 0 l 1,5,-1
EndSplineSet
EndChar
StartChar: five
Encoding: 53 53 22
Width: 378
Flags: W
Fore
346 168 m 0,0,1
 346 90 346 90 291 41 c 128,-1,2
 236 -8 236 -8 149 -8 c 0,3,4
 75 -8 75 -8 26 35 c 1,5,-1
 53 81 l 1,6,7
 109 46 109 46 156 46 c 0,8,9
 208 46 208 46 245 80.5 c 128,-1,10
 282 115 282 115 282 167 c 0,11,12
 282 210 282 210 254 233.5 c 128,-1,13
 226 257 226 257 179 257 c 256,14,15
 132 257 132 257 118 224 c 1,16,-1
 78 222 l 1,17,-1
 95 476 l 1,18,-1
 333 476 l 1,19,-1
 322 422 l 1,20,-1
 156 422 l 1,21,-1
 149 306 l 1,22,23
 167 314 167 314 192 314 c 0,24,25
 258 314 258 314 302 273 c 128,-1,26
 346 232 346 232 346 168 c 0,0,1
EndSplineSet
EndChar
StartChar: six
Encoding: 54 54 23
Width: 378
Flags: W
Fore
341 150 m 0,0,1
 341 83 341 83 300.5 37.5 c 128,-1,2
 260 -8 260 -8 197 -8 c 0,3,4
 127 -8 127 -8 81.5 41 c 128,-1,5
 36 90 36 90 36 171 c 0,6,7
 36 286 36 286 112 374 c 128,-1,8
 188 462 188 462 310 486 c 1,9,-1
 316 436 l 1,10,11
 253 419 253 419 196 374.5 c 128,-1,12
 139 330 139 330 114 275 c 1,13,14
 145 306 145 306 199 306 c 0,15,16
 259 306 259 306 300 261 c 128,-1,17
 341 216 341 216 341 150 c 0,0,1
283 150 m 256,18,19
 283 190 283 190 257 221 c 128,-1,20
 231 252 231 252 195 252 c 0,21,22
 157 252 157 252 130.5 222.5 c 128,-1,23
 104 193 104 193 104 150 c 0,24,25
 104 108 104 108 130.5 78 c 128,-1,26
 157 48 157 48 195 48 c 0,27,28
 231 48 231 48 257 79 c 128,-1,29
 283 110 283 110 283 150 c 256,18,19
EndSplineSet
EndChar
StartChar: seven
Encoding: 55 55 24
Width: 378
Flags: W
Fore
197 0 m 1,0,-1
 132 0 l 1,1,2
 140 279 140 279 273 422 c 1,3,-1
 28 422 l 1,4,-1
 43 476 l 1,5,-1
 354 476 l 1,6,-1
 345 422 l 1,7,8
 268 326 268 326 235 238 c 0,9,10
 197 137 197 137 197 0 c 1,0,-1
EndSplineSet
EndChar
StartChar: eight
Encoding: 56 56 25
Width: 378
Flags: W
Fore
286 131 m 0,0,1
 286 168 286 168 261 198 c 128,-1,2
 236 228 236 228 189 231 c 0,3,4
 142 228 142 228 117 198 c 128,-1,5
 92 168 92 168 92 131 c 0,6,7
 92 92 92 92 119 69 c 128,-1,8
 146 46 146 46 189 46 c 256,9,10
 232 46 232 46 259 69 c 128,-1,11
 286 92 286 92 286 131 c 0,0,1
272 355 m 0,12,13
 272 385 272 385 249 405 c 128,-1,14
 226 425 226 425 189 425 c 256,15,16
 152 425 152 425 129 405 c 128,-1,17
 106 385 106 385 106 355 c 0,18,19
 106 306 106 306 188 283 c 1,20,21
 272 306 272 306 272 355 c 0,12,13
347 134 m 0,22,23
 347 68 347 68 304 30 c 128,-1,24
 261 -8 261 -8 188 -8 c 0,25,26
 116 -8 116 -8 73.5 30 c 128,-1,27
 31 68 31 68 31 134 c 0,28,29
 31 174 31 174 53.5 208 c 128,-1,30
 76 242 76 242 111 258 c 1,31,32
 46 293 46 293 46 352 c 0,33,34
 46 407 46 407 86.5 443 c 128,-1,35
 127 479 127 479 189 479 c 256,36,37
 251 479 251 479 291.5 443 c 128,-1,38
 332 407 332 407 332 352 c 0,39,40
 332 293 332 293 267 258 c 1,41,42
 302 242 302 242 324.5 208 c 128,-1,43
 347 174 347 174 347 134 c 0,22,23
EndSplineSet
EndChar
StartChar: nine
Encoding: 57 57 26
Width: 378
Flags: W
Fore
341 299 m 0,0,1
 341 184 341 184 265 96 c 128,-1,2
 189 8 189 8 67 -16 c 1,3,-1
 61 34 l 1,4,5
 122 50 122 50 182.5 98 c 128,-1,6
 243 146 243 146 267 196 c 1,7,8
 238 164 238 164 178 164 c 256,9,10
 118 164 118 164 77 209 c 128,-1,11
 36 254 36 254 36 320 c 0,12,13
 36 387 36 387 76.5 432.5 c 128,-1,14
 117 478 117 478 180 478 c 0,15,16
 250 478 250 478 295.5 429 c 128,-1,17
 341 380 341 380 341 299 c 0,0,1
273 320 m 0,18,19
 273 362 273 362 246.5 392 c 128,-1,20
 220 422 220 422 182 422 c 0,21,22
 146 422 146 422 120 391 c 128,-1,23
 94 360 94 360 94 320 c 256,24,25
 94 280 94 280 120 249 c 128,-1,26
 146 218 146 218 182 218 c 0,27,28
 220 218 220 218 246.5 247.5 c 128,-1,29
 273 277 273 277 273 320 c 0,18,19
EndSplineSet
EndChar
StartChar: colon
Encoding: 58 58 27
Width: 172
Flags: W
Fore
134 39 m 256,0,1
 134 19 134 19 120 5 c 128,-1,2
 106 -9 106 -9 86 -9 c 256,3,4
 66 -9 66 -9 52 5 c 128,-1,5
 38 19 38 19 38 39 c 256,6,7
 38 59 38 59 52 73 c 128,-1,8
 66 87 66 87 86 87 c 256,9,10
 106 87 106 87 120 73 c 128,-1,11
 134 59 134 59 134 39 c 256,0,1
134 285 m 256,12,13
 134 265 134 265 120 251 c 128,-1,14
 106 237 106 237 86 237 c 256,15,16
 66 237 66 237 52 251 c 128,-1,17
 38 265 38 265 38 285 c 256,18,19
 38 305 38 305 52 319 c 128,-1,20
 66 333 66 333 86 333 c 256,21,22
 106 333 106 333 120 319 c 128,-1,23
 134 305 134 305 134 285 c 256,12,13
EndSplineSet
EndChar
StartChar: semicolon
Encoding: 59 59 28
Width: 172
Flags: W
Fore
134 285 m 256,0,1
 134 265 134 265 120 251 c 128,-1,2
 106 237 106 237 86 237 c 256,3,4
 66 237 66 237 52 251 c 128,-1,5
 38 265 38 265 38 285 c 256,6,7
 38 305 38 305 52 319 c 128,-1,8
 66 333 66 333 86 333 c 256,9,10
 106 333 106 333 120 319 c 128,-1,11
 134 305 134 305 134 285 c 256,0,1
137 37 m 0,12,13
 137 -62 137 -62 46 -107 c 1,14,-1
 25 -78 l 1,15,16
 78 -46 78 -46 86 -8 c 1,17,18
 38 -5 38 -5 38 42 c 0,19,20
 38 63 38 63 52.5 77.5 c 128,-1,21
 67 92 67 92 87 92 c 0,22,23
 108 92 108 92 122.5 76.5 c 128,-1,24
 137 61 137 61 137 37 c 0,12,13
EndSplineSet
EndChar
StartChar: less
Encoding: 60 60 29
Width: 417
Flags: W
Fore
381 -10 m 1,0,-1
 36 170 l 1,1,-1
 36 211 l 1,2,-1
 381 390 l 1,3,-1
 381 327 l 1,4,-1
 116 190 l 1,5,-1
 381 53 l 1,6,-1
 381 -10 l 1,0,-1
EndSplineSet
EndChar
StartChar: equal
Encoding: 61 61 30
Width: 417
Flags: W
Fore
371 223 m 1,0,-1
 46 223 l 1,1,-1
 46 275 l 1,2,-1
 371 275 l 1,3,-1
 371 223 l 1,0,-1
371 97 m 1,4,-1
 46 97 l 1,5,-1
 46 150 l 1,6,-1
 371 150 l 1,7,-1
 371 97 l 1,4,-1
EndSplineSet
EndChar
StartChar: greater
Encoding: 62 62 31
Width: 417
Flags: W
Fore
381 170 m 1,0,-1
 36 -10 l 1,1,-1
 36 53 l 1,2,-1
 302 191 l 1,3,-1
 36 327 l 1,4,-1
 36 390 l 1,5,-1
 381 211 l 1,6,-1
 381 170 l 1,0,-1
EndSplineSet
EndChar
StartChar: question
Encoding: 63 63 32
Width: 289
Flags: W
Fore
265 371 m 0,0,1
 265 317 265 317 199 250 c 0,2,3
 154 205 154 205 153 159 c 0,4,5
 153 144 153 144 160 117 c 1,6,-1
 103 117 l 1,7,8
 93 147 93 147 93 162 c 0,9,10
 93 211 93 211 147.5 274 c 128,-1,11
 202 337 202 337 202 369 c 0,12,13
 202 426 202 426 132 426 c 0,14,15
 89 426 89 426 49 397 c 1,16,-1
 24 446 l 1,17,18
 83 483 83 483 139 483 c 0,19,20
 196 483 196 483 230.5 452.5 c 128,-1,21
 265 422 265 422 265 371 c 0,0,1
183 39 m 256,22,23
 183 19 183 19 169 5 c 128,-1,24
 155 -9 155 -9 135 -9 c 256,25,26
 115 -9 115 -9 101 5 c 128,-1,27
 87 19 87 19 87 39 c 256,28,29
 87 59 87 59 101 73 c 128,-1,30
 115 87 115 87 135 87 c 256,31,32
 155 87 155 87 169 73 c 128,-1,33
 183 59 183 59 183 39 c 256,22,23
EndSplineSet
EndChar
StartChar: at
Encoding: 64 64 33
Width: 572
Flags: W
Fore
540 177 m 0,0,1
 540 97 540 97 482 49 c 0,2,3
 431 7 431 7 361 7 c 1,4,-1
 355 43 l 1,5,6
 308 1 308 1 248 1 c 0,7,8
 205 1 205 1 174.5 25.5 c 128,-1,9
 144 50 144 50 144 87 c 0,10,11
 144 196 144 196 343 201 c 1,12,13
 343 277 343 277 271 277 c 0,14,15
 232 277 232 277 199 256 c 1,16,-1
 182 291 l 1,17,18
 230 319 230 319 287 319 c 0,19,20
 340 319 340 319 368.5 284 c 128,-1,21
 397 249 397 249 397 189 c 2,22,-1
 397 85 l 2,23,24
 397 62 397 62 398 53 c 1,25,-1
 410 53 l 1,26,27
 445 63 445 63 469 98.5 c 128,-1,28
 493 134 493 134 493 175 c 0,29,30
 493 252 493 252 441 303.5 c 128,-1,31
 389 355 389 355 302 355 c 0,32,33
 204 355 204 355 142.5 292.5 c 128,-1,34
 81 230 81 230 81 136 c 0,35,36
 81 54 81 54 135.5 0 c 128,-1,37
 190 -54 190 -54 270 -54 c 0,38,39
 331 -54 331 -54 392 -22 c 1,40,-1
 411 -62 l 1,41,42
 341 -95 341 -95 267 -95 c 0,43,44
 169 -95 169 -95 101 -31 c 0,45,46
 30 34 30 34 30 133 c 0,47,48
 30 246 30 246 109 321 c 128,-1,49
 188 396 188 396 307 396 c 0,50,51
 409 396 409 396 474.5 334.5 c 128,-1,52
 540 273 540 273 540 177 c 0,0,1
346 107 m 2,53,-1
 346 163 l 1,54,55
 194 157 194 157 194 92 c 0,56,57
 194 45 194 45 249 45 c 0,58,59
 286 45 286 45 314 61 c 0,60,61
 346 79 346 79 346 107 c 2,53,-1
EndSplineSet
EndChar
StartChar: A
Encoding: 65 65 34
Width: 451
Flags: W
Fore
452 0 m 1,0,-1
 383 0 l 1,1,-1
 320 159 l 1,2,-1
 129 159 l 1,3,-1
 67 0 l 1,4,-1
 -1 0 l 1,5,-1
 199 483 l 1,6,-1
 253 483 l 1,7,-1
 452 0 l 1,0,-1
296 213 m 1,8,-1
 226 411 l 1,9,-1
 152 213 l 1,10,-1
 296 213 l 1,8,-1
EndSplineSet
KernsSLIFO: 461 -15 0 0 460 -40 0 0 459 -15 0 0 458 -40 0 0 457 -15 0 0 456 -40 0 0 455 -15 0 0 454 -40 0 0 201 -40 0 0 193 -15 0 0 191 -15 0 0 159 -40 0 0 90 -15 0 0 58 -40 0 0 56 -45 0 0 55 -50 0 0 53 -40 0 0
EndChar
StartChar: B
Encoding: 66 66 35
Width: 396
Flags: W
Fore
366 138 m 0,0,1
 366 -6 366 -6 154 -6 c 0,2,3
 109 -6 109 -6 50 7 c 1,4,-1
 50 467 l 1,5,6
 112 482 112 482 164 482 c 0,7,8
 347 482 347 482 347 356 c 0,9,10
 347 292 347 292 287 255 c 1,11,12
 366 218 366 218 366 138 c 0,0,1
284 355 m 0,13,14
 284 427 284 427 164 427 c 0,15,16
 143 427 143 427 113 424 c 1,17,-1
 113 278 l 1,18,-1
 184 278 l 2,19,20
 228 278 228 278 256 298.5 c 128,-1,21
 284 319 284 319 284 355 c 0,13,14
304 137 m 0,22,23
 304 185 304 185 258 208 c 0,24,25
 223 225 223 225 171 225 c 2,26,-1
 113 225 l 1,27,-1
 113 51 l 1,28,29
 130 48 130 48 163 48 c 0,30,31
 228 48 228 48 266 71 c 128,-1,32
 304 94 304 94 304 137 c 0,22,23
EndSplineSet
EndChar
StartChar: C
Encoding: 67 67 36
Width: 432
Flags: W
Fore
410 25 m 1,0,1
 337 -7 337 -7 236 -7 c 0,2,3
 141 -7 141 -7 83.5 60.5 c 128,-1,4
 26 128 26 128 26 237 c 0,5,6
 26 345 26 345 82 411 c 0,7,8
 144 483 144 483 255 483 c 0,9,10
 340 483 340 483 410 454 c 1,11,-1
 390 404 l 1,12,13
 330 429 330 429 257 429 c 0,14,15
 165 429 165 429 122 361 c 0,16,17
 90 311 90 311 90 235 c 0,18,19
 90 165 90 165 125 113 c 0,20,21
 169 47 169 47 249 47 c 0,22,23
 332 47 332 47 393 77 c 1,24,-1
 410 25 l 1,0,1
EndSplineSet
EndChar
StartChar: D
Encoding: 68 68 37
Width: 459
Flags: W
Fore
433 248 m 0,0,1
 433 140 433 140 381 75 c 0,2,3
 317 -4 317 -4 184 -4 c 0,4,5
 143 -4 143 -4 50 6 c 1,6,-1
 50 468 l 1,7,8
 164 481 164 481 204 481 c 0,9,10
 326 481 326 481 385 408 c 0,11,12
 433 349 433 349 433 248 c 0,0,1
369 248 m 0,13,14
 369 427 369 427 201 427 c 0,15,16
 173 427 173 427 113 421 c 1,17,-1
 113 53 l 1,18,19
 146 50 146 50 196 50 c 0,20,21
 293 50 293 50 337 119 c 0,22,23
 369 170 369 170 369 248 c 0,13,14
EndSplineSet
EndChar
StartChar: E
Encoding: 69 69 38
Width: 358
Flags: W
Fore
333 0 m 1,0,-1
 50 0 l 1,1,-1
 50 476 l 1,2,-1
 333 476 l 1,3,-1
 333 422 l 1,4,-1
 113 422 l 1,5,-1
 113 278 l 1,6,-1
 309 278 l 1,7,-1
 309 224 l 1,8,-1
 113 224 l 1,9,-1
 113 54 l 1,10,-1
 333 54 l 1,11,-1
 333 0 l 1,0,-1
EndSplineSet
EndChar
StartChar: F
Encoding: 70 70 39
Width: 358
Flags: W
Fore
113 0 m 1,0,-1
 50 0 l 1,1,-1
 50 476 l 1,2,-1
 343 476 l 1,3,-1
 343 422 l 1,4,-1
 113 422 l 1,5,-1
 113 272 l 1,6,-1
 329 272 l 1,7,-1
 329 219 l 1,8,-1
 113 219 l 1,9,-1
 113 0 l 1,0,-1
EndSplineSet
KernsSLIFO: 464 -40 0 0 394 -40 0 0 392 -40 0 0 390 -40 0 0 388 -40 0 0 386 -40 0 0 384 -40 0 0 382 -40 0 0 380 -40 0 0 378 -40 0 0 376 -40 0 0 374 -40 0 0 372 -40 0 0 136 -50 0 0 135 -40 0 0 134 -40 0 0 133 -40 0 0 132 -40 0 0 131 -40 0 0 130 -40 0 0 34 -40 0 0
EndChar
StartChar: G
Encoding: 71 71 40
Width: 454
Flags: W
Fore
414 11 m 1,0,-1
 382 19 l 1,1,2
 324 -7 324 -7 236 -7 c 0,3,4
 141 -7 141 -7 83.5 60.5 c 128,-1,5
 26 128 26 128 26 237 c 0,6,7
 26 345 26 345 82 411 c 0,8,9
 144 483 144 483 255 483 c 0,10,11
 340 483 340 483 410 454 c 1,12,-1
 390 404 l 1,13,14
 330 429 330 429 257 429 c 0,15,16
 165 429 165 429 122 361 c 0,17,18
 90 311 90 311 90 235 c 0,19,20
 90 165 90 165 125 113 c 0,21,22
 169 47 169 47 249 47 c 0,23,24
 308 47 308 47 351 63 c 1,25,-1
 351 198 l 1,26,-1
 231 198 l 1,27,-1
 231 251 l 1,28,-1
 414 251 l 1,29,-1
 414 11 l 1,0,-1
EndSplineSet
EndChar
StartChar: H
Encoding: 72 72 41
Width: 472
Flags: W
Fore
422 0 m 1,0,-1
 359 0 l 1,1,-1
 359 226 l 1,2,-1
 113 226 l 1,3,-1
 113 0 l 1,4,-1
 50 0 l 1,5,-1
 50 476 l 1,6,-1
 113 476 l 1,7,-1
 113 280 l 1,8,-1
 359 280 l 1,9,-1
 359 476 l 1,10,-1
 422 476 l 1,11,-1
 422 0 l 1,0,-1
EndSplineSet
EndChar
StartChar: I
Encoding: 73 73 42
Width: 163
Flags: W
Fore
113 0 m 1,0,-1
 50 0 l 1,1,-1
 50 476 l 1,2,-1
 113 476 l 1,3,-1
 113 0 l 1,0,-1
EndSplineSet
EndChar
StartChar: J
Encoding: 74 74 43
Width: 282
Flags: W
Fore
232 160 m 2,0,1
 232 -9 232 -9 79 -9 c 0,2,3
 40 -9 40 -9 -6 10 c 1,4,-1
 11 62 l 1,5,6
 40 45 40 45 79 45 c 0,7,8
 126 45 126 45 147.5 73 c 128,-1,9
 169 101 169 101 169 170 c 2,10,-1
 169 476 l 1,11,-1
 232 476 l 1,12,-1
 232 160 l 2,0,1
EndSplineSet
EndChar
StartChar: K
Encoding: 75 75 44
Width: 411
Flags: W
Fore
418 15 m 1,0,-1
 358 -7 l 1,1,-1
 152 229 l 1,2,-1
 113 191 l 1,3,-1
 113 0 l 1,4,-1
 50 0 l 1,5,-1
 50 476 l 1,6,-1
 113 476 l 1,7,-1
 113 266 l 1,8,-1
 340 484 l 1,9,-1
 401 468 l 1,10,-1
 195 271 l 1,11,-1
 418 15 l 1,0,-1
EndSplineSet
EndChar
StartChar: L
Encoding: 76 76 45
Width: 359
Flags: W
Fore
346 0 m 1,0,-1
 50 0 l 1,1,-1
 50 476 l 1,2,-1
 113 476 l 1,3,-1
 113 54 l 1,4,-1
 346 54 l 1,5,-1
 346 0 l 1,0,-1
EndSplineSet
KernsSLIFO: 460 -70 0 0 458 -70 0 0 456 -70 0 0 454 -70 0 0 201 -70 0 0 159 -70 0 0 58 -70 0 0 56 -70 0 0 55 -80 0 0 53 -80 0 0
EndChar
StartChar: M
Encoding: 77 77 46
Width: 574
Flags: W
Fore
545 0 m 1,0,-1
 484 0 l 1,1,-1
 458 369 l 1,2,-1
 308 0 l 1,3,-1
 266 0 l 1,4,-1
 116 369 l 1,5,-1
 90 0 l 1,6,-1
 29 0 l 1,7,-1
 63 476 l 1,8,-1
 129 476 l 1,9,-1
 287 80 l 1,10,-1
 445 476 l 1,11,-1
 511 476 l 1,12,-1
 545 0 l 1,0,-1
EndSplineSet
EndChar
StartChar: N
Encoding: 78 78 47
Width: 472
Flags: W
Fore
422 0 m 1,0,-1
 362 0 l 1,1,-1
 113 386 l 1,2,-1
 113 0 l 1,3,-1
 50 0 l 1,4,-1
 50 476 l 1,5,-1
 113 476 l 1,6,-1
 359 100 l 1,7,-1
 359 476 l 1,8,-1
 422 476 l 1,9,-1
 422 0 l 1,0,-1
EndSplineSet
EndChar
StartChar: O
Encoding: 79 79 48
Width: 518
Flags: W
Fore
430 238 m 256,0,1
 430 320 430 320 383 375.5 c 128,-1,2
 336 431 336 431 259 431 c 256,3,4
 182 431 182 431 135 375.5 c 128,-1,5
 88 320 88 320 88 238 c 256,6,7
 88 156 88 156 135 100.5 c 128,-1,8
 182 45 182 45 259 45 c 256,9,10
 336 45 336 45 383 100.5 c 128,-1,11
 430 156 430 156 430 238 c 256,0,1
492 237 m 256,12,13
 492 132 492 132 427 61 c 128,-1,14
 362 -10 362 -10 259 -10 c 256,15,16
 156 -10 156 -10 91 61 c 128,-1,17
 26 132 26 132 26 237 c 256,18,19
 26 342 26 342 91 413.5 c 128,-1,20
 156 485 156 485 259 485 c 256,21,22
 362 485 362 485 427 413.5 c 128,-1,23
 492 342 492 342 492 237 c 256,12,13
EndSplineSet
EndChar
StartChar: P
Encoding: 80 80 49
Width: 390
Flags: W
Fore
365 339 m 0,0,1
 365 270 365 270 309.5 227.5 c 128,-1,2
 254 185 254 185 163 185 c 0,3,4
 140 185 140 185 113 188 c 1,5,-1
 113 0 l 1,6,-1
 50 0 l 1,7,-1
 50 469 l 1,8,9
 122 481 122 481 177 481 c 0,10,11
 265 481 265 481 315 441.5 c 128,-1,12
 365 402 365 402 365 339 c 0,0,1
302 336 m 0,13,14
 302 427 302 427 176 427 c 0,15,16
 142 427 142 427 113 424 c 1,17,-1
 113 245 l 1,18,19
 147 239 147 239 170 239 c 0,20,21
 302 239 302 239 302 336 c 0,13,14
EndSplineSet
KernsSLIFO: 464 -50 0 0 394 -50 0 0 392 -50 0 0 390 -50 0 0 388 -50 0 0 386 -50 0 0 384 -50 0 0 382 -50 0 0 380 -50 0 0 378 -50 0 0 376 -50 0 0 374 -50 0 0 372 -50 0 0 135 -50 0 0 134 -50 0 0 133 -50 0 0 132 -50 0 0 131 -50 0 0 130 -50 0 0 43 -60 0 0 34 -50 0 0
EndChar
StartChar: Q
Encoding: 81 81 50
Width: 518
Flags: W
Fore
430 238 m 256,0,1
 430 320 430 320 383 375.5 c 128,-1,2
 336 431 336 431 259 431 c 256,3,4
 182 431 182 431 135 375.5 c 128,-1,5
 88 320 88 320 88 238 c 256,6,7
 88 156 88 156 135 100.5 c 128,-1,8
 182 45 182 45 259 45 c 256,9,10
 336 45 336 45 383 100.5 c 128,-1,11
 430 156 430 156 430 238 c 256,0,1
492 237 m 0,12,13
 492 157 492 157 454.5 98.5 c 128,-1,14
 417 40 417 40 351 17 c 1,15,-1
 351 13 l 1,16,17
 431 -7 431 -7 496 -17 c 1,18,-1
 476 -71 l 1,19,20
 400 -51 400 -51 285 -14 c 0,21,22
 280 -12 280 -12 259 -10 c 0,23,24
 156 -10 156 -10 91 61 c 128,-1,25
 26 132 26 132 26 237 c 256,26,27
 26 342 26 342 91 413.5 c 128,-1,28
 156 485 156 485 259 485 c 256,29,30
 362 485 362 485 427 413.5 c 128,-1,31
 492 342 492 342 492 237 c 0,12,13
EndSplineSet
EndChar
StartChar: R
Encoding: 82 82 51
Width: 395
Flags: W
Fore
380 0 m 1,0,-1
 317 0 l 1,1,2
 290 207 290 207 193 207 c 2,3,-1
 113 207 l 1,4,-1
 113 0 l 1,5,-1
 50 0 l 1,6,-1
 50 468 l 1,7,8
 122 481 122 481 179 481 c 0,9,10
 264 481 264 481 314 445 c 128,-1,11
 364 409 364 409 364 347 c 0,12,13
 364 265 364 265 286 229 c 1,14,15
 323 204 323 204 343.5 156 c 128,-1,16
 364 108 364 108 380 0 c 1,0,-1
303 343 m 0,17,18
 303 426 303 426 179 426 c 0,19,20
 139 426 139 426 113 423 c 1,21,-1
 113 259 l 1,22,-1
 190 259 l 2,23,24
 303 259 303 259 303 343 c 0,17,18
EndSplineSet
EndChar
StartChar: S
Encoding: 83 83 52
Width: 365
Flags: W
Fore
339 130 m 0,0,1
 339 68 339 68 289.5 29.5 c 128,-1,2
 240 -9 240 -9 166 -9 c 0,3,4
 87 -9 87 -9 19 34 c 1,5,-1
 46 91 l 1,6,7
 103 48 103 48 170 48 c 0,8,9
 219 48 219 48 247 69.5 c 128,-1,10
 275 91 275 91 275 127 c 0,11,12
 275 187 275 187 179 218 c 0,13,14
 38 263 38 263 38 356 c 0,15,16
 38 412 38 412 82.5 448.5 c 128,-1,17
 127 485 127 485 198 485 c 256,18,19
 269 485 269 485 321 453 c 1,20,-1
 294 403 l 1,21,22
 244 428 244 428 197 428 c 0,23,24
 154 428 154 428 127.5 408.5 c 128,-1,25
 101 389 101 389 101 361 c 0,26,27
 101 306 101 306 197 275 c 0,28,29
 275 250 275 250 307 217 c 128,-1,30
 339 184 339 184 339 130 c 0,0,1
EndSplineSet
EndChar
StartChar: T
Encoding: 84 84 53
Width: 421
Flags: W
Fore
243 0 m 1,0,-1
 180 0 l 1,1,-1
 180 422 l 1,2,-1
 4 422 l 1,3,-1
 4 476 l 1,4,-1
 417 476 l 1,5,-1
 417 422 l 1,6,-1
 243 422 l 1,7,-1
 243 0 l 1,0,-1
EndSplineSet
KernsSLIFO: 484 -30 0 0 482 -30 0 0 480 -30 0 0 478 -30 0 0 473 -35 0 0 469 -30 0 0 467 -30 0 0 465 -30 0 0 464 -40 0 0 461 -30 0 0 459 -30 0 0 457 -30 0 0 455 -30 0 0 453 -30 0 0 451 -30 0 0 449 -30 0 0 447 -30 0 0 445 -30 0 0 443 -30 0 0 441 -30 0 0 439 -30 0 0 437 -30 0 0 435 -30 0 0 433 -30 0 0 431 -30 0 0 429 -30 0 0 427 -30 0 0 425 -30 0 0 423 -30 0 0 421 -30 0 0 419 -30 0 0 417 -30 0 0 411 -30 0 0 409 -30 0 0 407 -30 0 0 405 -30 0 0 403 -30 0 0 401 -30 0 0 399 -30 0 0 397 -30 0 0 395 -30 0 0 394 -40 0 0 393 -30 0 0 392 -40 0 0 391 -30 0 0 390 -40 0 0 389 -30 0 0 388 -40 0 0 387 -30 0 0 386 -40 0 0 385 -30 0 0 384 -40 0 0 383 -30 0 0 382 -40 0 0 381 -30 0 0 380 -40 0 0 379 -30 0 0 378 -40 0 0 377 -30 0 0 376 -40 0 0 375 -30 0 0 374 -40 0 0 373 -30 0 0 372 -40 0 0 200 -30 0 0 198 -30 0 0 193 -30 0 0 191 -30 0 0 190 -30 0 0 189 -30 0 0 188 -30 0 0 187 -30 0 0 186 -30 0 0 184 -30 0 0 183 -30 0 0 182 -30 0 0 181 -30 0 0 180 -30 0 0 179 -30 0 0 178 -30 0 0 173 -30 0 0 172 -30 0 0 171 -30 0 0 170 -30 0 0 169 -30 0 0 168 -30 0 0 167 -30 0 0 166 -30 0 0 165 -30 0 0 164 -30 0 0 163 -30 0 0 162 -30 0 0 135 -40 0 0 134 -40 0 0 133 -40 0 0 132 -40 0 0 131 -40 0 0 130 -40 0 0 91 -30 0 0 90 -30 0 0 89 -30 0 0 88 -30 0 0 87 -30 0 0 86 -30 0 0 84 -30 0 0 83 -30 0 0 82 -30 0 0 81 -30 0 0 80 -30 0 0 79 -30 0 0 78 -30 0 0 72 -35 0 0 70 -30 0 0 68 -30 0 0 66 -30 0 0 43 -40 0 0 34 -40 0 0
EndChar
StartChar: U
Encoding: 85 85 54
Width: 482
Flags: W
Fore
432 203 m 2,0,1
 432 -9 432 -9 241 -9 c 256,2,3
 50 -9 50 -9 50 203 c 2,4,-1
 50 476 l 1,5,-1
 114 476 l 1,6,-1
 114 203 l 2,7,8
 114 45 114 45 241 45 c 256,9,10
 368 45 368 45 368 203 c 2,11,-1
 368 476 l 1,12,-1
 432 476 l 1,13,-1
 432 203 l 2,0,1
EndSplineSet
EndChar
StartChar: V
Encoding: 86 86 55
Width: 422
Flags: W
Fore
240 0 m 1,0,-1
 182 0 l 1,1,-1
 -1 476 l 1,2,-1
 67 476 l 1,3,-1
 211 86 l 1,4,-1
 355 476 l 1,5,-1
 423 476 l 1,6,-1
 240 0 l 1,0,-1
EndSplineSet
KernsSLIFO: 482 -30 0 0 478 -20 0 0 473 -30 0 0 469 -30 0 0 467 -30 0 0 464 -50 0 0 439 -30 0 0 437 -30 0 0 435 -30 0 0 433 -30 0 0 431 -30 0 0 429 -30 0 0 427 -30 0 0 425 -30 0 0 423 -30 0 0 421 -30 0 0 419 -30 0 0 417 -30 0 0 411 -30 0 0 409 -30 0 0 407 -30 0 0 405 -30 0 0 403 -30 0 0 401 -30 0 0 399 -30 0 0 397 -30 0 0 394 -50 0 0 392 -50 0 0 390 -50 0 0 388 -50 0 0 386 -50 0 0 384 -50 0 0 382 -50 0 0 380 -50 0 0 378 -50 0 0 376 -50 0 0 374 -50 0 0 372 -50 0 0 200 -20 0 0 198 -30 0 0 186 -30 0 0 184 -30 0 0 183 -30 0 0 182 -30 0 0 181 -30 0 0 180 -30 0 0 178 -30 0 0 173 -30 0 0 172 -30 0 0 171 -30 0 0 170 -30 0 0 169 -30 0 0 135 -50 0 0 134 -50 0 0 133 -50 0 0 132 -50 0 0 131 -50 0 0 130 -50 0 0 84 -20 0 0 82 -30 0 0 80 -30 0 0 72 -30 0 0 70 -30 0 0 68 -30 0 0 43 -40 0 0 34 -50 0 0
EndChar
StartChar: W
Encoding: 87 87 56
Width: 612
Flags: W
Fore
484 0 m 1,0,-1
 426 0 l 1,1,-1
 306 389 l 1,2,-1
 186 0 l 1,3,-1
 128 0 l 1,4,-1
 -4 476 l 1,5,-1
 65 476 l 1,6,-1
 158 96 l 1,7,-1
 276 476 l 1,8,-1
 336 476 l 1,9,-1
 454 96 l 1,10,-1
 547 476 l 1,11,-1
 616 476 l 1,12,-1
 484 0 l 1,0,-1
EndSplineSet
KernsSLIFO: 482 -20 0 0 478 -20 0 0 473 -20 0 0 469 -20 0 0 467 -20 0 0 464 -45 0 0 439 -20 0 0 437 -20 0 0 435 -20 0 0 433 -20 0 0 431 -20 0 0 429 -20 0 0 427 -20 0 0 425 -20 0 0 423 -20 0 0 421 -20 0 0 419 -20 0 0 417 -20 0 0 411 -20 0 0 409 -20 0 0 407 -20 0 0 405 -20 0 0 403 -20 0 0 401 -20 0 0 399 -20 0 0 397 -20 0 0 394 -45 0 0 392 -45 0 0 390 -45 0 0 388 -45 0 0 386 -45 0 0 384 -45 0 0 382 -45 0 0 380 -45 0 0 378 -45 0 0 376 -45 0 0 374 -45 0 0 372 -45 0 0 200 -20 0 0 198 -20 0 0 186 -20 0 0 184 -20 0 0 183 -20 0 0 182 -20 0 0 181 -20 0 0 180 -20 0 0 178 -20 0 0 173 -20 0 0 172 -20 0 0 171 -20 0 0 170 -20 0 0 169 -20 0 0 135 -45 0 0 134 -45 0 0 133 -45 0 0 132 -45 0 0 131 -45 0 0 130 -45 0 0 84 -20 0 0 82 -20 0 0 80 -20 0 0 72 -20 0 0 70 -20 0 0 68 -20 0 0 34 -45 0 0
EndChar
StartChar: X
Encoding: 88 88 57
Width: 426
Flags: W
Fore
428 0 m 1,0,-1
 353 0 l 1,1,-1
 215 193 l 1,2,-1
 75 0 l 1,3,-1
 -1 0 l 1,4,-1
 176 244 l 1,5,-1
 6 476 l 1,6,-1
 83 476 l 1,7,-1
 215 290 l 1,8,-1
 344 476 l 1,9,-1
 422 476 l 1,10,-1
 252 244 l 1,11,-1
 428 0 l 1,0,-1
EndSplineSet
EndChar
StartChar: Y
Encoding: 89 89 58
Width: 396
Flags: W
Fore
230 0 m 1,0,-1
 168 0 l 1,1,-1
 168 208 l 1,2,-1
 -6 476 l 1,3,-1
 67 476 l 1,4,-1
 199 262 l 1,5,-1
 330 476 l 1,6,-1
 402 476 l 1,7,-1
 230 209 l 1,8,-1
 230 0 l 1,0,-1
EndSplineSet
KernsSLIFO: 484 -20 0 0 482 -25 0 0 480 -20 0 0 478 -25 0 0 473 -25 0 0 469 -25 0 0 467 -25 0 0 465 -20 0 0 464 -40 0 0 453 -20 0 0 451 -20 0 0 449 -20 0 0 447 -20 0 0 445 -20 0 0 443 -20 0 0 441 -20 0 0 439 -25 0 0 437 -25 0 0 435 -25 0 0 433 -25 0 0 431 -25 0 0 429 -25 0 0 427 -25 0 0 425 -25 0 0 423 -25 0 0 421 -25 0 0 419 -25 0 0 417 -25 0 0 411 -25 0 0 409 -25 0 0 407 -25 0 0 405 -25 0 0 403 -25 0 0 401 -25 0 0 399 -25 0 0 397 -25 0 0 395 -20 0 0 394 -40 0 0 393 -20 0 0 392 -40 0 0 391 -20 0 0 390 -40 0 0 389 -20 0 0 388 -40 0 0 387 -20 0 0 386 -40 0 0 385 -20 0 0 384 -40 0 0 383 -20 0 0 382 -40 0 0 381 -20 0 0 380 -40 0 0 379 -20 0 0 378 -40 0 0 377 -20 0 0 376 -40 0 0 375 -20 0 0 374 -40 0 0 373 -20 0 0 372 -40 0 0 200 -25 0 0 198 -25 0 0 190 -20 0 0 189 -20 0 0 188 -20 0 0 187 -20 0 0 186 -25 0 0 184 -25 0 0 183 -25 0 0 182 -25 0 0 181 -25 0 0 180 -25 0 0 179 -20 0 0 178 -25 0 0 173 -25 0 0 172 -25 0 0 171 -25 0 0 170 -25 0 0 169 -25 0 0 168 -20 0 0 167 -20 0 0 166 -20 0 0 165 -20 0 0 164 -20 0 0 163 -20 0 0 162 -20 0 0 135 -40 0 0 134 -40 0 0 133 -40 0 0 132 -40 0 0 131 -40 0 0 130 -40 0 0 86 -20 0 0 84 -25 0 0 83 -20 0 0 82 -25 0 0 81 -20 0 0 80 -25 0 0 79 -20 0 0 78 -20 0 0 72 -25 0 0 70 -25 0 0 68 -25 0 0 66 -20 0 0 34 -40 0 0
EndChar
StartChar: Z
Encoding: 90 90 59
Width: 451
Flags: W
Fore
426 0 m 1,0,-1
 27 0 l 1,1,-1
 27 40 l 1,2,-1
 336 422 l 1,3,-1
 43 422 l 1,4,-1
 54 476 l 1,5,-1
 423 476 l 1,6,-1
 423 435 l 1,7,-1
 114 54 l 1,8,-1
 438 54 l 1,9,-1
 426 0 l 1,0,-1
EndSplineSet
EndChar
StartChar: bracketleft
Encoding: 91 91 60
Width: 234
Flags: W
Fore
204 -77 m 1,0,-1
 46 -77 l 1,1,-1
 46 528 l 1,2,-1
 204 528 l 1,3,-1
 204 476 l 1,4,-1
 105 476 l 1,5,-1
 105 -26 l 1,6,-1
 204 -26 l 1,7,-1
 204 -77 l 1,0,-1
EndSplineSet
EndChar
StartChar: backslash
Encoding: 92 92 61
Width: 268
Flags: W
Fore
302 -27 m 1,0,-1
 238 -27 l 1,1,-1
 -22 483 l 1,2,-1
 43 483 l 1,3,-1
 302 -27 l 1,0,-1
EndSplineSet
EndChar
StartChar: bracketright
Encoding: 93 93 62
Width: 234
Flags: W
Fore
188 -77 m 1,0,-1
 30 -77 l 1,1,-1
 30 -26 l 1,2,-1
 129 -26 l 1,3,-1
 129 476 l 1,4,-1
 30 476 l 1,5,-1
 30 528 l 1,6,-1
 188 528 l 1,7,-1
 188 -77 l 1,0,-1
EndSplineSet
EndChar
StartChar: asciicircum
Encoding: 94 94 63
Width: 418
Flags: W
Fore
394 152 m 1,0,-1
 329 152 l 1,1,-1
 213 405 l 1,2,-1
 97 152 l 1,3,-1
 32 152 l 1,4,-1
 188 480 l 1,5,-1
 239 480 l 1,6,-1
 394 152 l 1,0,-1
EndSplineSet
EndChar
StartChar: underscore
Encoding: 95 95 64
Width: 376
Flags: W
Fore
376 -175 m 1,0,-1
 0 -175 l 1,1,-1
 0 -122 l 1,2,-1
 376 -122 l 1,3,-1
 376 -175 l 1,0,-1
EndSplineSet
EndChar
StartChar: grave
Encoding: 96 96 65
Width: 210
Flags: W
Fore
166 375 m 1,0,-1
 118 375 l 1,1,-1
 34 472 l 1,2,-1
 91 490 l 1,3,-1
 166 375 l 1,0,-1
EndSplineSet
EndChar
StartChar: a
Encoding: 97 97 66
Width: 367
Flags: W
Fore
330 3 m 1,0,-1
 271 -9 l 1,1,-1
 261 35 l 1,2,3
 210 -9 210 -9 146 -9 c 0,4,5
 95 -9 95 -9 61 18.5 c 128,-1,6
 27 46 27 46 26 93 c 0,7,8
 26 220 26 220 253 223 c 1,9,10
 243 298 243 298 171 298 c 0,11,12
 117 298 117 298 52 273 c 1,13,-1
 45 330 l 1,14,15
 113 350 113 350 174 350 c 0,16,17
 316 350 316 350 316 204 c 2,18,-1
 316 91 l 2,19,20
 316 53 316 53 330 3 c 1,0,-1
253 108 m 2,21,-1
 253 168 l 1,22,23
 90 165 90 165 90 99 c 0,24,25
 90 46 90 46 149 46 c 0,26,27
 182 46 182 46 215 62 c 0,28,29
 253 81 253 81 253 108 c 2,21,-1
EndSplineSet
Substitution: 0 65534 'L055' uni0E38
Substitution: 0 65534 'L055' uni0E38
EndChar
StartChar: b
Encoding: 98 98 67
Width: 435
Flags: W
Fore
409 177 m 0,0,1
 409 96 409 96 358.5 43.5 c 128,-1,2
 308 -9 308 -9 234 -9 c 256,3,4
 160 -9 160 -9 113 37 c 1,5,6
 113 11 113 11 110 0 c 1,7,-1
 50 0 l 1,8,9
 54 49 54 49 54 91 c 2,10,-1
 54 504 l 1,11,-1
 117 504 l 1,12,-1
 117 306 l 1,13,14
 164 353 164 353 239 353 c 0,15,16
 312 353 312 353 360.5 302.5 c 128,-1,17
 409 252 409 252 409 177 c 0,0,1
347 177 m 0,18,19
 347 231 347 231 316 266 c 128,-1,20
 285 301 285 301 233 301 c 0,21,22
 191 301 191 301 154 273 c 128,-1,23
 117 245 117 245 117 207 c 2,24,-1
 117 129 l 2,25,26
 117 91 117 91 148 68.5 c 128,-1,27
 179 46 179 46 229 46 c 0,28,29
 285 46 285 46 316 81 c 128,-1,30
 347 116 347 116 347 177 c 0,18,19
EndSplineSet
Substitution: 0 65534 'L055' uni0E39
Substitution: 0 65534 'L055' uni0E39
EndChar
StartChar: c
Encoding: 99 99 68
Width: 347
Flags: W
Fore
322 21 m 1,0,1
 274 -9 274 -9 205 -9 c 0,2,3
 124 -9 124 -9 75 41.5 c 128,-1,4
 26 92 26 92 26 172 c 0,5,6
 26 253 26 253 75 303 c 128,-1,7
 124 353 124 353 205 353 c 0,8,9
 273 353 273 353 322 323 c 1,10,-1
 300 271 l 1,11,12
 253 300 253 300 203 300 c 0,13,14
 152 300 152 300 121 264.5 c 128,-1,15
 90 229 90 229 90 172 c 0,16,17
 90 114 90 114 121 79 c 128,-1,18
 152 44 152 44 203 44 c 0,19,20
 253 44 253 44 300 73 c 1,21,-1
 322 21 l 1,0,1
EndSplineSet
Substitution: 0 65534 'L055' uni0E3A
Substitution: 0 65534 'L055' uni0E3A
EndChar
StartChar: d
Encoding: 100 100 69
Width: 435
Flags: W
Fore
385 0 m 1,0,-1
 325 0 l 1,1,2
 322 11 322 11 322 37 c 1,3,4
 275 -9 275 -9 201 -9 c 256,5,6
 127 -9 127 -9 76.5 43.5 c 128,-1,7
 26 96 26 96 26 177 c 0,8,9
 26 252 26 252 74.5 302.5 c 128,-1,10
 123 353 123 353 196 353 c 0,11,12
 271 353 271 353 318 306 c 1,13,-1
 318 504 l 1,14,-1
 381 504 l 1,15,-1
 381 91 l 2,16,17
 381 49 381 49 385 0 c 1,0,-1
318 129 m 2,18,-1
 318 207 l 2,19,20
 318 245 318 245 281 273 c 128,-1,21
 244 301 244 301 202 301 c 0,22,23
 150 301 150 301 119 266 c 128,-1,24
 88 231 88 231 88 177 c 0,25,26
 88 116 88 116 119 81 c 128,-1,27
 150 46 150 46 206 46 c 0,28,29
 256 46 256 46 287 68.5 c 128,-1,30
 318 91 318 91 318 129 c 2,18,-1
EndSplineSet
EndChar
StartChar: e
Encoding: 101 101 70
Width: 391
Flags: W
Fore
351 18 m 1,0,1
 278 -9 278 -9 212 -9 c 0,2,3
 131 -9 131 -9 78.5 39.5 c 128,-1,4
 26 88 26 88 26 165 c 0,5,6
 26 250 26 250 78 303 c 0,7,8
 129 353 129 353 208 353 c 0,9,10
 362 353 362 353 365 160 c 1,11,-1
 88 160 l 1,12,13
 92 106 92 106 126.5 76.5 c 128,-1,14
 161 47 161 47 216 47 c 0,15,16
 272 47 272 47 344 73 c 1,17,-1
 351 18 l 1,0,1
303 213 m 1,18,19
 298 252 298 252 271 276.5 c 128,-1,20
 244 301 244 301 202 301 c 0,21,22
 162 301 162 301 130.5 276.5 c 128,-1,23
 99 252 99 252 92 213 c 1,24,-1
 303 213 l 1,18,19
EndSplineSet
EndChar
StartChar: f
Encoding: 102 102 71
Width: 254
Flags: W
Fore
137 0 m 1,0,-1
 74 0 l 1,1,-1
 74 288 l 1,2,-1
 17 288 l 1,3,-1
 17 340 l 1,4,-1
 75 340 l 1,5,6
 75 511 75 511 208 511 c 0,7,8
 250 511 250 511 279 489 c 1,9,-1
 261 442 l 1,10,11
 226 457 226 457 206 457 c 0,12,13
 137 457 137 457 137 340 c 1,14,-1
 234 340 l 1,15,-1
 234 288 l 1,16,-1
 137 288 l 1,17,-1
 137 0 l 1,0,-1
EndSplineSet
EndChar
StartChar: g
Encoding: 103 103 72
Width: 332
Flags: W
Fore
292 -45 m 0,0,1
 292 -92 292 -92 258 -121 c 128,-1,2
 224 -150 224 -150 159 -150 c 0,3,4
 105 -150 105 -150 48 -116 c 1,5,-1
 70 -66 l 1,6,7
 123 -97 123 -97 163 -97 c 0,8,9
 194 -97 194 -97 214.5 -82.5 c 128,-1,10
 235 -68 235 -68 235 -48 c 0,11,12
 235 -18 235 -18 179 5 c 0,13,14
 137 22 137 22 98 43 c 128,-1,15
 59 64 59 64 59 98 c 0,16,17
 59 114 59 114 68 139 c 1,18,19
 32 178 32 178 32 222 c 0,20,21
 32 277 32 277 69 312 c 128,-1,22
 106 347 106 347 158 347 c 2,23,-1
 302 347 l 1,24,-1
 302 304 l 1,25,-1
 252 304 l 1,26,27
 270 297 270 297 281 271 c 0,28,29
 290 250 290 250 290 229 c 0,30,31
 290 170 290 170 257.5 135.5 c 128,-1,32
 225 101 225 101 164 101 c 0,33,34
 142 101 142 101 121 108 c 1,35,36
 116 103 116 103 116 95 c 0,37,38
 116 80 116 80 188 60 c 0,39,40
 292 31 292 31 292 -45 c 0,0,1
237 224 m 256,41,42
 237 254 237 254 215.5 275 c 128,-1,43
 194 296 194 296 164 296 c 256,44,45
 134 296 134 296 112.5 275 c 128,-1,46
 91 254 91 254 91 224 c 256,47,48
 91 194 91 194 112.5 173.5 c 128,-1,49
 134 153 134 153 164 153 c 0,50,51
 200 153 200 153 218.5 173.5 c 128,-1,52
 237 194 237 194 237 224 c 256,41,42
EndSplineSet
EndChar
StartChar: h
Encoding: 104 104 73
Width: 423
Flags: W
Fore
373 0 m 1,0,-1
 310 0 l 1,1,-1
 310 191 l 2,2,3
 310 236 310 236 285.5 265.5 c 128,-1,4
 261 295 261 295 219 295 c 256,5,6
 177 295 177 295 145 265 c 128,-1,7
 113 235 113 235 113 199 c 2,8,-1
 113 0 l 1,9,-1
 50 0 l 1,10,-1
 50 504 l 1,11,-1
 113 504 l 1,12,-1
 113 303 l 1,13,14
 159 349 159 349 228 349 c 0,15,16
 296 349 296 349 334.5 306.5 c 128,-1,17
 373 264 373 264 373 192 c 2,18,-1
 373 0 l 1,0,-1
EndSplineSet
EndChar
StartChar: i
Encoding: 105 105 74
Width: 163
Flags: W
Fore
113 0 m 1,0,-1
 50 0 l 1,1,-1
 50 340 l 1,2,-1
 113 340 l 1,3,-1
 113 0 l 1,0,-1
128 440 m 256,4,5
 128 420 128 420 114 406 c 128,-1,6
 100 392 100 392 80 392 c 256,7,8
 60 392 60 392 46 406 c 128,-1,9
 32 420 32 420 32 440 c 256,10,11
 32 460 32 460 46 474 c 128,-1,12
 60 488 60 488 80 488 c 256,13,14
 100 488 100 488 114 474 c 128,-1,15
 128 460 128 460 128 440 c 256,4,5
EndSplineSet
EndChar
StartChar: j
Encoding: 106 106 75
Width: 171
Flags: W
Fore
121 18 m 2,0,1
 121 -137 121 -137 -41 -141 c 1,2,-1
 -48 -90 l 1,3,4
 20 -85 20 -85 39 -60 c 128,-1,5
 58 -35 58 -35 58 44 c 2,6,-1
 58 340 l 1,7,-1
 121 340 l 1,8,-1
 121 18 l 2,0,1
137 440 m 256,9,10
 137 420 137 420 123 406 c 128,-1,11
 109 392 109 392 89 392 c 256,12,13
 69 392 69 392 55 406 c 128,-1,14
 41 420 41 420 41 440 c 256,15,16
 41 460 41 460 55 474 c 128,-1,17
 69 488 69 488 89 488 c 256,18,19
 109 488 109 488 123 474 c 128,-1,20
 137 460 137 460 137 440 c 256,9,10
EndSplineSet
EndChar
StartChar: k
Encoding: 107 107 76
Width: 340
Flags: W
Fore
358 6 m 1,0,-1
 293 -10 l 1,1,-1
 137 164 l 1,2,-1
 113 144 l 1,3,-1
 113 0 l 1,4,-1
 50 0 l 1,5,-1
 50 504 l 1,6,-1
 113 504 l 1,7,-1
 113 217 l 1,8,-1
 265 347 l 1,9,-1
 334 335 l 1,10,-1
 181 200 l 1,11,-1
 358 6 l 1,0,-1
EndSplineSet
EndChar
StartChar: l
Encoding: 108 108 77
Width: 213
Flags: W
Fore
199 -8 m 1,0,1
 50 0 50 0 50 175 c 2,2,-1
 50 504 l 1,3,-1
 113 504 l 1,4,-1
 113 189 l 2,5,6
 113 112 113 112 137 80 c 0,7,8
 158 53 158 53 206 49 c 1,9,-1
 199 -8 l 1,0,1
EndSplineSet
EndChar
StartChar: m
Encoding: 109 109 78
Width: 636
Flags: W
Fore
586 0 m 1,0,-1
 523 0 l 1,1,-1
 523 188 l 2,2,3
 523 234 523 234 502 264 c 0,4,5
 478 297 478 297 439 297 c 0,6,7
 406 297 406 297 377.5 271 c 128,-1,8
 349 245 349 245 349 215 c 2,9,-1
 349 0 l 1,10,-1
 286 0 l 1,11,-1
 286 205 l 2,12,13
 286 297 286 297 209 297 c 0,14,15
 175 297 175 297 144 266.5 c 128,-1,16
 113 236 113 236 113 203 c 2,17,-1
 113 0 l 1,18,-1
 50 0 l 1,19,-1
 50 250 l 2,20,21
 50 312 50 312 42 341 c 1,22,-1
 101 341 l 1,23,24
 108 324 108 324 108 302 c 1,25,26
 122 322 122 322 154 336 c 128,-1,27
 186 350 186 350 217 350 c 0,28,29
 283 350 283 350 323 294 c 1,30,31
 376 350 376 350 451 350 c 0,32,33
 510 350 510 350 548 305.5 c 128,-1,34
 586 261 586 261 586 189 c 2,35,-1
 586 0 l 1,0,-1
EndSplineSet
EndChar
StartChar: n
Encoding: 110 110 79
Width: 423
Flags: W
Fore
373 0 m 1,0,-1
 310 0 l 1,1,-1
 310 193 l 2,2,3
 310 297 310 297 215 297 c 0,4,5
 180 297 180 297 146.5 265.5 c 128,-1,6
 113 234 113 234 113 203 c 2,7,-1
 113 0 l 1,8,-1
 50 0 l 1,9,-1
 50 250 l 2,10,11
 50 312 50 312 42 341 c 1,12,-1
 101 341 l 1,13,14
 108 324 108 324 108 300 c 1,15,16
 156 350 156 350 224 350 c 256,17,18
 292 350 292 350 332.5 308 c 128,-1,19
 373 266 373 266 373 193 c 2,20,-1
 373 0 l 1,0,-1
EndSplineSet
EndChar
StartChar: o
Encoding: 111 111 80
Width: 412
Flags: W
Fore
386 172 m 256,0,1
 386 96 386 96 335 44 c 128,-1,2
 284 -8 284 -8 206 -8 c 256,3,4
 128 -8 128 -8 77 44 c 128,-1,5
 26 96 26 96 26 172 c 256,6,7
 26 248 26 248 77 300.5 c 128,-1,8
 128 353 128 353 206 353 c 256,9,10
 284 353 284 353 335 300.5 c 128,-1,11
 386 248 386 248 386 172 c 256,0,1
324 172 m 256,12,13
 324 226 324 226 291 262.5 c 128,-1,14
 258 299 258 299 206 299 c 256,15,16
 154 299 154 299 121 262.5 c 128,-1,17
 88 226 88 226 88 172 c 256,18,19
 88 118 88 118 121 81.5 c 128,-1,20
 154 45 154 45 206 45 c 256,21,22
 258 45 258 45 291 81.5 c 128,-1,23
 324 118 324 118 324 172 c 256,12,13
EndSplineSet
EndChar
StartChar: p
Encoding: 112 112 81
Width: 431
Flags: W
Fore
405 179 m 0,0,1
 405 96 405 96 354 43.5 c 128,-1,2
 303 -9 303 -9 227 -9 c 0,3,4
 157 -9 157 -9 113 32 c 1,5,-1
 113 -143 l 1,6,-1
 50 -143 l 1,7,-1
 50 230 l 2,8,9
 50 313 50 313 46 346 c 1,10,-1
 108 346 l 1,11,-1
 115 309 l 1,12,13
 168 353 168 353 235 353 c 0,14,15
 309 353 309 353 357 303 c 128,-1,16
 405 253 405 253 405 179 c 0,0,1
344 178 m 0,17,18
 344 230 344 230 311.5 265.5 c 128,-1,19
 279 301 279 301 229 301 c 0,20,21
 189 301 189 301 151 269 c 128,-1,22
 113 237 113 237 113 198 c 2,23,-1
 113 142 l 2,24,25
 113 103 113 103 145.5 74.5 c 128,-1,26
 178 46 178 46 225 46 c 0,27,28
 281 46 281 46 312.5 81.5 c 128,-1,29
 344 117 344 117 344 178 c 0,17,18
EndSplineSet
EndChar
StartChar: q
Encoding: 113 113 82
Width: 431
Flags: W
Fore
381 -143 m 1,0,-1
 318 -143 l 1,1,-1
 318 32 l 1,2,3
 274 -9 274 -9 204 -9 c 0,4,5
 128 -9 128 -9 77 43.5 c 128,-1,6
 26 96 26 96 26 179 c 0,7,8
 26 253 26 253 74 303 c 128,-1,9
 122 353 122 353 196 353 c 0,10,11
 263 353 263 353 316 309 c 1,12,-1
 323 346 l 1,13,-1
 385 346 l 1,14,15
 381 313 381 313 381 230 c 2,16,-1
 381 -143 l 1,0,-1
318 142 m 2,17,-1
 318 198 l 2,18,19
 318 237 318 237 280 269 c 128,-1,20
 242 301 242 301 202 301 c 0,21,22
 152 301 152 301 119.5 265.5 c 128,-1,23
 87 230 87 230 87 178 c 0,24,25
 87 117 87 117 118.5 81.5 c 128,-1,26
 150 46 150 46 206 46 c 0,27,28
 253 46 253 46 285.5 74.5 c 128,-1,29
 318 103 318 103 318 142 c 2,17,-1
EndSplineSet
EndChar
StartChar: r
Encoding: 114 114 83
Width: 246
Flags: W
Fore
113 0 m 1,0,-1
 50 0 l 1,1,-1
 50 225 l 2,2,3
 50 305 50 305 38 345 c 1,4,-1
 94 345 l 1,5,6
 105 327 105 327 105 297 c 1,7,8
 114 316 114 316 142.5 333 c 128,-1,9
 171 350 171 350 199 350 c 0,10,11
 219 350 219 350 231 347 c 1,12,-1
 231 293 l 1,13,14
 223 295 223 295 208 295 c 0,15,16
 113 295 113 295 113 181 c 2,17,-1
 113 0 l 1,0,-1
EndSplineSet
EndChar
StartChar: s
Encoding: 115 115 84
Width: 296
Flags: W
Fore
271 97 m 0,0,1
 271 50 271 50 234.5 20.5 c 128,-1,2
 198 -9 198 -9 136 -9 c 0,3,4
 85 -9 85 -9 26 24 c 1,5,-1
 51 74 l 1,6,7
 92 46 92 46 139 46 c 0,8,9
 209 46 209 46 209 94 c 0,10,11
 209 131 209 131 141 152 c 0,12,13
 41 183 41 183 41 247 c 0,14,15
 41 290 41 290 74.5 319.5 c 128,-1,16
 108 349 108 349 165 349 c 0,17,18
 223 349 223 349 263 320 c 1,19,-1
 240 274 l 1,20,21
 205 300 205 300 161 300 c 0,22,23
 135 300 135 300 117.5 286.5 c 128,-1,24
 100 273 100 273 100 252 c 0,25,26
 100 226 100 226 173 201 c 0,27,28
 271 167 271 167 271 97 c 0,0,1
EndSplineSet
EndChar
StartChar: t
Encoding: 116 116 85
Width: 258
Flags: W
Fore
242 5 m 1,0,1
 209 -9 209 -9 176 -9 c 0,2,3
 130 -9 130 -9 103.5 22 c 128,-1,4
 77 53 77 53 77 107 c 2,5,-1
 77 288 l 1,6,-1
 9 288 l 1,7,-1
 9 340 l 1,8,-1
 77 340 l 1,9,-1
 77 433 l 1,10,-1
 140 460 l 1,11,-1
 140 340 l 1,12,-1
 249 340 l 1,13,-1
 249 288 l 1,14,-1
 140 288 l 1,15,-1
 140 108 l 2,16,17
 140 47 140 47 179 47 c 0,18,19
 204 47 204 47 235 58 c 1,20,-1
 242 5 l 1,0,1
EndSplineSet
EndChar
StartChar: u
Encoding: 117 117 86
Width: 418
Flags: W
Fore
389 4 m 1,0,-1
 328 -8 l 1,1,2
 318 16 318 16 310 50 c 1,3,4
 250 -9 250 -9 191 -9 c 0,5,6
 50 -9 50 -9 50 154 c 2,7,-1
 50 340 l 1,8,-1
 113 340 l 1,9,-1
 113 160 l 2,10,11
 113 47 113 47 199 47 c 0,12,13
 235 47 235 47 270 74.5 c 128,-1,14
 305 102 305 102 305 139 c 2,15,-1
 305 340 l 1,16,-1
 368 340 l 1,17,-1
 368 91 l 2,18,19
 368 57 368 57 389 4 c 1,0,-1
EndSplineSet
EndChar
StartChar: v
Encoding: 118 118 87
Width: 358
Flags: W
Fore
204 0 m 1,0,-1
 154 0 l 1,1,-1
 -4 340 l 1,2,-1
 62 340 l 1,3,-1
 179 78 l 1,4,-1
 296 340 l 1,5,-1
 362 340 l 1,6,-1
 204 0 l 1,0,-1
EndSplineSet
EndChar
StartChar: w
Encoding: 119 119 88
Width: 480
Flags: W
Fore
399 0 m 1,0,-1
 346 0 l 1,1,-1
 240 273 l 1,2,-1
 134 0 l 1,3,-1
 81 0 l 1,4,-1
 -4 340 l 1,5,-1
 61 340 l 1,6,-1
 112 83 l 1,7,-1
 214 340 l 1,8,-1
 266 340 l 1,9,-1
 368 83 l 1,10,-1
 419 340 l 1,11,-1
 484 340 l 1,12,-1
 399 0 l 1,0,-1
EndSplineSet
EndChar
StartChar: x
Encoding: 120 120 89
Width: 349
Flags: W
Fore
360 0 m 1,0,-1
 283 0 l 1,1,-1
 174 131 l 1,2,-1
 66 0 l 1,3,-1
 -11 0 l 1,4,-1
 137 174 l 1,5,-1
 -2 340 l 1,6,-1
 74 340 l 1,7,-1
 175 220 l 1,8,-1
 275 340 l 1,9,-1
 351 340 l 1,10,-1
 212 174 l 1,11,-1
 360 0 l 1,0,-1
EndSplineSet
EndChar
StartChar: y
Encoding: 121 121 90
Width: 361
Flags: W
Fore
208 7 m 2,0,1
 145 -126 145 -126 32 -151 c 1,2,-1
 16 -99 l 1,3,4
 105 -79 105 -79 147 25 c 1,5,-1
 -4 340 l 1,6,-1
 65 340 l 1,7,-1
 183 88 l 1,8,-1
 295 340 l 1,9,-1
 364 340 l 1,10,-1
 208 7 l 2,0,1
EndSplineSet
EndChar
StartChar: z
Encoding: 122 122 91
Width: 358
Flags: W
Fore
330 0 m 1,0,-1
 20 0 l 1,1,-1
 20 38 l 1,2,-1
 246 287 l 1,3,-1
 30 287 l 1,4,-1
 42 340 l 1,5,-1
 332 340 l 1,6,-1
 332 299 l 1,7,-1
 107 53 l 1,8,-1
 339 53 l 1,9,-1
 330 0 l 1,0,-1
EndSplineSet
EndChar
StartChar: braceleft
Encoding: 123 123 92
Width: 255
Flags: W
Fore
221 -88 m 1,0,-1
 198 -88 l 2,1,2
 78 -88 78 -88 78 14 c 0,3,4
 78 34 78 34 85 78.5 c 128,-1,5
 92 123 92 123 92 141 c 0,6,7
 92 177 92 177 30 179 c 1,8,-1
 30 231 l 1,9,10
 92 233 92 233 92 268 c 0,11,12
 92 289 92 289 85 333.5 c 128,-1,13
 78 378 78 378 78 396 c 0,14,15
 78 498 78 498 198 498 c 2,16,-1
 221 498 l 1,17,-1
 221 446 l 1,18,-1
 195 446 l 2,19,20
 140 446 140 446 137 394 c 1,21,22
 151 309 151 309 151 271 c 0,23,24
 151 249 151 249 138.5 229.5 c 128,-1,25
 126 210 126 210 109 205 c 1,26,27
 151 188 151 188 151 138 c 0,28,29
 151 101 151 101 137 16 c 1,30,31
 139 -37 139 -37 195 -37 c 2,32,-1
 221 -37 l 1,33,-1
 221 -88 l 1,0,-1
EndSplineSet
EndChar
StartChar: bar
Encoding: 124 124 93
Width: 177
Flags: W
Fore
117 -166 m 1,0,-1
 60 -166 l 1,1,-1
 60 526 l 1,2,-1
 117 526 l 1,3,-1
 117 -166 l 1,0,-1
EndSplineSet
EndChar
StartChar: braceright
Encoding: 125 125 94
Width: 255
Flags: W
Fore
228 179 m 1,0,1
 166 177 166 177 166 141 c 0,2,3
 166 123 166 123 173 78.5 c 128,-1,4
 180 34 180 34 180 14 c 0,5,6
 180 -88 180 -88 60 -88 c 2,7,-1
 37 -88 l 1,8,-1
 37 -37 l 1,9,-1
 63 -37 l 2,10,11
 121 -37 121 -37 121 12 c 0,12,13
 121 35 121 35 114 76.5 c 128,-1,14
 107 118 107 118 107 138 c 0,15,16
 107 188 107 188 149 205 c 1,17,18
 132 210 132 210 119.5 229.5 c 128,-1,19
 107 249 107 249 107 271 c 256,20,21
 107 293 107 293 114 335 c 128,-1,22
 121 377 121 377 121 398 c 0,23,24
 121 446 121 446 63 446 c 2,25,-1
 37 446 l 1,26,-1
 37 498 l 1,27,-1
 60 498 l 2,28,29
 180 498 180 498 180 396 c 0,30,31
 180 378 180 378 173 333.5 c 128,-1,32
 166 289 166 289 166 268 c 0,33,34
 166 233 166 233 228 231 c 1,35,-1
 228 179 l 1,0,1
EndSplineSet
EndChar
StartChar: asciitilde
Encoding: 126 126 95
Width: 422
Flags: W
Fore
408 243 m 2,0,1
 408 197 408 197 383 170.5 c 128,-1,2
 358 144 358 144 318 144 c 0,3,4
 294 144 294 144 212.5 175 c 128,-1,5
 131 206 131 206 114 206 c 0,6,7
 79 206 79 206 77 144 c 1,8,-1
 22 144 l 1,9,-1
 22 163 l 2,10,11
 22 207 22 207 48.5 233 c 128,-1,12
 75 259 75 259 114 259 c 0,13,14
 141 259 141 259 221 229.5 c 128,-1,15
 301 200 301 200 320 200 c 0,16,17
 351 200 351 200 354 259 c 1,18,-1
 408 259 l 1,19,-1
 408 243 l 2,0,1
EndSplineSet
EndChar
StartChar: uni0E33.alt1
Encoding: 65537 -1 96
Width: 336
Flags: W
Fore
-157 549 m 0,0,1
 -157 514 -157 514 -181.5 489.5 c 128,-1,2
 -206 465 -206 465 -241 465 c 0,3,4
 -277 465 -277 465 -301.5 489.5 c 128,-1,5
 -326 514 -326 514 -326 549 c 256,6,7
 -326 584 -326 584 -301 609 c 128,-1,8
 -276 634 -276 634 -241 634 c 256,9,10
 -206 634 -206 634 -181.5 609.5 c 128,-1,11
 -157 585 -157 585 -157 549 c 0,0,1
-201 549 m 256,12,13
 -201 566 -201 566 -212.5 578 c 128,-1,14
 -224 590 -224 590 -241 590 c 256,15,16
 -258 590 -258 590 -270 578 c 128,-1,17
 -282 566 -282 566 -282 549 c 256,18,19
 -282 532 -282 532 -270 520.5 c 128,-1,20
 -258 509 -258 509 -241 509 c 256,21,22
 -224 509 -224 509 -212.5 520.5 c 128,-1,23
 -201 532 -201 532 -201 549 c 256,12,13
285 0 m 1,24,-1
 223 0 l 1,25,-1
 223 291 l 2,26,27
 223 319 223 319 204 336.5 c 128,-1,28
 185 354 185 354 152 354 c 256,29,30
 119 354 119 354 98 332 c 128,-1,31
 77 310 77 310 76 276 c 1,32,-1
 16 276 l 1,33,34
 19 336 19 336 55.5 371.5 c 128,-1,35
 92 407 92 407 152 407 c 0,36,37
 208 407 208 407 246.5 378.5 c 128,-1,38
 285 350 285 350 285 292 c 2,39,-1
 285 0 l 1,24,-1
EndSplineSet
EndChar
StartChar: uni0E4E.alt1
Encoding: 65540 -1 99
Width: 0
Flags: W
Fore
-122 664 m 1,0,-1
 -131 639 l 1,1,2
 -148 644 -148 644 -168 644 c 0,3,4
 -214 644 -214 644 -214 613 c 0,5,6
 -214 580 -214 580 -164 574 c 1,7,-1
 -173 551 l 1,8,9
 -185 555 -185 555 -197 555 c 0,10,11
 -225 555 -225 555 -242.5 542.5 c 128,-1,12
 -260 530 -260 530 -260 515 c 0,13,14
 -260 488 -260 488 -215 488 c 0,15,16
 -202 488 -202 488 -183 496 c 1,17,-1
 -182 471 l 1,18,19
 -201 463 -201 463 -228 463 c 0,20,21
 -253 463 -253 463 -271 477.5 c 128,-1,22
 -289 492 -289 492 -289 516 c 0,23,24
 -289 541 -289 541 -269 558 c 128,-1,25
 -249 575 -249 575 -224 575 c 1,26,27
 -244 588 -244 588 -244 613 c 0,28,29
 -244 671 -244 671 -167 671 c 0,30,31
 -140 671 -140 671 -122 664 c 1,0,-1
EndSplineSet
EndChar
StartChar: exclamdown
Encoding: 161 161 100
Width: 168
Flags: W
Fore
120 -141 m 1,0,-1
 48 -141 l 1,1,-1
 55 196 l 1,2,-1
 111 196 l 1,3,-1
 120 -141 l 1,0,-1
132 296 m 256,4,5
 132 276 132 276 118 262 c 128,-1,6
 104 248 104 248 84 248 c 256,7,8
 64 248 64 248 50 262 c 128,-1,9
 36 276 36 276 36 296 c 256,10,11
 36 316 36 316 50 330 c 128,-1,12
 64 344 64 344 84 344 c 256,13,14
 104 344 104 344 118 330 c 128,-1,15
 132 316 132 316 132 296 c 256,4,5
EndSplineSet
EndChar
StartChar: cent
Encoding: 162 162 101
Width: 480
Flags: W
Fore
418 52 m 1,0,1
 365 23 365 23 285 21 c 1,2,-1
 285 -56 l 1,3,-1
 230 -56 l 1,4,-1
 230 24 l 1,5,6
 152 38 152 38 106.5 92.5 c 128,-1,7
 61 147 61 147 61 229 c 256,8,9
 61 311 61 311 106.5 365.5 c 128,-1,10
 152 420 152 420 230 434 c 1,11,-1
 230 514 l 1,12,-1
 285 514 l 1,13,-1
 285 437 l 1,14,15
 365 435 365 435 418 406 c 1,16,-1
 397 358 l 1,17,18
 372 369 372 369 345 375 c 128,-1,19
 318 381 318 381 289 381 c 0,20,21
 210 381 210 381 165.5 341 c 128,-1,22
 121 301 121 301 121 229 c 256,23,24
 121 157 121 157 165.5 117 c 128,-1,25
 210 77 210 77 289 77 c 0,26,27
 318 77 318 77 345 83 c 128,-1,28
 372 89 372 89 397 100 c 1,29,-1
 418 52 l 1,0,1
EndSplineSet
EndChar
StartChar: sterling
Encoding: 163 163 102
Width: 480
Flags: W
Fore
391 0 m 1,0,-1
 89 0 l 1,1,-1
 89 37 l 1,2,3
 171 88 171 88 171 161 c 0,4,5
 171 169 171 169 170 182 c 128,-1,6
 169 195 169 195 167 209 c 1,7,-1
 90 209 l 1,8,-1
 90 255 l 1,9,-1
 161 255 l 1,10,11
 159 276 159 276 157.5 293.5 c 128,-1,12
 156 311 156 311 156 328 c 0,13,14
 156 468 156 468 287 468 c 0,15,16
 327 468 327 468 378 445 c 1,17,-1
 360 403 l 1,18,19
 316 421 316 421 285 421 c 0,20,21
 205 421 205 421 205 328 c 0,22,23
 205 290 205 290 212 255 c 1,24,-1
 323 255 l 1,25,-1
 323 209 l 1,26,-1
 220 209 l 1,27,28
 221 201 221 201 221.5 189.5 c 128,-1,29
 222 178 222 178 222 168 c 0,30,31
 222 95 222 95 180 47 c 1,32,-1
 391 47 l 1,33,-1
 391 0 l 1,0,-1
EndSplineSet
EndChar
StartChar: currency
Encoding: 164 164 103
Width: 480
Flags: W
Fore
427 226 m 256,0,1
 427 167 427 167 393 120 c 1,2,-1
 430 81 l 1,3,-1
 387 35 l 1,4,-1
 348 76 l 1,5,6
 304 41 304 41 239 41 c 0,7,8
 176 41 176 41 132 76 c 1,9,-1
 93 35 l 1,10,-1
 50 81 l 1,11,-1
 87 120 l 1,12,13
 53 167 53 167 53 226 c 256,14,15
 53 285 53 285 87 332 c 1,16,-1
 50 371 l 1,17,-1
 93 417 l 1,18,-1
 132 376 l 1,19,20
 176 411 176 411 239 411 c 0,21,22
 304 411 304 411 348 376 c 1,23,-1
 387 417 l 1,24,-1
 430 371 l 1,25,-1
 393 332 l 1,26,27
 427 285 427 285 427 226 c 256,0,1
365 226 m 0,28,29
 365 277 365 277 328 314 c 128,-1,30
 291 351 291 351 240 351 c 0,31,32
 187 351 187 351 151 314 c 128,-1,33
 115 277 115 277 115 226 c 0,34,35
 115 173 115 173 151 137 c 128,-1,36
 187 101 187 101 240 101 c 0,37,38
 291 101 291 101 328 137 c 128,-1,39
 365 173 365 173 365 226 c 0,28,29
EndSplineSet
EndChar
StartChar: yen
Encoding: 165 165 104
Width: 480
Flags: W
Fore
384 91 m 1,0,-1
 269 91 l 1,1,-1
 269 18 l 1,2,-1
 211 18 l 1,3,-1
 211 91 l 1,4,-1
 96 91 l 1,5,-1
 96 141 l 1,6,-1
 211 141 l 1,7,-1
 211 173 l 1,8,-1
 96 173 l 1,9,-1
 96 223 l 1,10,-1
 201 223 l 1,11,-1
 56 461 l 1,12,-1
 126 461 l 1,13,-1
 239 271 l 1,14,-1
 353 461 l 1,15,-1
 424 461 l 1,16,-1
 278 224 l 1,17,-1
 384 224 l 1,18,-1
 384 173 l 1,19,-1
 269 173 l 1,20,-1
 269 141 l 1,21,-1
 384 141 l 1,22,-1
 384 91 l 1,0,-1
EndSplineSet
EndChar
StartChar: brokenbar
Encoding: 166 166 105
Width: 161
Flags: W
Fore
104 220 m 1,0,-1
 56 220 l 1,1,-1
 56 476 l 1,2,-1
 104 476 l 1,3,-1
 104 220 l 1,0,-1
104 -119 m 1,4,-1
 56 -119 l 1,5,-1
 56 138 l 1,6,-1
 104 138 l 1,7,-1
 104 -119 l 1,4,-1
EndSplineSet
EndChar
StartChar: section
Encoding: 167 167 106
Width: 380
Flags: W
Fore
307 71 m 0,0,1
 307 20 307 20 270.5 -9 c 128,-1,2
 234 -38 234 -38 178 -38 c 0,3,4
 115 -38 115 -38 68 0 c 1,5,-1
 91 42 l 1,6,7
 111 23 111 23 133 15 c 128,-1,8
 155 7 155 7 180 7 c 0,9,10
 216 7 216 7 237.5 23.5 c 128,-1,11
 259 40 259 40 259 66 c 0,12,13
 259 101 259 101 211 125 c 0,14,15
 186 135 186 135 159 145.5 c 128,-1,16
 132 156 132 156 107 167 c 0,17,18
 54 193 54 193 54 249 c 0,19,20
 54 292 54 292 93 327 c 1,21,22
 75 350 75 350 75 379 c 0,23,24
 75 424 75 424 109 452 c 128,-1,25
 143 480 143 480 199 480 c 0,26,27
 225 480 225 480 251.5 472 c 128,-1,28
 278 464 278 464 304 450 c 1,29,-1
 279 407 l 1,30,31
 239 436 239 436 194 436 c 0,32,33
 165 436 165 436 145 421.5 c 128,-1,34
 125 407 125 407 125 385 c 0,35,36
 125 374 125 374 131.5 365 c 128,-1,37
 138 356 138 356 149 348 c 0,38,39
 157 343 157 343 175 335.5 c 128,-1,40
 193 328 193 328 217 320 c 0,41,42
 268 302 268 302 296.5 274.5 c 128,-1,43
 325 247 325 247 325 212 c 0,44,45
 325 189 325 189 315 168.5 c 128,-1,46
 305 148 305 148 288 129 c 1,47,48
 307 106 307 106 307 71 c 0,0,1
274 207 m 0,49,50
 274 224 274 224 254.5 241.5 c 128,-1,51
 235 259 235 259 205 270 c 0,52,53
 179 279 179 279 159.5 287 c 128,-1,54
 140 295 140 295 127 301 c 1,55,56
 102 279 102 279 102 251 c 0,57,58
 102 239 102 239 110 229.5 c 128,-1,59
 118 220 118 220 132 210 c 1,60,61
 142 205 142 205 158.5 197.5 c 128,-1,62
 175 190 175 190 201 181 c 0,63,64
 220 174 220 174 233 168.5 c 128,-1,65
 246 163 246 163 255 157 c 1,66,67
 266 170 266 170 270 182 c 128,-1,68
 274 194 274 194 274 207 c 0,49,50
EndSplineSet
EndChar
StartChar: dieresis
Encoding: 168 168 107
Width: 341
Flags: W
Fore
140 425 m 0,0,1
 140 406 140 406 127 393.5 c 128,-1,2
 114 381 114 381 97 381 c 0,3,4
 79 381 79 381 66 393.5 c 128,-1,5
 53 406 53 406 53 425 c 0,6,7
 53 443 53 443 66 456 c 128,-1,8
 79 469 79 469 97 469 c 0,9,10
 114 469 114 469 127 456 c 128,-1,11
 140 443 140 443 140 425 c 0,0,1
288 425 m 0,12,13
 288 406 288 406 275 393.5 c 128,-1,14
 262 381 262 381 245 381 c 256,15,16
 228 381 228 381 214.5 393.5 c 128,-1,17
 201 406 201 406 201 425 c 0,18,19
 201 443 201 443 214.5 456 c 128,-1,20
 228 469 228 469 245 469 c 256,21,22
 262 469 262 469 275 456 c 128,-1,23
 288 443 288 443 288 425 c 0,12,13
EndSplineSet
EndChar
StartChar: copyright
Encoding: 169 169 108
Width: 540
Flags: W
Fore
371 117 m 1,0,1
 333 88 333 88 268 88 c 0,2,3
 201 88 201 88 162 130 c 128,-1,4
 123 172 123 172 123 233 c 0,5,6
 123 303 123 303 164 343.5 c 128,-1,7
 205 384 205 384 273 384 c 0,8,9
 334 384 334 384 366 360 c 1,10,-1
 354 324 l 1,11,12
 316 346 316 346 273 346 c 0,13,14
 169 346 169 346 169 238 c 0,15,16
 169 129 169 129 274 129 c 0,17,18
 323 129 323 129 358 154 c 1,19,-1
 371 117 l 1,0,1
513 240 m 256,20,21
 513 140 513 140 441.5 68.5 c 128,-1,22
 370 -3 370 -3 270 -3 c 256,23,24
 170 -3 170 -3 98.5 68.5 c 128,-1,25
 27 140 27 140 27 240 c 256,26,27
 27 340 27 340 98.5 411.5 c 128,-1,28
 170 483 170 483 270 483 c 256,29,30
 370 483 370 483 441.5 411.5 c 128,-1,31
 513 340 513 340 513 240 c 256,20,21
471 240 m 256,32,33
 471 323 471 323 412 382 c 128,-1,34
 353 441 353 441 270 441 c 256,35,36
 187 441 187 441 128 382 c 128,-1,37
 69 323 69 323 69 240 c 256,38,39
 69 157 69 157 128 98 c 128,-1,40
 187 39 187 39 270 39 c 256,41,42
 353 39 353 39 412 98 c 128,-1,43
 471 157 471 157 471 240 c 256,32,33
EndSplineSet
EndChar
StartChar: ordfeminine
Encoding: 170 170 109
Width: 252
Flags: W
Fore
225 248 m 1,0,-1
 182 248 l 1,1,2
 180 253 180 253 179 259.5 c 128,-1,3
 178 266 178 266 176 274 c 1,4,5
 148 245 148 245 106 245 c 0,6,7
 26 245 26 245 26 317 c 0,8,9
 26 397 26 397 173 400 c 1,10,11
 171 425 171 425 155.5 435.5 c 128,-1,12
 140 446 140 446 120 446 c 0,13,14
 103 446 103 446 85.5 442 c 128,-1,15
 68 438 68 438 51 426 c 1,16,-1
 37 460 l 1,17,18
 58 474 58 474 81 480 c 128,-1,19
 104 486 104 486 127 486 c 0,20,21
 217 486 217 486 217 376 c 2,22,-1
 217 292 l 2,23,24
 217 287 217 287 218.5 275.5 c 128,-1,25
 220 264 220 264 225 248 c 1,0,-1
173 324 m 2,26,-1
 173 363 l 1,27,28
 119 363 119 363 94.5 351.5 c 128,-1,29
 70 340 70 340 70 317 c 0,30,31
 70 282 70 282 112 282 c 0,32,33
 121 282 121 282 131.5 285 c 128,-1,34
 142 288 142 288 151.5 293.5 c 128,-1,35
 161 299 161 299 167 306.5 c 128,-1,36
 173 314 173 314 173 324 c 2,26,-1
EndSplineSet
EndChar
StartChar: guillemotleft
Encoding: 171 171 110
Width: 356
Flags: W
Fore
326 47 m 1,0,-1
 266 47 l 1,1,-1
 152 179 l 1,2,-1
 266 314 l 1,3,-1
 325 314 l 1,4,-1
 212 180 l 1,5,-1
 326 47 l 1,0,-1
204 47 m 1,6,-1
 143 47 l 1,7,-1
 30 179 l 1,8,-1
 141 315 l 1,9,-1
 203 315 l 1,10,-1
 89 179 l 1,11,-1
 204 47 l 1,6,-1
EndSplineSet
EndChar
StartChar: logicalnot
Encoding: 172 172 111
Width: 448
Flags: W
Fore
403 88 m 1,0,-1
 355 88 l 1,1,-1
 355 234 l 1,2,-1
 34 234 l 1,3,-1
 34 279 l 1,4,-1
 403 279 l 1,5,-1
 403 88 l 1,0,-1
EndSplineSet
EndChar
StartChar: registered
Encoding: 174 174 112
Width: 540
Flags: W
Fore
379 89 m 1,0,-1
 340 89 l 1,1,2
 322 220 322 220 262 220 c 2,3,-1
 212 220 l 1,4,-1
 212 89 l 1,5,-1
 171 89 l 1,6,-1
 171 384 l 1,7,8
 217 392 217 392 253 392 c 0,9,10
 306 392 306 392 337.5 369.5 c 128,-1,11
 369 347 369 347 369 308 c 0,12,13
 369 256 369 256 320 234 c 1,14,15
 344 217 344 217 356.5 187 c 128,-1,16
 369 157 369 157 379 89 c 1,0,-1
332 305 m 256,17,18
 332 357 332 357 253 357 c 0,19,20
 228 357 228 357 212 355 c 1,21,-1
 212 253 l 1,22,-1
 259 253 l 2,23,24
 332 253 332 253 332 305 c 256,17,18
513 240 m 256,25,26
 513 140 513 140 441.5 68.5 c 128,-1,27
 370 -3 370 -3 270 -3 c 256,28,29
 170 -3 170 -3 98.5 68.5 c 128,-1,30
 27 140 27 140 27 240 c 256,31,32
 27 340 27 340 98.5 411.5 c 128,-1,33
 170 483 170 483 270 483 c 256,34,35
 370 483 370 483 441.5 411.5 c 128,-1,36
 513 340 513 340 513 240 c 256,25,26
471 240 m 256,37,38
 471 323 471 323 412 382 c 128,-1,39
 353 441 353 441 270 441 c 256,40,41
 187 441 187 441 128 382 c 128,-1,42
 69 323 69 323 69 240 c 256,43,44
 69 157 69 157 128 98 c 128,-1,45
 187 39 187 39 270 39 c 256,46,47
 353 39 353 39 412 98 c 128,-1,48
 471 157 471 157 471 240 c 256,37,38
EndSplineSet
EndChar
StartChar: macron
Encoding: 175 175 113
Width: 376
Flags: W
Fore
376 528 m 1,0,-1
 0 528 l 1,1,-1
 0 581 l 1,2,-1
 376 581 l 1,3,-1
 376 528 l 1,0,-1
EndSplineSet
EndChar
StartChar: degree
Encoding: 176 176 114
Width: 277
Flags: W
Fore
227 397 m 256,0,1
 227 360 227 360 201 334 c 128,-1,2
 175 308 175 308 138 308 c 256,3,4
 101 308 101 308 75 334 c 128,-1,5
 49 360 49 360 49 397 c 256,6,7
 49 434 49 434 75 460 c 128,-1,8
 101 486 101 486 138 486 c 256,9,10
 175 486 175 486 201 460 c 128,-1,11
 227 434 227 434 227 397 c 256,0,1
195 397 m 256,12,13
 195 420 195 420 178 437 c 128,-1,14
 161 454 161 454 138 454 c 256,15,16
 115 454 115 454 98 437 c 128,-1,17
 81 420 81 420 81 397 c 256,18,19
 81 374 81 374 98 357 c 128,-1,20
 115 340 115 340 138 340 c 256,21,22
 161 340 161 340 178 357 c 128,-1,23
 195 374 195 374 195 397 c 256,12,13
EndSplineSet
EndChar
StartChar: plusminus
Encoding: 177 177 115
Width: 440
Flags: W
Fore
405 0 m 1,0,-1
 36 0 l 1,1,-1
 36 55 l 1,2,-1
 405 55 l 1,3,-1
 405 0 l 1,0,-1
400 217 m 1,4,-1
 252 217 l 1,5,-1
 252 78 l 1,6,-1
 189 78 l 1,7,-1
 189 217 l 1,8,-1
 41 217 l 1,9,-1
 41 272 l 1,10,-1
 189 272 l 1,11,-1
 189 423 l 1,12,-1
 252 423 l 1,13,-1
 252 272 l 1,14,-1
 400 272 l 1,15,-1
 400 217 l 1,4,-1
EndSplineSet
EndChar
StartChar: twosuperior
Encoding: 178 178 116
Width: 260
Flags: W
Fore
217 190 m 1,0,-1
 27 190 l 1,1,2
 27 221 27 221 49.5 249.5 c 128,-1,3
 72 278 72 278 98.5 304 c 128,-1,4
 125 330 125 330 147.5 354.5 c 128,-1,5
 170 379 170 379 170 402 c 0,6,7
 170 419 170 419 160.5 428 c 128,-1,8
 151 437 151 437 136 437 c 0,9,10
 117 437 117 437 102 423 c 128,-1,11
 87 409 87 409 85 382 c 1,12,-1
 43 390 l 1,13,14
 48 435 48 435 72 458.5 c 128,-1,15
 96 482 96 482 133 482 c 0,16,17
 171 482 171 482 194.5 460.5 c 128,-1,18
 218 439 218 439 218 402 c 0,19,20
 218 381 218 381 205 356 c 128,-1,21
 192 331 192 331 164 302 c 2,22,-1
 99 235 l 1,23,-1
 223 235 l 1,24,-1
 217 190 l 1,0,-1
EndSplineSet
EndChar
StartChar: threesuperior
Encoding: 179 179 117
Width: 260
Flags: W
Fore
228 294 m 0,0,1
 228 246 228 246 196.5 217 c 128,-1,2
 165 188 165 188 111 187 c 0,3,4
 70 187 70 187 36 212 c 1,5,-1
 56 254 l 1,6,7
 70 242 70 242 84 238 c 128,-1,8
 98 234 98 234 112 234 c 0,9,10
 144 234 144 234 162.5 250.5 c 128,-1,11
 181 267 181 267 181 293 c 0,12,13
 181 310 181 310 170.5 319 c 128,-1,14
 160 328 160 328 146 328 c 0,15,16
 134 328 134 328 122 323.5 c 128,-1,17
 110 319 110 319 102 313 c 1,18,-1
 86 343 l 1,19,20
 125 361 125 361 144.5 380.5 c 128,-1,21
 164 400 164 400 164 416 c 0,22,23
 164 438 164 438 136 438 c 0,24,25
 119 438 119 438 103 426.5 c 128,-1,26
 87 415 87 415 79 392 c 1,27,-1
 42 411 l 1,28,29
 73 483 73 483 139 483 c 0,30,31
 208 483 208 483 208 424 c 0,32,33
 208 390 208 390 176 362 c 1,34,35
 228 347 228 347 228 294 c 0,0,1
EndSplineSet
EndChar
StartChar: acute
Encoding: 180 180 118
Width: 259
Flags: W
Fore
100 366 m 1,0,-1
 53 366 l 1,1,-1
 128 481 l 1,2,-1
 206 481 l 1,3,-1
 100 366 l 1,0,-1
EndSplineSet
EndChar
StartChar: mu
Encoding: 181 181 119
Width: 414
Flags: W
Fore
386 4 m 1,0,-1
 325 -8 l 1,1,2
 320 3 320 3 316.5 14.5 c 128,-1,3
 313 26 313 26 310 40 c 1,4,5
 282 18 282 18 252.5 4.5 c 128,-1,6
 223 -9 223 -9 188 -9 c 0,7,8
 165 -9 165 -9 144.5 -1 c 128,-1,9
 124 7 124 7 110 24 c 1,10,-1
 110 -141 l 1,11,-1
 47 -141 l 1,12,-1
 47 342 l 1,13,-1
 110 342 l 1,14,-1
 110 160 l 2,15,16
 110 47 110 47 196 47 c 0,17,18
 233 47 233 47 267.5 72.5 c 128,-1,19
 302 98 302 98 302 139 c 2,20,-1
 302 342 l 1,21,-1
 365 342 l 1,22,-1
 365 91 l 2,23,24
 365 73 365 73 370.5 51 c 128,-1,25
 376 29 376 29 386 4 c 1,0,-1
EndSplineSet
EndChar
StartChar: paragraph
Encoding: 182 182 120
Width: 380
Flags: W
Fore
324 -63 m 1,0,-1
 290 -63 l 1,1,-1
 290 443 l 1,2,-1
 242 443 l 1,3,-1
 242 -63 l 1,4,-1
 207 -63 l 1,5,-1
 207 180 l 1,6,-1
 203 180 l 2,7,8
 143 180 143 180 95.5 217.5 c 128,-1,9
 48 255 48 255 48 321 c 0,10,11
 48 475 48 475 246 475 c 0,12,13
 299 475 299 475 324 470 c 1,14,-1
 324 -63 l 1,0,-1
EndSplineSet
EndChar
StartChar: periodcentered
Encoding: 183 183 121
Width: 172
Flags: W
Fore
134 182 m 256,0,1
 134 162 134 162 120 148 c 128,-1,2
 106 134 106 134 86 134 c 256,3,4
 66 134 66 134 52 148 c 128,-1,5
 38 162 38 162 38 182 c 256,6,7
 38 202 38 202 52 216 c 128,-1,8
 66 230 66 230 86 230 c 256,9,10
 106 230 106 230 120 216 c 128,-1,11
 134 202 134 202 134 182 c 256,0,1
EndSplineSet
EndChar
StartChar: cedilla
Encoding: 184 184 122
Width: 249
Flags: W
Fore
196 -90 m 0,0,1
 196 -122 196 -122 175 -140.5 c 128,-1,2
 154 -159 154 -159 116 -159 c 0,3,4
 102 -159 102 -159 85 -154.5 c 128,-1,5
 68 -150 68 -150 53 -141 c 1,6,-1
 67 -109 l 1,7,8
 81 -116 81 -116 95.5 -120 c 128,-1,9
 110 -124 110 -124 118 -124 c 0,10,11
 150 -124 150 -124 150 -94 c 0,12,13
 150 -66 150 -66 86 -55 c 1,14,-1
 129 11 l 1,15,-1
 172 11 l 1,16,-1
 144 -28 l 1,17,18
 171 -36 171 -36 183.5 -51.5 c 128,-1,19
 196 -67 196 -67 196 -90 c 0,0,1
EndSplineSet
EndChar
StartChar: onesuperior
Encoding: 185 185 123
Width: 260
Flags: W
Fore
210 195 m 1,0,-1
 76 195 l 1,1,-1
 76 234 l 1,2,-1
 119 234 l 1,3,-1
 119 414 l 1,4,-1
 79 376 l 1,5,-1
 54 410 l 1,6,-1
 137 484 l 1,7,8
 152 484 152 484 160 474.5 c 128,-1,9
 168 465 168 465 168 450 c 2,10,-1
 168 234 l 1,11,-1
 210 234 l 1,12,-1
 210 195 l 1,0,-1
EndSplineSet
EndChar
StartChar: ordmasculine
Encoding: 186 186 124
Width: 294
Flags: W
Fore
274 359 m 0,0,1
 274 305 274 305 236.5 268.5 c 128,-1,2
 199 232 199 232 146 232 c 0,3,4
 92 232 92 232 55.5 268.5 c 128,-1,5
 19 305 19 305 19 359 c 0,6,7
 19 412 19 412 55.5 449.5 c 128,-1,8
 92 487 92 487 146 487 c 0,9,10
 199 487 199 487 236.5 449.5 c 128,-1,11
 274 412 274 412 274 359 c 0,0,1
230 359 m 256,12,13
 230 393 230 393 205 418 c 128,-1,14
 180 443 180 443 146 443 c 256,15,16
 112 443 112 443 87.5 418 c 128,-1,17
 63 393 63 393 63 359 c 256,18,19
 63 325 63 325 87.5 300.5 c 128,-1,20
 112 276 112 276 146 276 c 256,21,22
 180 276 180 276 205 300.5 c 128,-1,23
 230 325 230 325 230 359 c 256,12,13
EndSplineSet
EndChar
StartChar: guillemotright
Encoding: 187 187 125
Width: 356
Flags: W
Fore
90 47 m 1,0,-1
 30 47 l 1,1,-1
 144 180 l 1,2,-1
 31 314 l 1,3,-1
 90 314 l 1,4,-1
 204 179 l 1,5,-1
 90 47 l 1,0,-1
213 47 m 1,6,-1
 152 47 l 1,7,-1
 267 179 l 1,8,-1
 153 315 l 1,9,-1
 215 315 l 1,10,-1
 326 179 l 1,11,-1
 213 47 l 1,6,-1
EndSplineSet
EndChar
StartChar: onequarter
Encoding: 188 188 126
Width: 542
Flags: W
Fore
180 176 m 1,0,-1
 46 176 l 1,1,-1
 46 215 l 1,2,-1
 89 215 l 1,3,-1
 89 389 l 1,4,-1
 51 356 l 1,5,-1
 23 392 l 1,6,-1
 107 466 l 1,7,8
 138 464 138 464 138 431 c 2,9,-1
 138 215 l 1,10,-1
 180 215 l 1,11,-1
 180 176 l 1,0,-1
158 -9 m 1,12,-1
 108 -9 l 1,13,-1
 395 474 l 1,14,-1
 445 474 l 1,15,-1
 158 -9 l 1,12,-1
415 108 m 1,16,-1
 415 226 l 1,17,18
 392 206 392 206 375.5 172.5 c 128,-1,19
 359 139 359 139 355 108 c 1,20,-1
 415 108 l 1,16,-1
464 0 m 1,21,-1
 415 0 l 1,22,-1
 415 60 l 1,23,-1
 303 60 l 1,24,25
 303 92 303 92 313 132 c 128,-1,26
 323 172 323 172 343 207.5 c 128,-1,27
 363 243 363 243 394.5 267.5 c 128,-1,28
 426 292 426 292 464 293 c 1,29,-1
 464 108 l 1,30,-1
 506 108 l 1,31,-1
 504 60 l 1,32,-1
 464 60 l 1,33,-1
 464 0 l 1,21,-1
EndSplineSet
Ligature: 0 0 'frac' one fraction four
Ligature: 0 0 'frac' one slash four
EndChar
StartChar: onehalf
Encoding: 189 189 127
Width: 542
Flags: W
Fore
520 0 m 1,0,-1
 330 0 l 1,1,2
 333 38 333 38 355.5 67 c 128,-1,3
 378 96 378 96 403 119 c 0,4,5
 415 131 415 131 427.5 142.5 c 128,-1,6
 440 154 440 154 450 166 c 128,-1,7
 460 178 460 178 466.5 189.5 c 128,-1,8
 473 201 473 201 473 212 c 0,9,10
 473 226 473 226 464.5 236 c 128,-1,11
 456 246 456 246 439 246 c 0,12,13
 398 246 398 246 391 192 c 1,14,-1
 346 200 l 1,15,16
 350 245 350 245 374.5 268.5 c 128,-1,17
 399 292 399 292 436 292 c 0,18,19
 474 292 474 292 498 271 c 128,-1,20
 522 250 522 250 522 212 c 0,21,22
 522 187 522 187 507.5 165 c 128,-1,23
 493 143 493 143 473.5 122.5 c 128,-1,24
 454 102 454 102 434 83 c 128,-1,25
 414 64 414 64 402 46 c 1,26,-1
 526 46 l 1,27,-1
 520 0 l 1,0,-1
158 -9 m 1,28,-1
 108 -9 l 1,29,-1
 395 474 l 1,30,-1
 445 474 l 1,31,-1
 158 -9 l 1,28,-1
180 176 m 1,32,-1
 46 176 l 1,33,-1
 46 215 l 1,34,-1
 89 215 l 1,35,-1
 89 389 l 1,36,-1
 51 356 l 1,37,-1
 23 392 l 1,38,-1
 107 466 l 1,39,40
 138 464 138 464 138 431 c 2,41,-1
 138 215 l 1,42,-1
 180 215 l 1,43,-1
 180 176 l 1,32,-1
EndSplineSet
Ligature: 0 0 'frac' one fraction two
Ligature: 0 0 'frac' one slash two
EndChar
StartChar: threequarters
Encoding: 190 190 128
Width: 542
Flags: W
Fore
158 -9 m 1,0,-1
 108 -9 l 1,1,-1
 395 474 l 1,2,-1
 445 474 l 1,3,-1
 158 -9 l 1,0,-1
223 285 m 0,4,5
 223 259 223 259 213 239 c 128,-1,6
 203 219 203 219 187 205.5 c 128,-1,7
 171 192 171 192 149.5 185 c 128,-1,8
 128 178 128 178 106 178 c 0,9,10
 65 178 65 178 31 203 c 1,11,-1
 51 246 l 1,12,13
 65 235 65 235 79 229.5 c 128,-1,14
 93 224 93 224 107 224 c 0,15,16
 139 224 139 224 157.5 241 c 128,-1,17
 176 258 176 258 176 284 c 0,18,19
 176 319 176 319 143 319 c 0,20,21
 118 319 118 319 97 301 c 1,22,-1
 81 331 l 1,23,24
 125 354 125 354 140.5 372 c 128,-1,25
 156 390 156 390 156 410 c 0,26,27
 156 418 156 418 150 423.5 c 128,-1,28
 144 429 144 429 131 429 c 0,29,30
 91 429 91 429 74 380 c 1,31,-1
 37 399 l 1,32,33
 67 471 67 471 134 471 c 0,34,35
 169 471 169 471 185.5 455 c 128,-1,36
 202 439 202 439 202 417 c 0,37,38
 202 383 202 383 171 355 c 1,39,40
 198 351 198 351 210.5 332 c 128,-1,41
 223 313 223 313 223 285 c 0,4,5
415 108 m 1,42,-1
 415 226 l 1,43,44
 392 206 392 206 375.5 172.5 c 128,-1,45
 359 139 359 139 355 108 c 1,46,-1
 415 108 l 1,42,-1
464 0 m 1,47,-1
 415 0 l 1,48,-1
 415 60 l 1,49,-1
 303 60 l 1,50,51
 303 92 303 92 313 132 c 128,-1,52
 323 172 323 172 343 207.5 c 128,-1,53
 363 243 363 243 394.5 267.5 c 128,-1,54
 426 292 426 292 464 293 c 1,55,-1
 464 108 l 1,56,-1
 506 108 l 1,57,-1
 504 60 l 1,58,-1
 464 60 l 1,59,-1
 464 0 l 1,47,-1
EndSplineSet
Ligature: 0 0 'frac' three fraction four
Ligature: 0 0 'frac' three slash four
EndChar
StartChar: questiondown
Encoding: 191 191 129
Width: 289
Flags: W
Fore
265 -114 m 1,0,1
 206 -151 206 -151 150 -151 c 0,2,3
 93 -151 93 -151 58.5 -120.5 c 128,-1,4
 24 -90 24 -90 24 -39 c 0,5,6
 24 14 24 14 90 82 c 0,7,8
 113 105 113 105 124 128.5 c 128,-1,9
 135 152 135 152 136 173 c 0,10,11
 136 190 136 190 129 215 c 1,12,-1
 186 215 l 1,13,14
 191 201 191 201 193.5 189.5 c 128,-1,15
 196 178 196 178 196 170 c 0,16,17
 196 115 196 115 138 54 c 0,18,19
 87 0 87 0 87 -37 c 0,20,21
 87 -94 87 -94 157 -94 c 0,22,23
 200 -94 200 -94 240 -65 c 1,24,-1
 265 -114 l 1,0,1
201 293 m 256,25,26
 201 273 201 273 187 259 c 128,-1,27
 173 245 173 245 154 245 c 256,28,29
 135 245 135 245 121 259 c 128,-1,30
 107 273 107 273 107 293 c 256,31,32
 107 313 107 313 121 327 c 128,-1,33
 135 341 135 341 154 341 c 256,34,35
 173 341 173 341 187 327 c 128,-1,36
 201 313 201 313 201 293 c 256,25,26
EndSplineSet
EndChar
StartChar: AE
Encoding: 198 198 136
Width: 583
Flags: W
Fore
555 0 m 1,0,-1
 326 0 l 1,1,-1
 299 190 l 1,2,-1
 159 190 l 1,3,-1
 58 0 l 1,4,-1
 -10 0 l 1,5,-1
 249 483 l 1,6,-1
 543 483 l 1,7,-1
 543 428 l 1,8,-1
 325 428 l 1,9,-1
 344 281 l 1,10,-1
 533 281 l 1,11,-1
 533 226 l 1,12,-1
 353 226 l 1,13,-1
 379 55 l 1,14,-1
 555 55 l 1,15,-1
 555 0 l 1,0,-1
291 244 m 1,16,-1
 272 405 l 1,17,-1
 186 244 l 1,18,-1
 291 244 l 1,16,-1
EndSplineSet
EndChar
StartChar: Eth
Encoding: 208 208 146
Width: 459
Flags: W
Fore
433 248 m 0,0,1
 433 140 433 140 381 75 c 0,2,3
 317 -4 317 -4 184 -4 c 0,4,5
 143 -4 143 -4 50 6 c 1,6,-1
 50 206 l 1,7,-1
 9 206 l 1,8,-1
 9 260 l 1,9,-1
 50 260 l 1,10,-1
 50 468 l 1,11,12
 164 481 164 481 204 481 c 0,13,14
 326 481 326 481 385 408 c 0,15,16
 433 349 433 349 433 248 c 0,0,1
369 248 m 0,17,18
 369 427 369 427 201 427 c 0,19,20
 173 427 173 427 113 421 c 1,21,-1
 113 260 l 1,22,-1
 273 260 l 1,23,-1
 273 206 l 1,24,-1
 113 206 l 1,25,-1
 113 53 l 1,26,27
 146 50 146 50 196 50 c 0,28,29
 293 50 293 50 337 119 c 0,30,31
 369 170 369 170 369 248 c 0,17,18
EndSplineSet
EndChar
StartChar: multiply
Encoding: 215 215 153
Width: 417
Flags: W
Fore
390 34 m 1,0,-1
 350 -5 l 1,1,-1
 208 143 l 1,2,3
 173 108 173 108 137 69 c 128,-1,4
 101 30 101 30 67 -5 c 1,5,-1
 27 34 l 1,6,-1
 169 182 l 1,7,8
 134 219 134 219 98 257.5 c 128,-1,9
 62 296 62 296 27 333 c 1,10,-1
 67 372 l 1,11,-1
 209 224 l 1,12,13
 243 260 243 260 280 298.5 c 128,-1,14
 317 337 317 337 350 372 c 1,15,-1
 390 333 l 1,16,-1
 247 183 l 1,17,-1
 390 34 l 1,0,-1
EndSplineSet
EndChar
StartChar: Oslash
Encoding: 216 216 154
Width: 518
Flags: W
Fore
492 237 m 256,0,1
 492 132 492 132 427 61 c 128,-1,2
 362 -10 362 -10 259 -10 c 0,3,4
 212 -10 212 -10 173 4 c 1,5,-1
 157 -28 l 1,6,-1
 93 -28 l 1,7,-1
 123 31 l 1,8,9
 106 44 106 44 91 61 c 0,10,11
 26 132 26 132 26 237 c 256,12,13
 26 342 26 342 91 413.5 c 128,-1,14
 156 485 156 485 259 485 c 0,15,16
 308 485 308 485 348 469 c 1,17,-1
 360 492 l 1,18,-1
 424 492 l 1,19,-1
 397 440 l 1,20,21
 413 428 413 428 427 413 c 0,22,23
 492 342 492 342 492 237 c 256,0,1
323 419 m 1,24,25
 294 431 294 431 259 431 c 0,26,27
 182 431 182 431 135 375.5 c 128,-1,28
 88 320 88 320 88 238 c 256,29,30
 88 156 88 156 135 100 c 0,31,32
 142 91 142 91 150 84 c 1,33,-1
 323 419 l 1,24,25
430 238 m 256,34,35
 430 320 430 320 383 375 c 0,36,37
 377 382 377 382 371 388 c 1,38,-1
 199 55 l 1,39,40
 226 45 226 45 259 45 c 0,41,42
 336 45 336 45 383 100.5 c 128,-1,43
 430 156 430 156 430 238 c 256,34,35
EndSplineSet
EndChar
StartChar: Thorn
Encoding: 222 222 160
Width: 394
Flags: W
Fore
357 249 m 256,0,1
 357 172 357 172 306 131.5 c 128,-1,2
 255 91 255 91 164 91 c 0,3,4
 132 91 132 91 112 95 c 1,5,-1
 112 0 l 1,6,-1
 53 0 l 1,7,-1
 53 476 l 1,8,-1
 112 476 l 1,9,-1
 112 403 l 1,10,11
 132 407 132 407 164 407 c 0,12,13
 255 407 255 407 306 366.5 c 128,-1,14
 357 326 357 326 357 249 c 256,0,1
299 249 m 256,15,16
 299 355 299 355 166 355 c 0,17,18
 135 355 135 355 112 347 c 1,19,-1
 112 151 l 1,20,21
 135 143 135 143 166 143 c 0,22,23
 299 143 299 143 299 249 c 256,15,16
EndSplineSet
EndChar
StartChar: germandbls
Encoding: 223 223 161
Width: 425
Flags: W
Fore
376 109 m 0,0,1
 376 54 376 54 341.5 22.5 c 128,-1,2
 307 -9 307 -9 249 -9 c 0,3,4
 223 -9 223 -9 199.5 -2.5 c 128,-1,5
 176 4 176 4 153 16 c 1,6,-1
 173 70 l 1,7,8
 218 46 218 46 250 46 c 256,9,10
 282 46 282 46 300 62.5 c 128,-1,11
 318 79 318 79 318 103 c 0,12,13
 318 125 318 125 303 142 c 128,-1,14
 288 159 288 159 269.5 175.5 c 128,-1,15
 251 192 251 192 236 210 c 128,-1,16
 221 228 221 228 221 252 c 0,17,18
 221 265 221 265 231 280.5 c 128,-1,19
 241 296 241 296 253.5 311.5 c 128,-1,20
 266 327 266 327 276 341.5 c 128,-1,21
 286 356 286 356 286 368 c 0,22,23
 286 435 286 435 214 435 c 0,24,25
 130 435 130 435 130 281 c 2,26,-1
 130 -40 l 2,27,28
 130 -66 130 -66 123.5 -92 c 128,-1,29
 117 -118 117 -118 103 -143 c 1,30,-1
 46 -128 l 1,31,32
 59 -103 59 -103 64.5 -81.5 c 128,-1,33
 70 -60 70 -60 70 -40 c 2,34,-1
 70 297 l 2,35,36
 70 492 70 492 221 492 c 0,37,38
 275 492 275 492 309.5 459.5 c 128,-1,39
 344 427 344 427 344 370 c 0,40,41
 344 347 344 347 334 328.5 c 128,-1,42
 324 310 324 310 312.5 295 c 128,-1,43
 301 280 301 280 291 269 c 128,-1,44
 281 258 281 258 281 249 c 0,45,46
 281 239 281 239 296 225.5 c 128,-1,47
 311 212 311 212 328.5 194 c 128,-1,48
 346 176 346 176 361 155 c 128,-1,49
 376 134 376 134 376 109 c 0,0,1
EndSplineSet
EndChar
StartChar: ae
Encoding: 230 230 168
Width: 621
Flags: W
Fore
580 18 m 1,0,1
 512 -9 512 -9 440 -9 c 0,2,3
 342 -9 342 -9 290 61 c 1,4,5
 253 -9 253 -9 147 -9 c 0,6,7
 122 -9 122 -9 100 -2 c 128,-1,8
 78 5 78 5 61.5 18 c 128,-1,9
 45 31 45 31 35.5 50 c 128,-1,10
 26 69 26 69 26 93 c 0,11,12
 26 223 26 223 254 225 c 1,13,14
 252 259 252 259 231 280.5 c 128,-1,15
 210 302 210 302 172 302 c 0,16,17
 140 302 140 302 54 276 c 1,18,-1
 46 333 l 1,19,20
 116 354 116 354 176 354 c 0,21,22
 221 354 221 354 250.5 340.5 c 128,-1,23
 280 327 280 327 297 293 c 1,24,25
 345 354 345 354 436 354 c 0,26,27
 590 354 590 354 595 160 c 1,28,-1
 316 160 l 1,29,30
 321 105 321 105 355.5 76 c 128,-1,31
 390 47 390 47 444 47 c 0,32,33
 502 47 502 47 575 73 c 1,34,-1
 580 18 l 1,0,1
254 170 m 1,35,36
 169 169 169 169 130.5 151.5 c 128,-1,37
 92 134 92 134 92 99 c 0,38,39
 92 73 92 73 108.5 59.5 c 128,-1,40
 125 46 125 46 149 46 c 0,41,42
 197 46 197 46 225.5 73 c 128,-1,43
 254 100 254 100 254 148 c 2,44,-1
 254 170 l 1,35,36
533 213 m 1,45,46
 526 250 526 250 500 276 c 128,-1,47
 474 302 474 302 432 302 c 0,48,49
 388 302 388 302 359.5 278.5 c 128,-1,50
 331 255 331 255 322 213 c 1,51,-1
 533 213 l 1,45,46
EndSplineSet
EndChar
StartChar: eth
Encoding: 240 240 178
Width: 378
Flags: W
Fore
341 163 m 0,0,1
 341 82 341 82 295.5 33 c 128,-1,2
 250 -16 250 -16 180 -16 c 0,3,4
 117 -16 117 -16 76.5 29.5 c 128,-1,5
 36 75 36 75 36 142 c 0,6,7
 36 208 36 208 77 253 c 128,-1,8
 118 298 118 298 178 298 c 256,9,10
 238 298 238 298 267 266 c 1,11,12
 243 316 243 316 182 364 c 0,13,14
 181 365 181 365 180 365 c 1,15,-1
 79 313 l 1,16,-1
 52 357 l 1,17,-1
 132 398 l 1,18,19
 96 418 96 418 61 428 c 1,20,-1
 67 478 l 1,21,22
 137 464 137 464 192 429 c 1,23,-1
 283 476 l 1,24,-1
 305 430 l 1,25,-1
 237 395 l 1,26,27
 341 295 341 295 341 163 c 0,0,1
273 142 m 0,28,29
 273 185 273 185 246.5 214.5 c 128,-1,30
 220 244 220 244 182 244 c 0,31,32
 146 244 146 244 120 213 c 128,-1,33
 94 182 94 182 94 142 c 256,34,35
 94 102 94 102 120 71 c 128,-1,36
 146 40 146 40 182 40 c 0,37,38
 220 40 220 40 246.5 70 c 128,-1,39
 273 100 273 100 273 142 c 0,28,29
EndSplineSet
EndChar
StartChar: divide
Encoding: 247 247 185
Width: 417
Flags: W
Fore
391 157 m 1,0,-1
 26 157 l 1,1,-1
 26 211 l 1,2,-1
 391 211 l 1,3,-1
 391 157 l 1,0,-1
257 56 m 256,4,5
 257 36 257 36 243 22 c 128,-1,6
 229 8 229 8 210 8 c 256,7,8
 191 8 191 8 177 22 c 128,-1,9
 163 36 163 36 163 56 c 256,10,11
 163 76 163 76 177 90 c 128,-1,12
 191 104 191 104 210 104 c 256,13,14
 229 104 229 104 243 90 c 128,-1,15
 257 76 257 76 257 56 c 256,4,5
257 313 m 256,16,17
 257 293 257 293 243 279 c 128,-1,18
 229 265 229 265 210 265 c 256,19,20
 191 265 191 265 177 279 c 128,-1,21
 163 293 163 293 163 313 c 256,22,23
 163 333 163 333 177 347 c 128,-1,24
 191 361 191 361 210 361 c 256,25,26
 229 361 229 361 243 347 c 128,-1,27
 257 333 257 333 257 313 c 256,16,17
EndSplineSet
EndChar
StartChar: oslash
Encoding: 248 248 186
Width: 412
Flags: W
Fore
386 172 m 256,0,1
 386 96 386 96 335 44 c 128,-1,2
 284 -8 284 -8 206 -8 c 0,3,4
 173 -8 173 -8 145 1 c 1,5,-1
 130 -28 l 1,6,-1
 66 -28 l 1,7,-1
 95 28 l 1,8,9
 85 35 85 35 77 44 c 0,10,11
 26 96 26 96 26 172 c 256,12,13
 26 248 26 248 77 300.5 c 128,-1,14
 128 353 128 353 206 353 c 0,15,16
 234 353 234 353 259 346 c 1,17,-1
 276 378 l 1,18,-1
 340 378 l 1,19,-1
 311 321 l 1,20,21
 323 312 323 312 335 300 c 0,22,23
 386 248 386 248 386 172 c 256,0,1
324 172 m 256,24,25
 324 226 324 226 291 262 c 0,26,27
 287 266 287 266 284 269 c 1,28,-1
 170 50 l 1,29,30
 187 45 187 45 206 45 c 0,31,32
 258 45 258 45 291 81.5 c 128,-1,33
 324 118 324 118 324 172 c 256,24,25
233 296 m 1,34,35
 220 299 220 299 206 299 c 0,36,37
 154 299 154 299 121 262.5 c 128,-1,38
 88 226 88 226 88 172 c 256,39,40
 88 118 88 118 121 81 c 2,41,-1
 122 80 l 1,42,-1
 233 296 l 1,34,35
EndSplineSet
EndChar
StartChar: thorn
Encoding: 254 254 192
Width: 438
Flags: W
Fore
402 179 m 0,0,1
 402 95 402 95 352.5 43 c 128,-1,2
 303 -9 303 -9 225 -9 c 0,3,4
 158 -9 158 -9 114 32 c 1,5,-1
 114 -134 l 1,6,-1
 55 -134 l 1,7,-1
 55 476 l 1,8,-1
 114 476 l 1,9,-1
 114 307 l 1,10,11
 164 354 164 354 235 354 c 0,12,13
 308 354 308 354 355 304.5 c 128,-1,14
 402 255 402 255 402 179 c 0,0,1
344 178 m 0,15,16
 344 232 344 232 312 267 c 128,-1,17
 280 302 280 302 229 302 c 0,18,19
 182 302 182 302 148 272.5 c 128,-1,20
 114 243 114 243 114 196 c 2,21,-1
 114 139 l 2,22,23
 114 101 114 101 148.5 73.5 c 128,-1,24
 183 46 183 46 228 46 c 0,25,26
 280 46 280 46 312 81 c 128,-1,27
 344 116 344 116 344 178 c 0,15,16
EndSplineSet
EndChar
StartChar: dotlessi
Encoding: 305 305 194
Width: 163
Flags: W
Fore
113 0 m 1,0,-1
 50 0 l 1,1,-1
 50 340 l 1,2,-1
 113 340 l 1,3,-1
 113 0 l 1,0,-1
EndSplineSet
EndChar
StartChar: Lslash
Encoding: 321 321 195
Width: 359
Flags: W
Fore
346 0 m 1,0,-1
 50 0 l 1,1,-1
 50 149 l 1,2,-1
 21 142 l 1,3,-1
 21 204 l 1,4,-1
 50 211 l 1,5,-1
 50 476 l 1,6,-1
 113 476 l 1,7,-1
 113 226 l 1,8,-1
 338 279 l 1,9,-1
 338 217 l 1,10,-1
 113 164 l 1,11,-1
 113 54 l 1,12,-1
 346 54 l 1,13,-1
 346 0 l 1,0,-1
EndSplineSet
EndChar
StartChar: lslash
Encoding: 322 322 196
Width: 217
Flags: W
Fore
207 49 m 1,0,-1
 200 -8 l 1,1,2
 51 0 51 0 51 175 c 2,3,-1
 51 236 l 1,4,-1
 8 224 l 1,5,-1
 8 278 l 1,6,-1
 51 290 l 1,7,-1
 51 504 l 1,8,-1
 114 504 l 1,9,-1
 114 309 l 1,10,-1
 207 337 l 1,11,-1
 207 283 l 1,12,-1
 114 255 l 1,13,-1
 114 189 l 2,14,15
 114 112 114 112 138 80 c 0,16,17
 159 53 159 53 207 49 c 1,0,-1
EndSplineSet
EndChar
StartChar: OE
Encoding: 338 338 197
Width: 723
Flags: W
Fore
698 0 m 1,0,-1
 415 0 l 1,1,-1
 415 27 l 1,2,3
 355 -10 355 -10 279 -10 c 0,4,5
 168 -10 168 -10 97 61 c 128,-1,6
 26 132 26 132 26 238 c 0,7,8
 26 343 26 343 97 414.5 c 128,-1,9
 168 486 168 486 279 486 c 0,10,11
 355 486 355 486 415 448 c 1,12,-1
 415 476 l 1,13,-1
 698 476 l 1,14,-1
 698 422 l 1,15,-1
 478 422 l 1,16,-1
 478 278 l 1,17,-1
 674 278 l 1,18,-1
 674 224 l 1,19,-1
 478 224 l 1,20,-1
 478 54 l 1,21,-1
 698 54 l 1,22,-1
 698 0 l 1,0,-1
415 104 m 1,23,-1
 415 369 l 1,24,25
 364 431 364 431 279 431 c 0,26,27
 203 431 203 431 146 372.5 c 128,-1,28
 89 314 89 314 89 238 c 0,29,30
 89 160 89 160 145.5 102 c 128,-1,31
 202 44 202 44 279 44 c 0,32,33
 364 44 364 44 415 104 c 1,23,-1
EndSplineSet
EndChar
StartChar: oe
Encoding: 339 339 198
Width: 689
Flags: W
Fore
642 73 m 1,0,-1
 649 18 l 1,1,2
 576 -9 576 -9 510 -9 c 0,3,4
 409 -9 409 -9 353 65 c 1,5,6
 300 -8 300 -8 206 -8 c 0,7,8
 128 -8 128 -8 77 44 c 128,-1,9
 26 96 26 96 26 172 c 256,10,11
 26 248 26 248 77 300.5 c 128,-1,12
 128 353 128 353 206 353 c 0,13,14
 303 353 303 353 354 276 c 1,15,16
 414 353 414 353 506 353 c 0,17,18
 660 353 660 353 663 160 c 1,19,-1
 386 160 l 1,20,21
 390 107 390 107 424.5 77 c 128,-1,22
 459 47 459 47 514 47 c 256,23,24
 569 47 569 47 642 73 c 1,0,-1
324 172 m 256,25,26
 324 226 324 226 291 262.5 c 128,-1,27
 258 299 258 299 206 299 c 256,28,29
 154 299 154 299 121 262.5 c 128,-1,30
 88 226 88 226 88 172 c 256,31,32
 88 118 88 118 121 81.5 c 128,-1,33
 154 45 154 45 206 45 c 256,34,35
 258 45 258 45 291 81.5 c 128,-1,36
 324 118 324 118 324 172 c 256,25,26
390 213 m 1,37,-1
 601 213 l 1,38,39
 596 253 596 253 568.5 277 c 128,-1,40
 541 301 541 301 500 301 c 0,41,42
 460 301 460 301 428.5 276.5 c 128,-1,43
 397 252 397 252 390 213 c 1,37,-1
EndSplineSet
EndChar
StartChar: florin
Encoding: 402 402 204
Width: 404
Flags: W
Fore
327 254 m 1,0,-1
 233 254 l 1,1,-1
 198 93 l 2,2,3
 163 -69 163 -69 38 -69 c 0,4,5
 -1 -69 -1 -69 -27 -44 c 1,6,-1
 -1 0 l 1,7,8
 23 -14 23 -14 48 -14 c 0,9,10
 113 -14 113 -14 138 98 c 2,11,-1
 172 254 l 1,12,-1
 118 254 l 1,13,-1
 128 306 l 1,14,-1
 184 306 l 1,15,-1
 187 322 l 2,16,17
 207 400 207 400 247 442 c 128,-1,18
 287 484 287 484 347 484 c 0,19,20
 386 484 386 484 412 459 c 1,21,-1
 386 415 l 1,22,23
 362 429 362 429 337 429 c 0,24,25
 271 429 271 429 247 317 c 2,26,-1
 244 306 l 1,27,-1
 337 306 l 1,28,-1
 327 254 l 1,0,-1
EndSplineSet
EndChar
StartChar: circumflex
Encoding: 710 710 205
Width: 218
Flags: W
Fore
204 385 m 1,0,-1
 150 385 l 1,1,-1
 109 456 l 1,2,-1
 69 385 l 1,3,-1
 14 385 l 1,4,-1
 92 500 l 1,5,-1
 127 500 l 1,6,-1
 204 385 l 1,0,-1
EndSplineSet
EndChar
StartChar: caron
Encoding: 711 711 206
Width: 308
Flags: W
Fore
171 385 m 1,0,-1
 136 385 l 1,1,-1
 59 500 l 1,2,-1
 113 500 l 1,3,-1
 154 429 l 1,4,-1
 194 500 l 1,5,-1
 249 500 l 1,6,-1
 171 385 l 1,0,-1
EndSplineSet
EndChar
StartChar: breve
Encoding: 728 728 207
Width: 342
Flags: W
Fore
289 491 m 1,0,1
 279 434 279 434 249 406.5 c 128,-1,2
 219 379 219 379 171 379 c 256,3,4
 123 379 123 379 93 406.5 c 128,-1,5
 63 434 63 434 53 491 c 1,6,-1
 107 491 l 1,7,8
 112 466 112 466 127.5 446.5 c 128,-1,9
 143 427 143 427 171 427 c 256,10,11
 199 427 199 427 215 446.5 c 128,-1,12
 231 466 231 466 236 491 c 1,13,-1
 289 491 l 1,0,1
EndSplineSet
EndChar
StartChar: dotaccent
Encoding: 729 729 208
Width: 193
Flags: W
Fore
140 545 m 0,0,1
 140 526 140 526 127 513.5 c 128,-1,2
 114 501 114 501 97 501 c 256,3,4
 80 501 80 501 66.5 513.5 c 128,-1,5
 53 526 53 526 53 545 c 0,6,7
 53 563 53 563 66.5 576 c 128,-1,8
 80 589 80 589 97 589 c 256,9,10
 114 589 114 589 127 576 c 128,-1,11
 140 563 140 563 140 545 c 0,0,1
EndSplineSet
EndChar
StartChar: ring
Encoding: 730 730 209
Width: 266
Flags: W
Fore
213 464 m 256,0,1
 213 431 213 431 189.5 407.5 c 128,-1,2
 166 384 166 384 133 384 c 256,3,4
 100 384 100 384 76.5 407.5 c 128,-1,5
 53 431 53 431 53 464 c 256,6,7
 53 497 53 497 76.5 520.5 c 128,-1,8
 100 544 100 544 133 544 c 256,9,10
 166 544 166 544 189.5 520.5 c 128,-1,11
 213 497 213 497 213 464 c 256,0,1
171 464 m 256,12,13
 171 480 171 480 160 491 c 128,-1,14
 149 502 149 502 133 502 c 256,15,16
 117 502 117 502 105.5 491 c 128,-1,17
 94 480 94 480 94 464 c 256,18,19
 94 448 94 448 105.5 436.5 c 128,-1,20
 117 425 117 425 133 425 c 256,21,22
 149 425 149 425 160 436.5 c 128,-1,23
 171 448 171 448 171 464 c 256,12,13
EndSplineSet
EndChar
StartChar: ogonek
Encoding: 731 731 210
Width: 255
Flags: W
Fore
202 -136 m 1,0,1
 161 -153 161 -153 129 -153 c 0,2,3
 90 -153 90 -153 71.5 -130 c 128,-1,4
 53 -107 53 -107 53 -76 c 0,5,6
 53 -57 53 -57 58.5 -33 c 128,-1,7
 64 -9 64 -9 72 19 c 1,8,-1
 131 19 l 1,9,10
 110 -34 110 -34 110 -62 c 0,11,12
 110 -94 110 -94 138 -97 c 0,13,14
 149 -97 149 -97 166.5 -91.5 c 128,-1,15
 184 -86 184 -86 202 -78 c 1,16,-1
 202 -136 l 1,0,1
EndSplineSet
EndChar
StartChar: tilde
Encoding: 732 732 211
Width: 259
Flags: W
Fore
228 443 m 1,0,1
 227 408 227 408 212.5 387.5 c 128,-1,2
 198 367 198 367 169 367 c 0,3,4
 161 367 161 367 149.5 371.5 c 128,-1,5
 138 376 138 376 125.5 381.5 c 128,-1,6
 113 387 113 387 102 391.5 c 128,-1,7
 91 396 91 396 84 396 c 0,8,9
 76 396 76 396 74 388.5 c 128,-1,10
 72 381 72 381 72 372 c 1,11,-1
 28 372 l 1,12,13
 28 402 28 402 42.5 422.5 c 128,-1,14
 57 443 57 443 84 443 c 0,15,16
 93 443 93 443 104.5 439 c 128,-1,17
 116 435 116 435 127 429.5 c 128,-1,18
 138 424 138 424 148.5 420 c 128,-1,19
 159 416 159 416 166 416 c 0,20,21
 185 416 185 416 185 443 c 1,22,-1
 228 443 l 1,0,1
EndSplineSet
EndChar
StartChar: hungarumlaut
Encoding: 733 733 212
Width: 359
Flags: W
Fore
221 320 m 1,0,-1
 179 320 l 1,1,-1
 242 491 l 1,2,-1
 306 491 l 1,3,-1
 221 320 l 1,0,-1
95 320 m 1,4,-1
 53 320 l 1,5,-1
 116 491 l 1,6,-1
 179 491 l 1,7,-1
 95 320 l 1,4,-1
EndSplineSet
EndChar
StartChar: uni0E01
Encoding: 3585 3585 214
Width: 391
Flags: W
Fore
340 0 m 1,0,-1
 278 0 l 1,1,-1
 278 265 l 2,2,3
 278 306 278 306 253 330 c 128,-1,4
 228 354 228 354 187 354 c 0,5,6
 127 354 127 354 96 303 c 1,7,8
 143 294 143 294 163 258 c 1,9,10
 112 228 112 228 112 186 c 2,11,-1
 112 0 l 1,12,-1
 50 0 l 1,13,-1
 50 190 l 2,14,15
 50 232 50 232 91 256 c 1,16,17
 66 273 66 273 30 268 c 1,18,19
 32 330 32 330 78 370 c 0,20,21
 120 407 120 407 185 407 c 0,22,23
 257 407 257 407 298.5 368.5 c 128,-1,24
 340 330 340 330 340 264 c 2,25,-1
 340 0 l 1,0,-1
EndSplineSet
EndChar
StartChar: uni0E02
Encoding: 3586 3586 215
Width: 415
Flags: W
Fore
364 94 m 2,0,1
 364 45 364 45 333.5 18.5 c 128,-1,2
 303 -8 303 -8 253 -8 c 256,3,4
 203 -8 203 -8 172.5 18.5 c 128,-1,5
 142 45 142 45 142 94 c 2,6,-1
 142 159 l 2,7,8
 142 188 142 188 168.5 236.5 c 128,-1,9
 195 285 195 285 195 313 c 0,10,11
 195 336 195 336 179 351 c 128,-1,12
 163 366 163 366 142 366 c 0,13,14
 110 366 110 366 99 353 c 1,15,16
 129 352 129 352 147.5 334 c 128,-1,17
 166 316 166 316 166 288 c 0,18,19
 166 258 166 258 145 237.5 c 128,-1,20
 124 217 124 217 95 217 c 0,21,22
 61 217 61 217 40.5 241.5 c 128,-1,23
 20 266 20 266 20 301 c 0,24,25
 20 347 20 347 56.5 377 c 128,-1,26
 93 407 93 407 141 407 c 0,27,28
 191 407 191 407 222.5 383 c 128,-1,29
 254 359 254 359 254 313 c 0,30,31
 254 283 254 283 229 229 c 128,-1,32
 204 175 204 175 204 153 c 2,33,-1
 204 80 l 2,34,35
 204 63 204 63 219.5 54 c 128,-1,36
 235 45 235 45 253 45 c 0,37,38
 272 45 272 45 287 54.5 c 128,-1,39
 302 64 302 64 302 80 c 2,40,-1
 302 399 l 1,41,-1
 364 399 l 1,42,-1
 364 94 l 2,0,1
126 286 m 256,43,44
 126 299 126 299 117 308 c 128,-1,45
 108 317 108 317 95 317 c 256,46,47
 82 317 82 317 73 308 c 128,-1,48
 64 299 64 299 64 286 c 256,49,50
 64 273 64 273 73 264 c 128,-1,51
 82 255 82 255 95 255 c 256,52,53
 108 255 108 255 117 264 c 128,-1,54
 126 273 126 273 126 286 c 256,43,44
EndSplineSet
EndChar
StartChar: uni0E03
Encoding: 3587 3587 216
Width: 431
Flags: W
Fore
380 94 m 2,0,1
 380 45 380 45 349.5 18.5 c 128,-1,2
 319 -8 319 -8 269 -8 c 256,3,4
 219 -8 219 -8 188.5 18.5 c 128,-1,5
 158 45 158 45 158 94 c 2,6,-1
 158 139 l 2,7,8
 158 171 158 171 191.5 223.5 c 128,-1,9
 225 276 225 276 225 306 c 0,10,11
 220 344 220 344 193 359 c 1,12,-1
 156 321 l 1,13,-1
 112 361 l 1,14,15
 102 355 102 355 90.5 339.5 c 128,-1,16
 79 324 79 324 78 312 c 1,17,18
 93 315 93 315 99 315 c 0,19,20
 129 315 129 315 150 294 c 128,-1,21
 171 273 171 273 171 243 c 256,22,23
 171 213 171 213 150.5 192 c 128,-1,24
 130 171 130 171 99 171 c 0,25,26
 64 171 64 171 42 200 c 128,-1,27
 20 229 20 229 20 263 c 0,28,29
 20 316 20 316 48.5 359.5 c 128,-1,30
 77 403 77 403 122 407 c 1,31,-1
 155 373 l 1,32,-1
 186 408 l 1,33,34
 276 388 276 388 276 302 c 0,35,36
 276 271 276 271 248 223 c 128,-1,37
 220 175 220 175 220 147 c 2,38,-1
 220 80 l 2,39,40
 220 63 220 63 235.5 54 c 128,-1,41
 251 45 251 45 269 45 c 0,42,43
 288 45 288 45 303 54.5 c 128,-1,44
 318 64 318 64 318 80 c 2,45,-1
 318 399 l 1,46,-1
 380 399 l 1,47,-1
 380 94 l 2,0,1
130 243 m 256,48,49
 130 256 130 256 121 265 c 128,-1,50
 112 274 112 274 99 274 c 256,51,52
 86 274 86 274 77 265 c 128,-1,53
 68 256 68 256 68 243 c 256,54,55
 68 230 68 230 77 221 c 128,-1,56
 86 212 86 212 99 212 c 256,57,58
 112 212 112 212 121 221 c 128,-1,59
 130 230 130 230 130 243 c 256,48,49
EndSplineSet
EndChar
StartChar: uni0E04
Encoding: 3588 3588 217
Width: 403
Flags: W
Fore
352 0 m 1,0,-1
 290 0 l 1,1,-1
 290 273 l 2,2,3
 290 309 290 309 259 333 c 0,4,5
 230 354 230 354 192 354 c 0,6,7
 147 354 147 354 120 323.5 c 128,-1,8
 93 293 93 293 93 253 c 0,9,10
 93 242 93 242 97.5 216.5 c 128,-1,11
 102 191 102 191 102 172 c 2,12,-1
 102 144 l 1,13,14
 102 145 102 145 105.5 165.5 c 128,-1,15
 109 186 109 186 110 197 c 1,16,17
 120 239 120 239 141 267 c 0,18,19
 167 303 167 303 201 303 c 0,20,21
 228 303 228 303 248 284 c 128,-1,22
 268 265 268 265 268 238 c 0,23,24
 268 212 268 212 248 192.5 c 128,-1,25
 228 173 228 173 201 173 c 0,26,27
 176 173 176 173 156 191 c 1,28,29
 126 100 126 100 126 0 c 1,30,-1
 64 0 l 1,31,-1
 64 64 l 2,32,33
 64 111 64 111 47.5 166.5 c 128,-1,34
 31 222 31 222 31 254 c 0,35,36
 31 323 31 323 81 366 c 0,37,38
 128 407 128 407 197 407 c 0,39,40
 260 407 260 407 303 374 c 0,41,42
 352 336 352 336 352 271 c 2,43,-1
 352 0 l 1,0,-1
231 238 m 256,44,45
 231 251 231 251 222 260 c 128,-1,46
 213 269 213 269 200 269 c 256,47,48
 187 269 187 269 178.5 260 c 128,-1,49
 170 251 170 251 170 238 c 256,50,51
 170 225 170 225 178.5 216.5 c 128,-1,52
 187 208 187 208 200 208 c 256,53,54
 213 208 213 208 222 216.5 c 128,-1,55
 231 225 231 225 231 238 c 256,44,45
EndSplineSet
EndChar
StartChar: uni0E05
Encoding: 3589 3589 218
Width: 403
Flags: W
Fore
352 0 m 1,0,-1
 290 0 l 1,1,-1
 290 273 l 2,2,3
 290 334 290 334 263 353 c 1,4,-1
 201 314 l 1,5,-1
 132 353 l 1,6,7
 93 326 93 326 93 262 c 0,8,9
 93 243 93 243 98.5 208.5 c 128,-1,10
 104 174 104 174 105 141 c 2,11,-1
 105 132 l 1,12,13
 105 134 105 134 107.5 147.5 c 128,-1,14
 110 161 110 161 112 176 c 0,15,16
 119 218 119 218 139 246 c 0,17,18
 164 282 164 282 201 282 c 0,19,20
 228 282 228 282 247.5 263 c 128,-1,21
 267 244 267 244 267 217 c 256,22,23
 267 190 267 190 247.5 171 c 128,-1,24
 228 152 228 152 201 152 c 0,25,26
 176 152 176 152 156 169 c 1,27,28
 126 80 126 80 126 0 c 1,29,-1
 64 0 l 1,30,-1
 64 64 l 2,31,32
 64 113 64 113 47.5 171.5 c 128,-1,33
 31 230 31 230 31 259 c 0,34,35
 31 312 31 312 57.5 352.5 c 128,-1,36
 84 393 84 393 134 410 c 1,37,-1
 201 371 l 1,38,-1
 272 410 l 1,39,40
 352 377 352 377 352 289 c 2,41,-1
 352 0 l 1,0,-1
231 216 m 256,42,43
 231 229 231 229 222 238 c 128,-1,44
 213 247 213 247 200 247 c 256,45,46
 187 247 187 247 178.5 238 c 128,-1,47
 170 229 170 229 170 216 c 256,48,49
 170 203 170 203 178.5 194.5 c 128,-1,50
 187 186 187 186 200 186 c 256,51,52
 213 186 213 186 222 194.5 c 128,-1,53
 231 203 231 203 231 216 c 256,42,43
EndSplineSet
EndChar
StartChar: uni0E06
Encoding: 3590 3590 219
Width: 453
Flags: W
Fore
402 0 m 1,0,-1
 345 0 l 1,1,2
 286 61 286 61 235 78 c 1,3,-1
 235 68 l 2,4,5
 235 36 235 36 211 14 c 128,-1,6
 187 -8 187 -8 154 -8 c 256,7,8
 121 -8 121 -8 97.5 15.5 c 128,-1,9
 74 39 74 39 74 73 c 0,10,11
 74 106 74 106 97.5 129.5 c 128,-1,12
 121 153 121 153 154 153 c 0,13,14
 161 153 161 153 166 152 c 1,15,16
 166 180 166 180 197 228 c 0,17,18
 226 273 226 273 226 303 c 0,19,20
 226 342 226 342 194 360 c 1,21,-1
 159 322 l 1,22,-1
 116 361 l 1,23,24
 105 356 105 356 94 340 c 128,-1,25
 83 324 83 324 81 311 c 1,26,27
 89 314 89 314 102 314 c 0,28,29
 132 314 132 314 153.5 293 c 128,-1,30
 175 272 175 272 175 243 c 0,31,32
 175 213 175 213 153.5 192 c 128,-1,33
 132 171 132 171 102 171 c 0,34,35
 67 171 67 171 45.5 197 c 128,-1,36
 24 223 24 223 24 266 c 0,37,38
 24 318 24 318 53 361.5 c 128,-1,39
 82 405 82 405 124 407 c 1,40,-1
 157 373 l 1,41,-1
 189 408 l 1,42,43
 279 386 279 386 279 308 c 0,44,45
 279 273 279 273 251 223.5 c 128,-1,46
 223 174 223 174 223 147 c 2,47,-1
 223 132 l 1,48,49
 282 111 282 111 340 66 c 1,50,-1
 340 399 l 1,51,-1
 402 399 l 1,52,-1
 402 0 l 1,0,-1
187 72 m 0,53,54
 187 86 187 86 177.5 95.5 c 128,-1,55
 168 105 168 105 154 105 c 0,56,57
 141 105 141 105 131 95.5 c 128,-1,58
 121 86 121 86 121 72 c 0,59,60
 121 59 121 59 131 49 c 128,-1,61
 141 39 141 39 154 39 c 0,62,63
 168 39 168 39 177.5 49 c 128,-1,64
 187 59 187 59 187 72 c 0,53,54
134 243 m 256,65,66
 134 256 134 256 125 265 c 128,-1,67
 116 274 116 274 103 274 c 256,68,69
 90 274 90 274 81 265 c 128,-1,70
 72 256 72 256 72 243 c 256,71,72
 72 230 72 230 81 221 c 128,-1,73
 90 212 90 212 103 212 c 256,74,75
 116 212 116 212 125 221 c 128,-1,76
 134 230 134 230 134 243 c 256,65,66
EndSplineSet
EndChar
StartChar: uni0E07
Encoding: 3591 3591 220
Width: 318
Flags: W
Fore
267 0 m 1,0,-1
 206 0 l 1,1,-1
 19 211 l 1,2,-1
 56 254 l 1,3,-1
 205 86 l 1,4,-1
 205 258 l 1,5,6
 202 257 202 257 186 257 c 0,7,8
 155 257 155 257 133.5 277.5 c 128,-1,9
 112 298 112 298 112 330 c 256,10,11
 112 362 112 362 134 384.5 c 128,-1,12
 156 407 156 407 186 407 c 0,13,14
 221 407 221 407 244 384.5 c 128,-1,15
 267 362 267 362 267 326 c 2,16,-1
 267 0 l 1,0,-1
220 332 m 256,17,18
 220 346 220 346 210 356 c 128,-1,19
 200 366 200 366 186 366 c 256,20,21
 172 366 172 366 162 356 c 128,-1,22
 152 346 152 346 152 332 c 256,23,24
 152 318 152 318 162 308 c 128,-1,25
 172 298 172 298 186 298 c 256,26,27
 200 298 200 298 210 308 c 128,-1,28
 220 318 220 318 220 332 c 256,17,18
EndSplineSet
EndChar
StartChar: uni0E08
Encoding: 3592 3592 221
Width: 390
Flags: W
Fore
339 70 m 2,0,1
 339 33 339 33 315 12.5 c 128,-1,2
 291 -8 291 -8 253 -8 c 0,3,4
 180 -8 180 -8 168 57 c 2,5,-1
 153 136 l 1,6,7
 142 132 142 132 128 132 c 0,8,9
 99 132 99 132 78 153 c 128,-1,10
 57 174 57 174 57 203 c 256,11,12
 57 232 57 232 78 253 c 128,-1,13
 99 274 99 274 128 274 c 0,14,15
 154 274 154 274 174 257.5 c 128,-1,16
 194 241 194 241 199 216 c 2,17,-1
 227 63 l 2,18,19
 230 45 230 45 252 45 c 0,20,21
 277 45 277 45 277 65 c 2,22,-1
 277 290 l 2,23,24
 277 323 277 323 246 340 c 0,25,26
 220 354 220 354 182 354 c 0,27,28
 96 354 96 354 79 305 c 1,29,-1
 19 305 l 1,30,31
 32 406 32 406 177 407 c 0,32,33
 244 407 244 407 287 382 c 0,34,35
 339 350 339 350 339 286 c 2,36,-1
 339 70 l 2,0,1
159 203 m 256,37,38
 159 216 159 216 150 225 c 128,-1,39
 141 234 141 234 128 234 c 256,40,41
 115 234 115 234 106 225 c 128,-1,42
 97 216 97 216 97 203 c 256,43,44
 97 190 97 190 106 181 c 128,-1,45
 115 172 115 172 128 172 c 256,46,47
 141 172 141 172 150 181 c 128,-1,48
 159 190 159 190 159 203 c 256,37,38
EndSplineSet
EndChar
StartChar: uni0E09
Encoding: 3593 3593 222
Width: 405
Flags: W
Fore
371 68 m 0,0,1
 371 36 371 36 349 14 c 128,-1,2
 327 -8 327 -8 295 -8 c 0,3,4
 266 -8 266 -8 244 11.5 c 128,-1,5
 222 31 222 31 220 60 c 1,6,7
 185 47 185 47 150 0 c 1,8,-1
 93 0 l 1,9,-1
 93 78 l 2,10,11
 93 106 93 106 103 116 c 1,12,13
 93 116 93 116 89 117 c 0,14,15
 34 129 34 129 34 184 c 0,16,17
 34 213 34 213 54.5 233 c 128,-1,18
 75 253 75 253 104 253 c 256,19,20
 133 253 133 253 153 233 c 128,-1,21
 173 213 173 213 173 184 c 0,22,23
 173 170 173 170 164 146.5 c 128,-1,24
 155 123 155 123 155 108 c 2,25,-1
 155 66 l 1,26,27
 171 82 171 82 215 106.5 c 128,-1,28
 259 131 259 131 277 150 c 0,29,30
 292 170 292 170 292 197 c 2,31,-1
 292 289 l 2,32,33
 292 322 292 322 260 340 c 0,34,35
 233 354 233 354 194 354 c 0,36,37
 152 354 152 354 123 338 c 0,38,39
 88 319 88 319 85 282 c 1,40,-1
 25 282 l 1,41,42
 40 407 40 407 193 407 c 0,43,44
 259 407 259 407 302 381 c 0,45,46
 354 349 354 349 354 285 c 2,47,-1
 354 190 l 2,48,49
 354 152 354 152 332 134 c 1,50,51
 371 112 371 112 371 68 c 0,0,1
133 184 m 256,52,53
 133 197 133 197 124.5 205.5 c 128,-1,54
 116 214 116 214 103 214 c 256,55,56
 90 214 90 214 81.5 205.5 c 128,-1,57
 73 197 73 197 73 184 c 256,58,59
 73 171 73 171 81.5 162.5 c 128,-1,60
 90 154 90 154 103 154 c 256,61,62
 116 154 116 154 124.5 162.5 c 128,-1,63
 133 171 133 171 133 184 c 256,52,53
327 67 m 256,64,65
 327 80 327 80 318 89 c 128,-1,66
 309 98 309 98 296 98 c 256,67,68
 283 98 283 98 274 89 c 128,-1,69
 265 80 265 80 265 67 c 256,70,71
 265 54 265 54 274 45 c 128,-1,72
 283 36 283 36 296 36 c 256,73,74
 309 36 309 36 318 45 c 128,-1,75
 327 54 327 54 327 67 c 256,64,65
EndSplineSet
EndChar
StartChar: uni0E0A
Encoding: 3594 3594 223
Width: 415
Flags: W
Fore
364 94 m 2,0,1
 364 45 364 45 333.5 18.5 c 128,-1,2
 303 -8 303 -8 253 -8 c 256,3,4
 203 -8 203 -8 172.5 18.5 c 128,-1,5
 142 45 142 45 142 94 c 2,6,-1
 142 159 l 2,7,8
 142 188 142 188 168.5 236.5 c 128,-1,9
 195 285 195 285 195 313 c 0,10,11
 195 336 195 336 179 351 c 128,-1,12
 163 366 163 366 142 366 c 0,13,14
 110 366 110 366 99 353 c 1,15,16
 129 352 129 352 147.5 334 c 128,-1,17
 166 316 166 316 166 288 c 0,18,19
 166 258 166 258 145 237.5 c 128,-1,20
 124 217 124 217 95 217 c 0,21,22
 61 217 61 217 40.5 241.5 c 128,-1,23
 20 266 20 266 20 301 c 0,24,25
 20 347 20 347 56.5 377 c 128,-1,26
 93 407 93 407 141 407 c 0,27,28
 191 407 191 407 222.5 383 c 128,-1,29
 254 359 254 359 254 313 c 0,30,31
 254 283 254 283 229 229 c 128,-1,32
 204 175 204 175 204 153 c 2,33,-1
 204 80 l 2,34,35
 204 63 204 63 219.5 54 c 128,-1,36
 235 45 235 45 253 45 c 0,37,38
 272 45 272 45 287 54.5 c 128,-1,39
 302 64 302 64 302 80 c 2,40,-1
 302 245 l 2,41,42
 302 282 302 282 273 291 c 1,43,44
 277 309 277 309 274 326 c 1,45,46
 325 345 325 345 325 422 c 1,47,-1
 387 422 l 1,48,49
 380 345 380 345 334 309 c 1,50,51
 364 285 364 285 364 246 c 2,52,-1
 364 94 l 2,0,1
126 286 m 256,53,54
 126 299 126 299 117 308 c 128,-1,55
 108 317 108 317 95 317 c 256,56,57
 82 317 82 317 73 308 c 128,-1,58
 64 299 64 299 64 286 c 256,59,60
 64 273 64 273 73 264 c 128,-1,61
 82 255 82 255 95 255 c 256,62,63
 108 255 108 255 117 264 c 128,-1,64
 126 273 126 273 126 286 c 256,53,54
EndSplineSet
EndChar
StartChar: uni0E0B
Encoding: 3595 3595 224
Width: 431
Flags: W
Fore
380 94 m 2,0,1
 380 45 380 45 349.5 18.5 c 128,-1,2
 319 -8 319 -8 269 -8 c 256,3,4
 219 -8 219 -8 188.5 18.5 c 128,-1,5
 158 45 158 45 158 94 c 2,6,-1
 158 139 l 2,7,8
 158 171 158 171 191.5 223.5 c 128,-1,9
 225 276 225 276 225 306 c 0,10,11
 220 344 220 344 193 359 c 1,12,-1
 156 321 l 1,13,-1
 112 361 l 1,14,15
 102 355 102 355 90.5 339.5 c 128,-1,16
 79 324 79 324 78 312 c 1,17,18
 93 315 93 315 99 315 c 0,19,20
 129 315 129 315 150 294 c 128,-1,21
 171 273 171 273 171 243 c 256,22,23
 171 213 171 213 150.5 192 c 128,-1,24
 130 171 130 171 99 171 c 0,25,26
 64 171 64 171 42 200 c 128,-1,27
 20 229 20 229 20 263 c 0,28,29
 20 316 20 316 48.5 359.5 c 128,-1,30
 77 403 77 403 122 407 c 1,31,-1
 155 373 l 1,32,-1
 186 408 l 1,33,34
 276 388 276 388 276 302 c 0,35,36
 276 271 276 271 248 223 c 128,-1,37
 220 175 220 175 220 147 c 2,38,-1
 220 80 l 2,39,40
 220 63 220 63 235.5 54 c 128,-1,41
 251 45 251 45 269 45 c 0,42,43
 288 45 288 45 303 54.5 c 128,-1,44
 318 64 318 64 318 80 c 2,45,-1
 318 245 l 2,46,47
 318 282 318 282 289 291 c 1,48,49
 293 309 293 309 290 326 c 1,50,51
 341 345 341 345 341 422 c 1,52,-1
 403 422 l 1,53,54
 396 345 396 345 350 309 c 1,55,56
 380 285 380 285 380 246 c 2,57,-1
 380 94 l 2,0,1
130 243 m 256,58,59
 130 256 130 256 121 265 c 128,-1,60
 112 274 112 274 99 274 c 256,61,62
 86 274 86 274 77 265 c 128,-1,63
 68 256 68 256 68 243 c 256,64,65
 68 230 68 230 77 221 c 128,-1,66
 86 212 86 212 99 212 c 256,67,68
 112 212 112 212 121 221 c 128,-1,69
 130 230 130 230 130 243 c 256,58,59
EndSplineSet
EndChar
StartChar: uni0E0C
Encoding: 3596 3596 225
Width: 565
Flags: W
Fore
514 0 m 1,0,-1
 459 0 l 1,1,2
 436 49 436 49 377 78 c 1,3,4
 379 64 379 64 379 61 c 0,5,6
 379 29 379 29 356.5 10.5 c 128,-1,7
 334 -8 334 -8 305 -8 c 0,8,9
 274 -8 274 -8 251.5 14 c 128,-1,10
 229 36 229 36 229 68 c 0,11,12
 229 114 229 114 269 137 c 1,13,-1
 269 265 l 2,14,15
 269 304 269 304 244.5 328.5 c 128,-1,16
 220 353 220 353 184 353 c 0,17,18
 123 353 123 353 97 303 c 1,19,20
 143 294 143 294 163 258 c 1,21,22
 112 230 112 230 112 186 c 2,23,-1
 112 143 l 1,24,25
 144 143 144 143 166 121 c 128,-1,26
 188 99 188 99 188 67 c 0,27,28
 188 36 188 36 166 14 c 128,-1,29
 144 -8 144 -8 112 -8 c 0,30,31
 81 -8 81 -8 59 14 c 128,-1,32
 37 36 37 36 37 67 c 0,33,34
 37 93 37 93 50 110 c 1,35,-1
 50 190 l 2,36,37
 50 232 50 232 91 256 c 1,38,39
 66 273 66 273 30 268 c 1,40,41
 32 330 32 330 76 370 c 0,42,43
 117 407 117 407 181 407 c 0,44,45
 248 407 248 407 289.5 369 c 128,-1,46
 331 331 331 331 331 264 c 2,47,-1
 331 142 l 1,48,49
 410 117 410 117 452 72 c 1,50,-1
 452 399 l 1,51,-1
 514 399 l 1,52,-1
 514 0 l 1,0,-1
145 67 m 256,53,54
 145 81 145 81 135 91 c 128,-1,55
 125 101 125 101 111 101 c 256,56,57
 97 101 97 101 87 91 c 128,-1,58
 77 81 77 81 77 67 c 256,59,60
 77 53 77 53 87 43 c 128,-1,61
 97 33 97 33 111 33 c 256,62,63
 125 33 125 33 135 43 c 128,-1,64
 145 53 145 53 145 67 c 256,53,54
339 67 m 256,65,66
 339 81 339 81 329 91 c 128,-1,67
 319 101 319 101 305 101 c 256,68,69
 291 101 291 101 281 91 c 128,-1,70
 271 81 271 81 271 67 c 256,71,72
 271 53 271 53 281 43 c 128,-1,73
 291 33 291 33 305 33 c 256,74,75
 319 33 319 33 329 43 c 128,-1,76
 339 53 339 53 339 67 c 256,65,66
EndSplineSet
EndChar
StartChar: uni0E0D
Encoding: 3597 3597 226
Width: 565
Flags: W
Fore
520 -40 m 1,0,1
 520 -114 520 -114 487 -158 c 0,2,3
 450 -207 450 -207 374 -207 c 0,4,5
 325 -207 325 -207 290 -182 c 0,6,7
 250 -153 250 -153 250 -106 c 0,8,9
 250 -76 250 -76 270.5 -55.5 c 128,-1,10
 291 -35 291 -35 321 -35 c 0,11,12
 350 -35 350 -35 369.5 -56 c 128,-1,13
 389 -77 389 -77 389 -107 c 0,14,15
 389 -146 389 -146 358 -157 c 1,16,17
 372 -159 372 -159 377 -159 c 0,18,19
 461 -159 461 -159 466 -40 c 1,20,-1
 520 -40 l 1,0,1
514 94 m 2,21,22
 514 44 514 44 475 16 c 0,23,24
 441 -8 441 -8 390 -8 c 0,25,26
 338 -8 338 -8 306 16 c 0,27,28
 269 43 269 43 269 94 c 2,29,-1
 269 265 l 2,30,31
 269 304 269 304 244.5 328.5 c 128,-1,32
 220 353 220 353 184 353 c 0,33,34
 123 353 123 353 97 303 c 1,35,36
 140 295 140 295 163 258 c 1,37,38
 112 230 112 230 112 186 c 2,39,-1
 112 139 l 1,40,41
 119 143 119 143 131 143 c 0,42,43
 162 143 162 143 183.5 121.5 c 128,-1,44
 205 100 205 100 205 68 c 256,45,46
 205 36 205 36 183 14 c 128,-1,47
 161 -8 161 -8 129 -8 c 0,48,49
 96 -8 96 -8 73 15 c 128,-1,50
 50 38 50 38 50 73 c 2,51,-1
 50 190 l 2,52,53
 50 232 50 232 91 256 c 1,54,55
 66 273 66 273 30 268 c 1,56,57
 32 330 32 330 76 370 c 0,58,59
 117 407 117 407 181 407 c 0,60,61
 248 407 248 407 289.5 369 c 128,-1,62
 331 331 331 331 331 264 c 2,63,-1
 331 85 l 2,64,65
 331 64 331 64 349 54.5 c 128,-1,66
 367 45 367 45 391 45 c 0,67,68
 414 45 414 45 433 54.5 c 128,-1,69
 452 64 452 64 452 85 c 2,70,-1
 452 399 l 1,71,-1
 514 399 l 1,72,-1
 514 94 l 2,21,22
352 -105 m 256,73,74
 352 -92 352 -92 343 -83 c 128,-1,75
 334 -74 334 -74 320 -74 c 256,76,77
 306 -74 306 -74 297.5 -83 c 128,-1,78
 289 -92 289 -92 289 -105 c 256,79,80
 289 -118 289 -118 297.5 -127.5 c 128,-1,81
 306 -137 306 -137 320 -137 c 256,82,83
 334 -137 334 -137 343 -127.5 c 128,-1,84
 352 -118 352 -118 352 -105 c 256,73,74
165 67 m 256,85,86
 165 81 165 81 155 91 c 128,-1,87
 145 101 145 101 131 101 c 256,88,89
 117 101 117 101 107 91 c 128,-1,90
 97 81 97 81 97 67 c 256,91,92
 97 53 97 53 107 43 c 128,-1,93
 117 33 117 33 131 33 c 256,94,95
 145 33 145 33 155 43 c 128,-1,96
 165 53 165 53 165 67 c 256,85,86
EndSplineSet
Substitution: 0 65534 'L055' uni0E0D.alt1
Substitution: 0 65534 'L055' uni0E0D.alt1
EndChar
StartChar: uni0E0E
Encoding: 3598 3598 227
AltUni: 63259
Width: 425
Flags: W
Fore
374 -230 m 1,0,-1
 311 -230 l 1,1,2
 298 -177 298 -177 219 -146 c 1,3,4
 212 -234 212 -234 141 -234 c 0,5,6
 108 -234 108 -234 84.5 -213 c 128,-1,7
 61 -192 61 -192 61 -160 c 0,8,9
 61 -89 61 -89 155 -89 c 0,10,11
 169 -89 169 -89 178 -90 c 1,12,13
 183 -71 183 -71 189 -62 c 0,14,15
 199 -46 199 -46 220 -33 c 1,16,-1
 261 -55 l 1,17,18
 230 -72 230 -72 224 -100 c 1,19,20
 281 -120 281 -120 312 -150 c 1,21,-1
 312 265 l 2,22,23
 312 305 312 305 285.5 329.5 c 128,-1,24
 259 354 259 354 219 354 c 0,25,26
 158 354 158 354 130 303 c 1,27,28
 179 293 179 293 197 258 c 1,29,30
 170 243 170 243 161 233 c 0,31,32
 148 217 148 217 148 190 c 0,33,34
 148 168 148 168 153 126.5 c 128,-1,35
 158 85 158 85 158 68 c 0,36,37
 158 36 158 36 136.5 14 c 128,-1,38
 115 -8 115 -8 84 -8 c 0,39,40
 52 -8 52 -8 30 14 c 128,-1,41
 8 36 8 36 8 68 c 0,42,43
 8 99 8 99 30 121 c 128,-1,44
 52 143 52 143 82 143 c 0,45,46
 94 143 94 143 97 140 c 1,47,-1
 91 202 l 2,48,49
 91 237 91 237 125 256 c 1,50,51
 98 273 98 273 64 268 c 1,52,53
 65 330 65 330 110 370 c 0,54,55
 153 407 153 407 218 407 c 0,56,57
 288 407 288 407 331 368 c 128,-1,58
 374 329 374 329 374 264 c 2,59,-1
 374 -230 l 1,0,-1
173 -135 m 1,60,61
 164 -132 164 -132 149 -132 c 0,62,63
 108 -132 108 -132 107 -156 c 0,64,65
 106 -188 106 -188 139 -188 c 0,66,67
 158 -186 158 -186 166 -173 c 128,-1,68
 174 -160 174 -160 173 -135 c 1,60,61
118 68 m 256,69,70
 118 82 118 82 108 92 c 128,-1,71
 98 102 98 102 84 102 c 256,72,73
 70 102 70 102 60 92 c 128,-1,74
 50 82 50 82 50 68 c 256,75,76
 50 54 50 54 60 44 c 128,-1,77
 70 34 70 34 84 34 c 256,78,79
 98 34 98 34 108 44 c 128,-1,80
 118 54 118 54 118 68 c 256,69,70
EndSplineSet
Substitution: 0 65534 'L055' uni0E0E.alt1
Substitution: 0 65534 'L055' uni0E0E.alt1
EndChar
StartChar: uni0E0F
Encoding: 3599 3599 228
AltUni: 63260
Width: 425
Flags: W
Fore
126 -137 m 1,0,1
 116 -132 116 -132 98 -132 c 0,2,3
 66 -132 66 -132 66 -159 c 0,4,5
 66 -184 66 -184 92 -184 c 0,6,7
 126 -184 126 -184 126 -137 c 1,0,1
118 68 m 256,8,9
 118 82 118 82 108 92 c 128,-1,10
 98 102 98 102 84 102 c 256,11,12
 70 102 70 102 60 92 c 128,-1,13
 50 82 50 82 50 68 c 256,14,15
 50 54 50 54 60 44 c 128,-1,16
 70 34 70 34 84 34 c 256,17,18
 98 34 98 34 108 44 c 128,-1,19
 118 54 118 54 118 68 c 256,8,9
374 -231 m 1,20,-1
 318 -231 l 1,21,-1
 266 -163 l 1,22,-1
 217 -231 l 1,23,-1
 171 -168 l 1,24,25
 167 -196 167 -196 145 -215.5 c 128,-1,26
 123 -235 123 -235 97 -235 c 0,27,28
 64 -235 64 -235 42 -213.5 c 128,-1,29
 20 -192 20 -192 20 -160 c 0,30,31
 20 -86 20 -86 105 -86 c 0,32,33
 124 -86 124 -86 132 -89 c 1,34,35
 144 -52 144 -52 184 -31 c 1,36,-1
 219 -73 l 1,37,38
 182 -83 182 -83 178 -114 c 1,39,-1
 217 -162 l 1,40,-1
 265 -101 l 1,41,-1
 312 -155 l 1,42,-1
 312 265 l 2,43,44
 312 305 312 305 285.5 329.5 c 128,-1,45
 259 354 259 354 219 354 c 0,46,47
 158 354 158 354 130 303 c 1,48,49
 179 293 179 293 197 258 c 1,50,51
 170 243 170 243 161 233 c 0,52,53
 148 217 148 217 148 190 c 0,54,55
 148 168 148 168 153 126.5 c 128,-1,56
 158 85 158 85 158 68 c 0,57,58
 158 36 158 36 136.5 14 c 128,-1,59
 115 -8 115 -8 84 -8 c 0,60,61
 52 -8 52 -8 30 14 c 128,-1,62
 8 36 8 36 8 68 c 0,63,64
 8 99 8 99 30 121 c 128,-1,65
 52 143 52 143 82 143 c 0,66,67
 94 143 94 143 97 140 c 1,68,-1
 91 202 l 2,69,70
 91 237 91 237 125 256 c 1,71,72
 98 273 98 273 64 268 c 1,73,74
 65 330 65 330 110 370 c 0,75,76
 153 407 153 407 218 407 c 0,77,78
 288 407 288 407 331 368 c 128,-1,79
 374 329 374 329 374 264 c 2,80,-1
 374 -231 l 1,20,-1
EndSplineSet
Substitution: 0 65534 'L055' uni0E0F.alt1
Substitution: 0 65534 'L055' uni0E0F.alt1
EndChar
StartChar: uni0E10
Encoding: 3600 3600 229
Width: 372
Flags: W
Fore
86 -137 m 1,0,1
 73 -132 73 -132 63 -132 c 0,2,3
 25 -132 25 -132 25 -158 c 0,4,5
 25 -183 25 -183 51 -183 c 0,6,7
 86 -183 86 -183 86 -137 c 1,0,1
314 -163 m 2,8,9
 314 -230 314 -230 247 -230 c 2,10,-1
 165 -230 l 1,11,-1
 121 -170 l 1,12,13
 119 -194 119 -194 100 -211 c 128,-1,14
 81 -228 81 -228 57 -228 c 0,15,16
 24 -228 24 -228 5 -208 c 128,-1,17
 -14 -188 -14 -188 -14 -157 c 256,18,19
 -14 -126 -14 -126 7 -106.5 c 128,-1,20
 28 -87 28 -87 63 -87 c 0,21,22
 83 -87 83 -87 91 -92 c 1,23,24
 94 -59 94 -59 127 -41 c 1,25,-1
 158 -59 l 1,26,27
 128 -73 128 -73 128 -115 c 1,28,-1
 177 -181 l 1,29,-1
 229 -181 l 2,30,31
 261 -181 261 -181 261 -164 c 2,32,-1
 261 -151 l 1,33,-1
 249 -151 l 2,34,35
 222 -151 222 -151 203.5 -134.5 c 128,-1,36
 185 -118 185 -118 185 -94 c 0,37,38
 185 -71 185 -71 203.5 -54 c 128,-1,39
 222 -37 222 -37 249 -37 c 0,40,41
 275 -37 275 -37 294.5 -54 c 128,-1,42
 314 -71 314 -71 314 -94 c 2,43,-1
 314 -163 l 2,8,9
314 83 m 2,44,45
 314 -8 314 -8 219 -8 c 0,46,47
 127 -8 127 -8 127 78 c 2,48,-1
 127 111 l 1,49,50
 119 109 119 109 113 109 c 0,51,52
 84 109 84 109 65 128.5 c 128,-1,53
 46 148 46 148 46 176 c 0,54,55
 46 205 46 205 67.5 224 c 128,-1,56
 89 243 89 243 116 243 c 0,57,58
 146 243 146 243 167.5 224.5 c 128,-1,59
 189 206 189 206 189 177 c 2,60,-1
 189 80 l 2,61,62
 189 44 189 44 220 44 c 0,63,64
 252 44 252 44 252 80 c 2,65,-1
 252 224 l 2,66,67
 252 245 252 245 158 266 c 0,68,69
 77 283 77 283 34 283 c 1,70,71
 40 347 40 347 81 380 c 0,72,73
 115 407 115 407 165 407 c 0,74,75
 184 407 184 407 221.5 397 c 128,-1,76
 259 387 259 387 280 387 c 0,77,78
 295 387 295 387 299 411 c 1,79,-1
 350 398 l 1,80,81
 332 329 332 329 277 329 c 0,82,83
 258 329 258 329 221.5 341.5 c 128,-1,84
 185 354 185 354 165 354 c 0,85,86
 150 354 150 354 130.5 346 c 128,-1,87
 111 338 111 338 105 327 c 1,88,89
 220 308 220 308 275 283 c 0,90,91
 314 265 314 265 314 230 c 2,92,-1
 314 83 l 2,44,45
142 176 m 256,93,94
 142 188 142 188 133.5 196.5 c 128,-1,95
 125 205 125 205 113 205 c 256,96,97
 101 205 101 205 92.5 196.5 c 128,-1,98
 84 188 84 188 84 176 c 256,99,100
 84 164 84 164 92.5 155.5 c 128,-1,101
 101 147 101 147 113 147 c 256,102,103
 125 147 125 147 133.5 155.5 c 128,-1,104
 142 164 142 164 142 176 c 256,93,94
270 -94 m 256,105,106
 270 -85 270 -85 263.5 -79 c 128,-1,107
 257 -73 257 -73 247 -73 c 256,108,109
 237 -73 237 -73 231 -79 c 128,-1,110
 225 -85 225 -85 225 -94 c 256,111,112
 225 -103 225 -103 231 -109.5 c 128,-1,113
 237 -116 237 -116 247 -116 c 256,114,115
 257 -116 257 -116 263.5 -109.5 c 128,-1,116
 270 -103 270 -103 270 -94 c 256,105,106
EndSplineSet
Substitution: 0 65534 'L055' uni0E10.alt1
Substitution: 0 65534 'L055' uni0E10.alt1
EndChar
StartChar: uni0E11
Encoding: 3601 3601 230
Width: 492
Flags: W
Fore
441 0 m 1,0,-1
 379 0 l 1,1,-1
 379 321 l 2,2,3
 379 348 379 348 363 348 c 0,4,5
 349 348 349 348 344 334 c 2,6,-1
 227 0 l 1,7,-1
 157 0 l 1,8,-1
 157 107 l 2,9,10
 157 147 157 147 183.5 212.5 c 128,-1,11
 210 278 210 278 210 313 c 0,12,13
 210 347 210 347 190 360 c 1,14,-1
 153 321 l 1,15,-1
 111 361 l 1,16,17
 101 356 101 356 89.5 340 c 128,-1,18
 78 324 78 324 76 312 c 1,19,20
 83 315 83 315 98 315 c 0,21,22
 128 315 128 315 149 293.5 c 128,-1,23
 170 272 170 272 170 243 c 0,24,25
 170 213 170 213 149 192 c 128,-1,26
 128 171 128 171 98 171 c 0,27,28
 65 171 65 171 42.5 199 c 128,-1,29
 20 227 20 227 20 267 c 0,30,31
 20 319 20 319 48 361 c 128,-1,32
 76 403 76 403 120 407 c 1,33,-1
 153 373 l 1,34,-1
 185 408 l 1,35,36
 259 392 259 392 259 312 c 0,37,38
 259 280 259 280 236.5 219.5 c 128,-1,39
 214 159 214 159 214 120 c 2,40,41
 206 72 206 72 206 63 c 1,42,-1
 305 347 l 2,43,44
 326 407 326 407 371 407 c 0,45,46
 441 407 441 407 441 323 c 2,47,-1
 441 0 l 1,0,-1
130 243 m 256,48,49
 130 256 130 256 121 265 c 128,-1,50
 112 274 112 274 99 274 c 256,51,52
 86 274 86 274 77 265 c 128,-1,53
 68 256 68 256 68 243 c 256,54,55
 68 230 68 230 77 221 c 128,-1,56
 86 212 86 212 99 212 c 256,57,58
 112 212 112 212 121 221 c 128,-1,59
 130 230 130 230 130 243 c 256,48,49
EndSplineSet
EndChar
StartChar: uni0E12
Encoding: 3602 3602 231
Width: 551
Flags: W
Fore
500 0 m 1,0,-1
 442 0 l 1,1,2
 417 43 417 43 379 65 c 1,3,4
 379 34 379 34 358.5 13 c 128,-1,5
 338 -8 338 -8 303 -8 c 0,6,7
 271 -8 271 -8 250 14.5 c 128,-1,8
 229 37 229 37 229 70 c 0,9,10
 229 93 229 93 244.5 113 c 128,-1,11
 260 133 260 133 282 139 c 1,12,-1
 282 262 l 2,13,14
 282 330 282 330 252 353 c 1,15,-1
 191 309 l 1,16,-1
 135 353 l 1,17,18
 92 331 92 331 92 255 c 0,19,20
 92 240 92 240 106.5 189.5 c 128,-1,21
 121 139 121 139 121 114 c 0,22,23
 121 99 121 99 116 86 c 1,24,25
 138 136 138 136 182 163 c 1,26,27
 155 165 155 165 139.5 184 c 128,-1,28
 124 203 124 203 124 227 c 0,29,30
 124 254 124 254 143 272.5 c 128,-1,31
 162 291 162 291 189 291 c 0,32,33
 215 291 215 291 234.5 272 c 128,-1,34
 254 253 254 253 254 227 c 0,35,36
 254 178 254 178 194.5 111.5 c 128,-1,37
 135 45 135 45 135 0 c 1,38,-1
 70 0 l 1,39,40
 71 28 71 28 71 64 c 0,41,42
 71 122 71 122 59 152 c 0,43,44
 31 222 31 222 31 254 c 0,45,46
 31 310 31 310 58.5 352 c 128,-1,47
 86 394 86 394 138 408 c 1,48,-1
 191 363 l 1,49,-1
 240 408 l 1,50,51
 344 393 344 393 344 264 c 2,52,-1
 344 131 l 1,53,54
 364 125 364 125 395.5 107 c 128,-1,55
 427 89 427 89 438 76 c 1,56,-1
 438 399 l 1,57,-1
 500 399 l 1,58,-1
 500 0 l 1,0,-1
220 227 m 256,59,60
 220 240 220 240 211 249 c 128,-1,61
 202 258 202 258 189 258 c 256,62,63
 176 258 176 258 167 249 c 128,-1,64
 158 240 158 240 158 227 c 256,65,66
 158 214 158 214 167 205 c 128,-1,67
 176 196 176 196 189 196 c 256,68,69
 202 196 202 196 211 205 c 128,-1,70
 220 214 220 214 220 227 c 256,59,60
335 67 m 256,71,72
 335 81 335 81 326 90 c 128,-1,73
 317 99 317 99 303 99 c 256,74,75
 289 99 289 99 280.5 90 c 128,-1,76
 272 81 272 81 272 67 c 256,77,78
 272 53 272 53 280.5 44.5 c 128,-1,79
 289 36 289 36 303 36 c 256,80,81
 317 36 317 36 326 44.5 c 128,-1,82
 335 53 335 53 335 67 c 256,71,72
EndSplineSet
EndChar
StartChar: uni0E13
Encoding: 3603 3603 232
Width: 576
Flags: W
Fore
543 68 m 0,0,1
 543 37 543 37 523 14.5 c 128,-1,2
 503 -8 503 -8 470 -8 c 0,3,4
 441 -8 441 -8 419 10.5 c 128,-1,5
 397 29 397 29 392 57 c 1,6,7
 365 39 365 39 332 0 c 1,8,-1
 269 0 l 1,9,-1
 269 265 l 2,10,11
 269 304 269 304 244.5 328.5 c 128,-1,12
 220 353 220 353 184 353 c 0,13,14
 123 353 123 353 97 303 c 1,15,16
 136 300 136 300 163 258 c 1,17,18
 112 230 112 230 112 186 c 2,19,-1
 112 139 l 1,20,21
 119 143 119 143 131 143 c 0,22,23
 162 143 162 143 183.5 121.5 c 128,-1,24
 205 100 205 100 205 68 c 256,25,26
 205 36 205 36 183 14 c 128,-1,27
 161 -8 161 -8 129 -8 c 0,28,29
 96 -8 96 -8 73 15 c 128,-1,30
 50 38 50 38 50 73 c 2,31,-1
 50 190 l 2,32,33
 50 232 50 232 91 256 c 1,34,35
 66 273 66 273 30 268 c 1,36,37
 32 330 32 330 76 370 c 0,38,39
 117 407 117 407 181 407 c 0,40,41
 248 407 248 407 289.5 369.5 c 128,-1,42
 331 332 331 332 331 265 c 2,43,-1
 331 63 l 1,44,45
 346 81 346 81 385 112 c 0,46,47
 439 154 439 154 449 163 c 1,48,49
 463 181 463 181 463 210 c 2,50,-1
 463 399 l 1,51,-1
 525 399 l 1,52,-1
 525 189 l 2,53,54
 525 150 525 150 504 134 c 1,55,56
 543 112 543 112 543 68 c 0,0,1
502 69 m 256,57,58
 502 83 502 83 492 93 c 128,-1,59
 482 103 482 103 468 103 c 256,60,61
 454 103 454 103 444 93 c 128,-1,62
 434 83 434 83 434 69 c 256,63,64
 434 55 434 55 444 45 c 128,-1,65
 454 35 454 35 468 35 c 256,66,67
 482 35 482 35 492 45 c 128,-1,68
 502 55 502 55 502 69 c 256,57,58
165 67 m 256,69,70
 165 81 165 81 155 91 c 128,-1,71
 145 101 145 101 131 101 c 256,72,73
 117 101 117 101 107 91 c 128,-1,74
 97 81 97 81 97 67 c 256,75,76
 97 53 97 53 107 43 c 128,-1,77
 117 33 117 33 131 33 c 256,78,79
 145 33 145 33 155 43 c 128,-1,80
 165 53 165 53 165 67 c 256,69,70
EndSplineSet
EndChar
StartChar: uni0E14
Encoding: 3604 3604 233
Width: 405
Flags: W
Fore
354 0 m 1,0,-1
 292 0 l 1,1,-1
 292 268 l 2,2,3
 292 306 292 306 263.5 330 c 128,-1,4
 235 354 235 354 196 354 c 0,5,6
 154 354 154 354 123 325.5 c 128,-1,7
 92 297 92 297 92 257 c 0,8,9
 92 232 92 232 108.5 186 c 128,-1,10
 125 140 125 140 125 117 c 0,11,12
 125 110 125 110 123 98 c 1,13,14
 152 145 152 145 188 177 c 1,15,16
 160 179 160 179 144 199 c 0,17,18
 129 216 129 216 129 241 c 0,19,20
 129 267 129 267 148.5 286.5 c 128,-1,21
 168 306 168 306 195 306 c 256,22,23
 222 306 222 306 241 286.5 c 128,-1,24
 260 267 260 267 260 241 c 0,25,26
 260 196 260 196 216 141 c 0,27,28
 155 66 155 66 147 51 c 0,29,30
 132 25 132 25 132 0 c 1,31,-1
 69 0 l 1,32,33
 70 37 70 37 70 68 c 0,34,35
 70 122 70 122 58 151 c 0,36,37
 49 177 49 177 40 204.5 c 128,-1,38
 31 232 31 232 31 253 c 0,39,40
 31 321 31 321 78.5 364 c 128,-1,41
 126 407 126 407 194 407 c 0,42,43
 263 407 263 407 307 371 c 0,44,45
 354 332 354 332 354 264 c 2,46,-1
 354 0 l 1,0,-1
225 241 m 256,47,48
 225 254 225 254 216.5 262.5 c 128,-1,49
 208 271 208 271 195 271 c 256,50,51
 182 271 182 271 173.5 262.5 c 128,-1,52
 165 254 165 254 165 241 c 256,53,54
 165 228 165 228 173.5 219.5 c 128,-1,55
 182 211 182 211 195 211 c 256,56,57
 208 211 208 211 216.5 219.5 c 128,-1,58
 225 228 225 228 225 241 c 256,47,48
EndSplineSet
EndChar
StartChar: uni0E15
Encoding: 3605 3605 234
Width: 405
Flags: W
Fore
354 0 m 1,0,-1
 292 0 l 1,1,-1
 292 262 l 2,2,3
 292 326 292 326 257 354 c 1,4,-1
 195 309 l 1,5,-1
 134 354 l 1,6,7
 92 333 92 333 92 259 c 0,8,9
 92 235 92 235 106.5 188 c 128,-1,10
 121 141 121 141 121 118 c 0,11,12
 121 102 121 102 115 85 c 1,13,14
 121 99 121 99 144 124 c 128,-1,15
 167 149 167 149 188 162 c 1,16,17
 161 164 161 164 145.5 183 c 128,-1,18
 130 202 130 202 130 225 c 0,19,20
 130 252 130 252 148.5 271 c 128,-1,21
 167 290 167 290 194 290 c 256,22,23
 221 290 221 290 240 271 c 128,-1,24
 259 252 259 252 259 225 c 0,25,26
 259 182 259 182 214 134 c 0,27,28
 154 70 154 70 144 51 c 0,29,30
 129 22 129 22 129 0 c 1,31,-1
 66 0 l 1,32,33
 68 38 68 38 68 77 c 0,34,35
 68 117 68 117 56 151 c 0,36,37
 31 223 31 223 31 259 c 0,38,39
 31 314 31 314 58.5 354 c 128,-1,40
 86 394 86 394 137 408 c 1,41,-1
 194 365 l 1,42,-1
 247 408 l 1,43,44
 354 392 354 392 354 264 c 2,45,-1
 354 0 l 1,0,-1
224 226 m 256,46,47
 224 239 224 239 215.5 247.5 c 128,-1,48
 207 256 207 256 194 256 c 256,49,50
 181 256 181 256 172.5 247.5 c 128,-1,51
 164 239 164 239 164 226 c 256,52,53
 164 213 164 213 172.5 204.5 c 128,-1,54
 181 196 181 196 194 196 c 256,55,56
 207 196 207 196 215.5 204.5 c 128,-1,57
 224 213 224 213 224 226 c 256,46,47
EndSplineSet
EndChar
StartChar: uni0E16
Encoding: 3606 3606 235
Width: 391
Flags: W
Fore
340 0 m 1,0,-1
 278 0 l 1,1,-1
 278 265 l 2,2,3
 278 306 278 306 253 330 c 128,-1,4
 228 354 228 354 187 354 c 0,5,6
 127 354 127 354 96 303 c 1,7,8
 143 294 143 294 163 258 c 1,9,10
 112 228 112 228 112 186 c 2,11,-1
 112 139 l 1,12,13
 119 143 119 143 131 143 c 0,14,15
 162 143 162 143 183.5 121.5 c 128,-1,16
 205 100 205 100 205 68 c 256,17,18
 205 36 205 36 183 14 c 128,-1,19
 161 -8 161 -8 129 -8 c 0,20,21
 96 -8 96 -8 73 15 c 128,-1,22
 50 38 50 38 50 73 c 2,23,-1
 50 190 l 2,24,25
 50 232 50 232 91 256 c 1,26,27
 66 273 66 273 30 268 c 1,28,29
 32 330 32 330 78 370 c 0,30,31
 120 407 120 407 185 407 c 0,32,33
 257 407 257 407 298.5 368.5 c 128,-1,34
 340 330 340 330 340 264 c 2,35,-1
 340 0 l 1,0,-1
165 67 m 256,36,37
 165 81 165 81 155 91 c 128,-1,38
 145 101 145 101 131 101 c 256,39,40
 117 101 117 101 107 91 c 128,-1,41
 97 81 97 81 97 67 c 256,42,43
 97 53 97 53 107 43 c 128,-1,44
 117 33 117 33 131 33 c 256,45,46
 145 33 145 33 155 43 c 128,-1,47
 165 53 165 53 165 67 c 256,36,37
EndSplineSet
EndChar
StartChar: uni0E17
Encoding: 3607 3607 236
Width: 438
Flags: W
Fore
387 0 m 1,0,-1
 325 0 l 1,1,-1
 325 323 l 2,2,3
 325 354 325 354 310 354 c 0,4,5
 297 354 297 354 292 339 c 2,6,-1
 173 0 l 1,7,-1
 103 0 l 1,8,-1
 103 257 l 1,9,10
 93 255 93 255 86 255 c 0,11,12
 54 255 54 255 32 277.5 c 128,-1,13
 10 300 10 300 10 332 c 0,14,15
 10 363 10 363 32 385 c 128,-1,16
 54 407 54 407 86 407 c 0,17,18
 120 407 120 407 142.5 384 c 128,-1,19
 165 361 165 361 165 326 c 2,20,-1
 165 177 l 2,21,22
 165 143 165 143 153 71 c 1,23,24
 164 115 164 115 181 169 c 2,25,-1
 237 347 l 2,26,27
 256 408 256 408 312 407 c 0,28,29
 387 406 387 406 387 322 c 2,30,-1
 387 0 l 1,0,-1
120 331 m 256,31,32
 120 345 120 345 110 355 c 128,-1,33
 100 365 100 365 86 365 c 256,34,35
 72 365 72 365 62 355 c 128,-1,36
 52 345 52 345 52 331 c 256,37,38
 52 317 52 317 62 307 c 128,-1,39
 72 297 72 297 86 297 c 256,40,41
 100 297 100 297 110 307 c 128,-1,42
 120 317 120 317 120 331 c 256,31,32
EndSplineSet
EndChar
StartChar: uni0E18
Encoding: 3608 3608 237
Width: 358
Flags: W
Fore
300 85 m 2,0,1
 300 -8 300 -8 175 -8 c 0,2,3
 51 -8 51 -8 51 85 c 2,4,-1
 51 216 l 1,5,-1
 113 216 l 1,6,-1
 113 81 l 2,7,8
 113 45 113 45 176 45 c 0,9,10
 238 45 238 45 238 81 c 2,11,-1
 238 213 l 2,12,13
 238 236 238 236 160 253.5 c 128,-1,14
 82 271 82 271 25 282 c 1,15,16
 31 346 31 346 56 375 c 0,17,18
 85 407 85 407 147 407 c 0,19,20
 169 407 169 407 209 397.5 c 128,-1,21
 249 388 249 388 265 388 c 0,22,23
 282 388 282 388 284 410 c 1,24,-1
 333 397 l 1,25,26
 322 364 322 364 307 349.5 c 128,-1,27
 292 335 292 335 261 335 c 0,28,29
 243 335 243 335 206 345 c 128,-1,30
 169 355 169 355 149 355 c 0,31,32
 95 355 95 355 91 322 c 1,33,34
 189 301 189 301 244.5 282 c 128,-1,35
 300 263 300 263 300 217 c 2,36,-1
 300 85 l 2,0,1
EndSplineSet
EndChar
StartChar: uni0E19
Encoding: 3609 3609 238
Width: 433
Flags: W
Fore
382 189 m 2,0,1
 382 149 382 149 361 134 c 1,2,3
 400 112 400 112 400 67 c 0,4,5
 400 35 400 35 378 13.5 c 128,-1,6
 356 -8 356 -8 325 -8 c 0,7,8
 296 -8 296 -8 275 10.5 c 128,-1,9
 254 29 254 29 250 57 c 1,10,11
 218 41 218 41 204 33 c 0,12,13
 180 18 180 18 166 0 c 1,14,-1
 103 0 l 1,15,-1
 103 257 l 1,16,17
 93 255 93 255 86 255 c 0,18,19
 54 255 54 255 32 277.5 c 128,-1,20
 10 300 10 300 10 332 c 0,21,22
 10 363 10 363 32 385 c 128,-1,23
 54 407 54 407 86 407 c 0,24,25
 120 407 120 407 142.5 384 c 128,-1,26
 165 361 165 361 165 326 c 2,27,-1
 165 72 l 1,28,29
 181 84 181 84 237 107 c 0,30,31
 287 128 287 128 306 149 c 0,32,33
 320 164 320 164 320 197 c 2,34,-1
 320 399 l 1,35,-1
 382 399 l 1,36,-1
 382 189 l 2,0,1
120 331 m 256,37,38
 120 345 120 345 110 355 c 128,-1,39
 100 365 100 365 86 365 c 256,40,41
 72 365 72 365 62 355 c 128,-1,42
 52 345 52 345 52 331 c 256,43,44
 52 317 52 317 62 307 c 128,-1,45
 72 297 72 297 86 297 c 256,46,47
 100 297 100 297 110 307 c 128,-1,48
 120 317 120 317 120 331 c 256,37,38
358 67 m 256,49,50
 358 81 358 81 348 91 c 128,-1,51
 338 101 338 101 324 101 c 256,52,53
 310 101 310 101 300 91 c 128,-1,54
 290 81 290 81 290 67 c 256,55,56
 290 53 290 53 300 43 c 128,-1,57
 310 33 310 33 324 33 c 256,58,59
 338 33 338 33 348 43 c 128,-1,60
 358 53 358 53 358 67 c 256,49,50
EndSplineSet
EndChar
StartChar: uni0E1A
Encoding: 3610 3610 239
Width: 445
Flags: W
Fore
394 90 m 2,0,1
 394 -8 394 -8 249 -8 c 0,2,3
 103 -8 103 -8 103 90 c 2,4,-1
 103 257 l 1,5,6
 93 255 93 255 86 255 c 0,7,8
 54 255 54 255 32 277.5 c 128,-1,9
 10 300 10 300 10 332 c 0,10,11
 10 363 10 363 32 385 c 128,-1,12
 54 407 54 407 86 407 c 0,13,14
 120 407 120 407 142.5 384 c 128,-1,15
 165 361 165 361 165 326 c 2,16,-1
 165 89 l 2,17,18
 165 69 165 69 192 57 c 128,-1,19
 219 45 219 45 249 45 c 0,20,21
 278 45 278 45 305 57 c 128,-1,22
 332 69 332 69 332 89 c 2,23,-1
 332 399 l 1,24,-1
 394 399 l 1,25,-1
 394 90 l 2,0,1
120 331 m 256,26,27
 120 345 120 345 110 355 c 128,-1,28
 100 365 100 365 86 365 c 256,29,30
 72 365 72 365 62 355 c 128,-1,31
 52 345 52 345 52 331 c 256,32,33
 52 317 52 317 62 307 c 128,-1,34
 72 297 72 297 86 297 c 256,35,36
 100 297 100 297 110 307 c 128,-1,37
 120 317 120 317 120 331 c 256,26,27
EndSplineSet
EndChar
StartChar: uni0E1B
Encoding: 3611 3611 240
Width: 445
Flags: W
Fore
394 90 m 2,0,1
 394 -8 394 -8 249 -8 c 0,2,3
 103 -8 103 -8 103 90 c 2,4,-1
 103 257 l 1,5,6
 93 255 93 255 86 255 c 0,7,8
 54 255 54 255 32 277.5 c 128,-1,9
 10 300 10 300 10 332 c 0,10,11
 10 363 10 363 32 385 c 128,-1,12
 54 407 54 407 86 407 c 0,13,14
 120 407 120 407 142.5 384 c 128,-1,15
 165 361 165 361 165 326 c 2,16,-1
 165 89 l 2,17,18
 165 69 165 69 192 57 c 128,-1,19
 219 45 219 45 249 45 c 0,20,21
 278 45 278 45 305 57 c 128,-1,22
 332 69 332 69 332 89 c 2,23,-1
 332 559 l 1,24,-1
 394 559 l 1,25,-1
 394 90 l 2,0,1
120 331 m 256,26,27
 120 345 120 345 110 355 c 128,-1,28
 100 365 100 365 86 365 c 256,29,30
 72 365 72 365 62 355 c 128,-1,31
 52 345 52 345 52 331 c 256,32,33
 52 317 52 317 62 307 c 128,-1,34
 72 297 72 297 86 297 c 256,35,36
 100 297 100 297 110 307 c 128,-1,37
 120 317 120 317 120 331 c 256,26,27
EndSplineSet
EndChar
StartChar: uni0E1C
Encoding: 3612 3612 241
Width: 414
Flags: W
Fore
363 0 m 1,0,-1
 301 0 l 1,1,-1
 201 160 l 1,2,-1
 101 0 l 1,3,-1
 40 0 l 1,4,-1
 40 326 l 2,5,6
 40 361 40 361 63.5 384 c 128,-1,7
 87 407 87 407 120 407 c 0,8,9
 152 407 152 407 174 384.5 c 128,-1,10
 196 362 196 362 196 331 c 0,11,12
 196 299 196 299 174 277 c 128,-1,13
 152 255 152 255 120 255 c 0,14,15
 106 255 106 255 102 256 c 1,16,-1
 102 85 l 1,17,-1
 181 208 l 1,18,-1
 221 208 l 1,19,-1
 301 84 l 1,20,-1
 301 399 l 1,21,-1
 363 399 l 1,22,-1
 363 0 l 1,0,-1
154 331 m 256,23,24
 154 345 154 345 144 355 c 128,-1,25
 134 365 134 365 120 365 c 256,26,27
 106 365 106 365 96 355 c 128,-1,28
 86 345 86 345 86 331 c 256,29,30
 86 317 86 317 96 307 c 128,-1,31
 106 297 106 297 120 297 c 256,32,33
 134 297 134 297 144 307 c 128,-1,34
 154 317 154 317 154 331 c 256,23,24
EndSplineSet
EndChar
StartChar: uni0E1D
Encoding: 3613 3613 242
Width: 414
Flags: W
Fore
363 0 m 1,0,-1
 301 0 l 1,1,-1
 201 160 l 1,2,-1
 101 0 l 1,3,-1
 40 0 l 1,4,-1
 40 326 l 2,5,6
 40 361 40 361 63.5 384 c 128,-1,7
 87 407 87 407 120 407 c 0,8,9
 152 407 152 407 174 384.5 c 128,-1,10
 196 362 196 362 196 331 c 0,11,12
 196 299 196 299 174 277 c 128,-1,13
 152 255 152 255 120 255 c 0,14,15
 106 255 106 255 102 256 c 1,16,-1
 102 85 l 1,17,-1
 181 208 l 1,18,-1
 221 208 l 1,19,-1
 301 84 l 1,20,-1
 301 559 l 1,21,-1
 363 559 l 1,22,-1
 363 0 l 1,0,-1
154 331 m 256,23,24
 154 345 154 345 144 355 c 128,-1,25
 134 365 134 365 120 365 c 256,26,27
 106 365 106 365 96 355 c 128,-1,28
 86 345 86 345 86 331 c 256,29,30
 86 317 86 317 96 307 c 128,-1,31
 106 297 106 297 120 297 c 256,32,33
 134 297 134 297 144 307 c 128,-1,34
 154 317 154 317 154 331 c 256,23,24
EndSplineSet
EndChar
StartChar: uni0E1E
Encoding: 3614 3614 243
Width: 482
Flags: W
Fore
431 0 m 1,0,-1
 361 0 l 1,1,-1
 267 310 l 1,2,-1
 170 0 l 1,3,-1
 103 0 l 1,4,-1
 103 257 l 1,5,6
 93 255 93 255 86 255 c 0,7,8
 54 255 54 255 32 277.5 c 128,-1,9
 10 300 10 300 10 332 c 0,10,11
 10 363 10 363 32 385 c 128,-1,12
 54 407 54 407 86 407 c 0,13,14
 120 407 120 407 142.5 384 c 128,-1,15
 165 361 165 361 165 326 c 2,16,-1
 165 177 l 2,17,18
 165 151 165 151 153 71 c 1,19,20
 175 162 175 162 178 169 c 2,21,-1
 248 382 l 1,22,-1
 286 382 l 1,23,-1
 356 169 l 2,24,25
 358 163 358 163 381 71 c 1,26,27
 369 151 369 151 369 177 c 2,28,-1
 369 399 l 1,29,-1
 431 399 l 1,30,-1
 431 0 l 1,0,-1
120 331 m 256,31,32
 120 345 120 345 110 355 c 128,-1,33
 100 365 100 365 86 365 c 256,34,35
 72 365 72 365 62 355 c 128,-1,36
 52 345 52 345 52 331 c 256,37,38
 52 317 52 317 62 307 c 128,-1,39
 72 297 72 297 86 297 c 256,40,41
 100 297 100 297 110 307 c 128,-1,42
 120 317 120 317 120 331 c 256,31,32
EndSplineSet
EndChar
StartChar: uni0E1F
Encoding: 3615 3615 244
Width: 482
Flags: W
Fore
431 0 m 1,0,-1
 361 0 l 1,1,-1
 267 310 l 1,2,-1
 170 0 l 1,3,-1
 103 0 l 1,4,-1
 103 257 l 1,5,6
 93 255 93 255 86 255 c 0,7,8
 54 255 54 255 32 277.5 c 128,-1,9
 10 300 10 300 10 332 c 0,10,11
 10 363 10 363 32 385 c 128,-1,12
 54 407 54 407 86 407 c 0,13,14
 120 407 120 407 142.5 384 c 128,-1,15
 165 361 165 361 165 326 c 2,16,-1
 165 177 l 2,17,18
 165 151 165 151 153 71 c 1,19,20
 175 162 175 162 178 169 c 2,21,-1
 248 382 l 1,22,-1
 286 382 l 1,23,-1
 356 169 l 2,24,25
 358 163 358 163 381 71 c 1,26,27
 369 151 369 151 369 177 c 2,28,-1
 369 559 l 1,29,-1
 431 559 l 1,30,-1
 431 0 l 1,0,-1
120 331 m 256,31,32
 120 345 120 345 110 355 c 128,-1,33
 100 365 100 365 86 365 c 256,34,35
 72 365 72 365 62 355 c 128,-1,36
 52 345 52 345 52 331 c 256,37,38
 52 317 52 317 62 307 c 128,-1,39
 72 297 72 297 86 297 c 256,40,41
 100 297 100 297 110 307 c 128,-1,42
 120 317 120 317 120 331 c 256,31,32
EndSplineSet
EndChar
StartChar: uni0E20
Encoding: 3616 3616 245
Width: 425
Flags: W
Fore
118 68 m 256,0,1
 118 82 118 82 108 92 c 128,-1,2
 98 102 98 102 84 102 c 256,3,4
 70 102 70 102 60 92 c 128,-1,5
 50 82 50 82 50 68 c 256,6,7
 50 54 50 54 60 44 c 128,-1,8
 70 34 70 34 84 34 c 256,9,10
 98 34 98 34 108 44 c 128,-1,11
 118 54 118 54 118 68 c 256,0,1
374 0 m 1,12,-1
 312 0 l 1,13,-1
 312 265 l 2,14,15
 312 305 312 305 285.5 329.5 c 128,-1,16
 259 354 259 354 219 354 c 0,17,18
 158 354 158 354 130 303 c 1,19,20
 179 293 179 293 197 258 c 1,21,22
 170 243 170 243 161 233 c 0,23,24
 148 217 148 217 148 190 c 0,25,26
 148 168 148 168 153 126.5 c 128,-1,27
 158 85 158 85 158 68 c 0,28,29
 158 36 158 36 136.5 14 c 128,-1,30
 115 -8 115 -8 84 -8 c 0,31,32
 52 -8 52 -8 30 14 c 128,-1,33
 8 36 8 36 8 68 c 0,34,35
 8 99 8 99 30 121 c 128,-1,36
 52 143 52 143 82 143 c 0,37,38
 94 143 94 143 97 140 c 1,39,-1
 91 202 l 2,40,41
 91 237 91 237 125 256 c 1,42,43
 98 273 98 273 64 268 c 1,44,45
 65 330 65 330 110 370 c 0,46,47
 153 407 153 407 218 407 c 0,48,49
 288 407 288 407 331 368 c 128,-1,50
 374 329 374 329 374 264 c 2,51,-1
 374 0 l 1,12,-1
EndSplineSet
EndChar
StartChar: uni0E21
Encoding: 3617 3617 246
Width: 417
Flags: W
Fore
366 0 m 1,0,-1
 304 0 l 1,1,2
 246 52 246 52 187 73 c 1,3,-1
 187 68 l 2,4,5
 187 36 187 36 162.5 14 c 128,-1,6
 138 -8 138 -8 107 -8 c 0,7,8
 74 -8 74 -8 50 16 c 128,-1,9
 26 40 26 40 26 73 c 256,10,11
 26 106 26 106 50 129.5 c 128,-1,12
 74 153 74 153 107 153 c 2,13,-1
 114 153 l 1,14,-1
 114 257 l 1,15,16
 104 255 104 255 97 255 c 0,17,18
 65 255 65 255 43 277.5 c 128,-1,19
 21 300 21 300 21 332 c 0,20,21
 21 363 21 363 43 385 c 128,-1,22
 65 407 65 407 97 407 c 0,23,24
 131 407 131 407 153.5 384 c 128,-1,25
 176 361 176 361 176 326 c 2,26,-1
 176 136 l 1,27,28
 255 109 255 109 304 65 c 1,29,-1
 304 399 l 1,30,-1
 366 399 l 1,31,-1
 366 0 l 1,0,-1
131 331 m 256,32,33
 131 345 131 345 121 355 c 128,-1,34
 111 365 111 365 97 365 c 256,35,36
 83 365 83 365 73 355 c 128,-1,37
 63 345 63 345 63 331 c 256,38,39
 63 317 63 317 73 307 c 128,-1,40
 83 297 83 297 97 297 c 256,41,42
 111 297 111 297 121 307 c 128,-1,43
 131 317 131 317 131 331 c 256,32,33
141 73 m 256,44,45
 141 87 141 87 131 97 c 128,-1,46
 121 107 121 107 107 107 c 256,47,48
 93 107 93 107 83 97 c 128,-1,49
 73 87 73 87 73 73 c 256,50,51
 73 59 73 59 83 49 c 128,-1,52
 93 39 93 39 107 39 c 256,53,54
 121 39 121 39 131 49 c 128,-1,55
 141 59 141 59 141 73 c 256,44,45
EndSplineSet
EndChar
StartChar: uni0E22
Encoding: 3618 3618 247
Width: 386
Flags: W
Fore
335 101 m 2,0,1
 335 -8 335 -8 187 -8 c 0,2,3
 40 -8 40 -8 40 101 c 2,4,-1
 40 147 l 2,5,6
 40 195 40 195 81 215 c 1,7,8
 35 246 35 246 35 306 c 0,9,10
 35 350 35 350 59.5 378.5 c 128,-1,11
 84 407 84 407 127 407 c 0,12,13
 157 407 157 407 178 388.5 c 128,-1,14
 199 370 199 370 199 340 c 0,15,16
 199 313 199 313 180 293 c 128,-1,17
 161 273 161 273 130 273 c 0,18,19
 114 273 114 273 102 278 c 1,20,21
 110 240 110 240 138 240 c 2,22,-1
 209 240 l 1,23,-1
 209 191 l 1,24,-1
 138 191 l 2,25,26
 122 191 122 191 112 177 c 128,-1,27
 102 163 102 163 102 145 c 2,28,-1
 102 99 l 2,29,30
 102 45 102 45 187 45 c 0,31,32
 273 45 273 45 273 99 c 2,33,-1
 273 399 l 1,34,-1
 335 399 l 1,35,-1
 335 101 l 2,0,1
162 339 m 256,36,37
 162 353 162 353 153 362 c 128,-1,38
 144 371 144 371 130 371 c 256,39,40
 116 371 116 371 107 362 c 128,-1,41
 98 353 98 353 98 339 c 256,42,43
 98 325 98 325 107 316 c 128,-1,44
 116 307 116 307 130 307 c 256,45,46
 144 307 144 307 153 316 c 128,-1,47
 162 325 162 325 162 339 c 256,36,37
EndSplineSet
EndChar
StartChar: uni0E23
Encoding: 3619 3619 248
Width: 329
Flags: W
Fore
271 67 m 2,0,1
 271 35 271 35 248.5 13.5 c 128,-1,2
 226 -8 226 -8 194 -8 c 256,3,4
 162 -8 162 -8 139.5 14 c 128,-1,5
 117 36 117 36 117 68 c 256,6,7
 117 100 117 100 139.5 122 c 128,-1,8
 162 144 162 144 194 144 c 0,9,10
 206 144 206 144 209 143 c 1,11,-1
 209 229 l 2,12,13
 209 245 209 245 142.5 260.5 c 128,-1,14
 76 276 76 276 22 285 c 1,15,16
 24 340 24 340 51 373.5 c 128,-1,17
 78 407 78 407 129 407 c 0,18,19
 150 407 150 407 186.5 397.5 c 128,-1,20
 223 388 223 388 239 388 c 0,21,22
 256 388 256 388 258 410 c 1,23,-1
 307 397 l 1,24,25
 289 336 289 336 241 336 c 0,26,27
 223 336 223 336 189.5 345 c 128,-1,28
 156 354 156 354 139 354 c 0,29,30
 95 354 95 354 89 320 c 1,31,32
 166 304 166 304 218.5 286 c 128,-1,33
 271 268 271 268 271 224 c 2,34,-1
 271 67 l 2,0,1
228 68 m 256,35,36
 228 82 228 82 218 92 c 128,-1,37
 208 102 208 102 194 102 c 256,38,39
 180 102 180 102 170 92 c 128,-1,40
 160 82 160 82 160 68 c 256,41,42
 160 54 160 54 170 44 c 128,-1,43
 180 34 180 34 194 34 c 256,44,45
 208 34 208 34 218 44 c 128,-1,46
 228 54 228 54 228 68 c 256,35,36
EndSplineSet
EndChar
StartChar: uni0E24
Encoding: 3620 3620 249
Width: 391
Flags: W
Fore
340 -140 m 1,0,-1
 278 -140 l 1,1,-1
 278 265 l 2,2,3
 278 306 278 306 253 330 c 128,-1,4
 228 354 228 354 187 354 c 0,5,6
 127 354 127 354 96 303 c 1,7,8
 143 294 143 294 163 258 c 1,9,10
 112 228 112 228 112 186 c 2,11,-1
 112 139 l 1,12,13
 119 143 119 143 131 143 c 0,14,15
 162 143 162 143 183.5 121.5 c 128,-1,16
 205 100 205 100 205 68 c 256,17,18
 205 36 205 36 183 14 c 128,-1,19
 161 -8 161 -8 129 -8 c 0,20,21
 96 -8 96 -8 73 15 c 128,-1,22
 50 38 50 38 50 73 c 2,23,-1
 50 190 l 2,24,25
 50 232 50 232 91 256 c 1,26,27
 66 273 66 273 30 268 c 1,28,29
 32 330 32 330 78 370 c 0,30,31
 120 407 120 407 185 407 c 0,32,33
 257 407 257 407 298.5 368.5 c 128,-1,34
 340 330 340 330 340 264 c 2,35,-1
 340 -140 l 1,0,-1
165 67 m 256,36,37
 165 81 165 81 155 91 c 128,-1,38
 145 101 145 101 131 101 c 256,39,40
 117 101 117 101 107 91 c 128,-1,41
 97 81 97 81 97 67 c 256,42,43
 97 53 97 53 107 43 c 128,-1,44
 117 33 117 33 131 33 c 256,45,46
 145 33 145 33 155 43 c 128,-1,47
 165 53 165 53 165 67 c 256,36,37
EndSplineSet
EndChar
StartChar: uni0E25
Encoding: 3621 3621 250
Width: 399
Flags: W
Fore
348 0 m 1,0,-1
 286 0 l 1,1,-1
 286 173 l 2,2,3
 286 203 286 203 252 219 c 0,4,5
 226 231 226 231 194 231 c 0,6,7
 163 231 163 231 141 216 c 0,8,9
 114 198 114 198 114 168 c 2,10,-1
 114 143 l 1,11,12
 122 145 122 145 132 145 c 0,13,14
 164 145 164 145 187 122.5 c 128,-1,15
 210 100 210 100 210 69 c 0,16,17
 210 37 210 37 186 15 c 128,-1,18
 162 -7 162 -7 131 -7 c 0,19,20
 98 -7 98 -7 75 14.5 c 128,-1,21
 52 36 52 36 52 69 c 2,22,-1
 52 161 l 2,23,24
 52 220 52 220 96 253 c 0,25,26
 135 282 135 282 193 282 c 0,27,28
 255 282 255 282 286 248 c 1,29,-1
 286 293 l 2,30,31
 286 324 286 324 250 341 c 0,32,33
 222 354 222 354 187 354 c 0,34,35
 148 354 148 354 120 336 c 0,36,37
 89 316 89 316 83 282 c 1,38,-1
 23 282 l 1,39,40
 29 343 29 343 76 376 c 0,41,42
 120 407 120 407 189 407 c 0,43,44
 251 407 251 407 296 378 c 0,45,46
 348 345 348 345 348 286 c 2,47,-1
 348 0 l 1,0,-1
166 69 m 256,48,49
 166 83 166 83 156 93 c 128,-1,50
 146 103 146 103 132 103 c 256,51,52
 118 103 118 103 108 93 c 128,-1,53
 98 83 98 83 98 69 c 256,54,55
 98 55 98 55 108 45 c 128,-1,56
 118 35 118 35 132 35 c 256,57,58
 146 35 146 35 156 45 c 128,-1,59
 166 55 166 55 166 69 c 256,48,49
EndSplineSet
EndChar
StartChar: uni0E26
Encoding: 3622 3622 251
Width: 425
Flags: W
Fore
118 68 m 256,0,1
 118 82 118 82 108 92 c 128,-1,2
 98 102 98 102 84 102 c 256,3,4
 70 102 70 102 60 92 c 128,-1,5
 50 82 50 82 50 68 c 256,6,7
 50 54 50 54 60 44 c 128,-1,8
 70 34 70 34 84 34 c 256,9,10
 98 34 98 34 108 44 c 128,-1,11
 118 54 118 54 118 68 c 256,0,1
374 -140 m 1,12,-1
 312 -140 l 1,13,-1
 312 265 l 2,14,15
 312 305 312 305 285.5 329.5 c 128,-1,16
 259 354 259 354 219 354 c 0,17,18
 158 354 158 354 130 303 c 1,19,20
 179 293 179 293 197 258 c 1,21,22
 170 243 170 243 161 233 c 0,23,24
 148 217 148 217 148 190 c 0,25,26
 148 168 148 168 153 126.5 c 128,-1,27
 158 85 158 85 158 68 c 0,28,29
 158 36 158 36 136.5 14 c 128,-1,30
 115 -8 115 -8 84 -8 c 0,31,32
 52 -8 52 -8 30 14 c 128,-1,33
 8 36 8 36 8 68 c 0,34,35
 8 99 8 99 30 121 c 128,-1,36
 52 143 52 143 82 143 c 0,37,38
 94 143 94 143 97 140 c 1,39,-1
 91 202 l 2,40,41
 91 237 91 237 125 256 c 1,42,43
 98 273 98 273 64 268 c 1,44,45
 65 330 65 330 110 370 c 0,46,47
 153 407 153 407 218 407 c 0,48,49
 288 407 288 407 331 368 c 128,-1,50
 374 329 374 329 374 264 c 2,51,-1
 374 -140 l 1,12,-1
EndSplineSet
EndChar
StartChar: uni0E27
Encoding: 3623 3623 252
Width: 379
Flags: W
Fore
328 73 m 2,0,1
 328 38 328 38 305 15.5 c 128,-1,2
 282 -7 282 -7 248 -7 c 0,3,4
 216 -7 216 -7 194 15 c 128,-1,5
 172 37 172 37 172 68 c 0,6,7
 172 100 172 100 194 122 c 128,-1,8
 216 144 216 144 248 144 c 0,9,10
 259 144 259 144 266 143 c 1,11,-1
 266 290 l 2,12,13
 266 354 266 354 174 354 c 0,14,15
 136 354 136 354 109.5 330.5 c 128,-1,16
 83 307 83 307 83 268 c 1,17,-1
 23 268 l 1,18,19
 26 334 26 334 66.5 370.5 c 128,-1,20
 107 407 107 407 174 407 c 0,21,22
 240 407 240 407 280 381 c 0,23,24
 328 350 328 350 328 286 c 2,25,-1
 328 73 l 2,0,1
282 69 m 256,26,27
 282 83 282 83 272 93 c 128,-1,28
 262 103 262 103 248 103 c 256,29,30
 234 103 234 103 224 93 c 128,-1,31
 214 83 214 83 214 69 c 256,32,33
 214 55 214 55 224 45 c 128,-1,34
 234 35 234 35 248 35 c 256,35,36
 262 35 262 35 272 45 c 128,-1,37
 282 55 282 55 282 69 c 256,26,27
EndSplineSet
EndChar
StartChar: uni0E28
Encoding: 3624 3624 253
Width: 403
Flags: W
Fore
352 0 m 1,0,-1
 290 0 l 1,1,-1
 290 273 l 2,2,3
 290 309 290 309 259 333 c 0,4,5
 230 354 230 354 192 354 c 0,6,7
 147 354 147 354 120 323.5 c 128,-1,8
 93 293 93 293 93 253 c 0,9,10
 93 242 93 242 97.5 216.5 c 128,-1,11
 102 191 102 191 102 172 c 2,12,-1
 102 146 l 1,13,14
 102 150 102 150 104.5 166 c 128,-1,15
 107 182 107 182 110 197 c 0,16,17
 120 239 120 239 140 268 c 0,18,19
 167 303 167 303 201 303 c 0,20,21
 228 303 228 303 248 284 c 128,-1,22
 268 265 268 265 268 238 c 0,23,24
 268 212 268 212 248 192.5 c 128,-1,25
 228 173 228 173 201 173 c 0,26,27
 176 173 176 173 156 191 c 1,28,29
 126 100 126 100 126 0 c 1,30,-1
 64 0 l 1,31,-1
 64 64 l 2,32,33
 64 111 64 111 47.5 166.5 c 128,-1,34
 31 222 31 222 31 254 c 0,35,36
 31 323 31 323 81 366 c 0,37,38
 128 407 128 407 197 407 c 0,39,40
 236 407 236 407 273 391 c 1,41,42
 296 408 296 408 296 439 c 1,43,-1
 366 439 l 1,44,45
 354 384 354 384 320 358 c 1,46,47
 352 321 352 321 352 271 c 2,48,-1
 352 0 l 1,0,-1
231 238 m 256,49,50
 231 251 231 251 222 260 c 128,-1,51
 213 269 213 269 200 269 c 256,52,53
 187 269 187 269 178.5 260 c 128,-1,54
 170 251 170 251 170 238 c 256,55,56
 170 225 170 225 178.5 216.5 c 128,-1,57
 187 208 187 208 200 208 c 256,58,59
 213 208 213 208 222 216.5 c 128,-1,60
 231 225 231 225 231 238 c 256,49,50
EndSplineSet
EndChar
StartChar: uni0E29
Encoding: 3625 3625 254
Width: 461
Flags: W
Fore
468 237 m 1,0,1
 449 205 449 205 410 179 c 1,2,-1
 410 90 l 2,3,4
 410 -8 410 -8 257 -8 c 0,5,6
 103 -8 103 -8 103 90 c 2,7,-1
 103 257 l 1,8,9
 93 255 93 255 86 255 c 0,10,11
 54 255 54 255 32 277.5 c 128,-1,12
 10 300 10 300 10 332 c 0,13,14
 10 363 10 363 32 385 c 128,-1,15
 54 407 54 407 86 407 c 0,16,17
 120 407 120 407 142.5 384 c 128,-1,18
 165 361 165 361 165 326 c 2,19,-1
 165 93 l 2,20,21
 165 73 165 73 188.5 59 c 128,-1,22
 212 45 212 45 256 45 c 0,23,24
 301 45 301 45 324.5 59 c 128,-1,25
 348 73 348 73 348 93 c 2,26,-1
 348 153 l 1,27,28
 325 148 325 148 306 148 c 0,29,30
 184 148 184 148 184 231 c 0,31,32
 184 259 184 259 202.5 278.5 c 128,-1,33
 221 298 221 298 252 298 c 0,34,35
 281 298 281 298 299 279.5 c 128,-1,36
 317 261 317 261 317 235 c 0,37,38
 317 203 317 203 296 188 c 1,39,40
 323 190 323 190 348 198 c 1,41,-1
 348 399 l 1,42,-1
 410 399 l 1,43,-1
 410 233 l 1,44,45
 426 248 426 248 435 270 c 1,46,-1
 468 237 l 1,0,1
120 331 m 256,47,48
 120 345 120 345 110 355 c 128,-1,49
 100 365 100 365 86 365 c 256,50,51
 72 365 72 365 62 355 c 128,-1,52
 52 345 52 345 52 331 c 256,53,54
 52 317 52 317 62 307 c 128,-1,55
 72 297 72 297 86 297 c 256,56,57
 100 297 100 297 110 307 c 128,-1,58
 120 317 120 317 120 331 c 256,47,48
280 234 m 256,59,60
 280 247 280 247 271.5 256 c 128,-1,61
 263 265 263 265 250 265 c 256,62,63
 237 265 237 265 228.5 256 c 128,-1,64
 220 247 220 247 220 234 c 256,65,66
 220 221 220 221 228.5 212 c 128,-1,67
 237 203 237 203 250 203 c 256,68,69
 263 203 263 203 271.5 212 c 128,-1,70
 280 221 280 221 280 234 c 256,59,60
EndSplineSet
EndChar
StartChar: uni0E2A
Encoding: 3626 3626 255
Width: 399
Flags: W
Fore
348 0 m 1,0,-1
 286 0 l 1,1,-1
 286 173 l 2,2,3
 286 203 286 203 252 219 c 0,4,5
 226 231 226 231 194 231 c 0,6,7
 163 231 163 231 141 216 c 0,8,9
 114 198 114 198 114 168 c 2,10,-1
 114 143 l 1,11,12
 128 145 128 145 132 145 c 0,13,14
 164 145 164 145 187 122.5 c 128,-1,15
 210 100 210 100 210 69 c 0,16,17
 210 37 210 37 186 15 c 128,-1,18
 162 -7 162 -7 131 -7 c 0,19,20
 98 -7 98 -7 75 14.5 c 128,-1,21
 52 36 52 36 52 69 c 2,22,-1
 52 161 l 2,23,24
 52 220 52 220 96 253 c 0,25,26
 135 282 135 282 193 282 c 0,27,28
 255 282 255 282 286 248 c 1,29,-1
 286 293 l 2,30,31
 286 324 286 324 250 341 c 0,32,33
 222 354 222 354 187 354 c 0,34,35
 148 354 148 354 120 336 c 0,36,37
 89 316 89 316 83 282 c 1,38,-1
 23 282 l 1,39,40
 29 343 29 343 76 376 c 0,41,42
 120 407 120 407 189 407 c 0,43,44
 234 407 234 407 270 391 c 1,45,46
 291 410 291 410 291 439 c 1,47,-1
 361 439 l 1,48,49
 349 388 349 388 318 360 c 1,50,51
 348 328 348 328 348 286 c 2,52,-1
 348 0 l 1,0,-1
166 69 m 256,53,54
 166 83 166 83 156 93 c 128,-1,55
 146 103 146 103 132 103 c 256,56,57
 118 103 118 103 108 93 c 128,-1,58
 98 83 98 83 98 69 c 256,59,60
 98 55 98 55 108 45 c 128,-1,61
 118 35 118 35 132 35 c 256,62,63
 146 35 146 35 156 45 c 128,-1,64
 166 55 166 55 166 69 c 256,53,54
EndSplineSet
EndChar
StartChar: uni0E2B
Encoding: 3627 3627 256
Width: 438
Flags: W
Fore
387 0 m 1,0,-1
 325 0 l 1,1,-1
 325 222 l 2,2,3
 325 249 325 249 314 249 c 0,4,5
 306 249 306 249 291 224 c 2,6,-1
 161 0 l 1,7,-1
 103 0 l 1,8,-1
 103 257 l 1,9,10
 93 255 93 255 86 255 c 0,11,12
 54 255 54 255 32 277.5 c 128,-1,13
 10 300 10 300 10 332 c 0,14,15
 10 363 10 363 32 385 c 128,-1,16
 54 407 54 407 86 407 c 0,17,18
 120 407 120 407 142.5 384 c 128,-1,19
 165 361 165 361 165 326 c 2,20,-1
 165 177 l 2,21,22
 165 151 165 151 153 71 c 1,23,24
 163 114 163 114 183 150 c 2,25,-1
 238 245 l 2,26,27
 256 275 256 275 270 279 c 1,28,29
 250 304 250 304 250 331 c 0,30,31
 250 363 250 363 272 385 c 128,-1,32
 294 407 294 407 326 407 c 256,33,34
 358 407 358 407 380 385 c 128,-1,35
 402 363 402 363 402 331 c 0,36,37
 402 298 402 298 374 273 c 1,38,39
 387 248 387 248 387 219 c 2,40,-1
 387 0 l 1,0,-1
120 331 m 256,41,42
 120 345 120 345 110 355 c 128,-1,43
 100 365 100 365 86 365 c 256,44,45
 72 365 72 365 62 355 c 128,-1,46
 52 345 52 345 52 331 c 256,47,48
 52 317 52 317 62 307 c 128,-1,49
 72 297 72 297 86 297 c 256,50,51
 100 297 100 297 110 307 c 128,-1,52
 120 317 120 317 120 331 c 256,41,42
360 331 m 256,53,54
 360 345 360 345 350 355 c 128,-1,55
 340 365 340 365 326 365 c 256,56,57
 312 365 312 365 302 355 c 128,-1,58
 292 345 292 345 292 331 c 256,59,60
 292 317 292 317 302 307 c 128,-1,61
 312 297 312 297 326 297 c 256,62,63
 340 297 340 297 350 307 c 128,-1,64
 360 317 360 317 360 331 c 256,53,54
EndSplineSet
EndChar
StartChar: uni0E2C
Encoding: 3628 3628 257
AltUni: 63261
Width: 468
Flags: W
Fore
417 0 m 1,0,-1
 354 0 l 1,1,-1
 260 178 l 1,2,-1
 167 0 l 1,3,-1
 103 0 l 1,4,-1
 103 257 l 1,5,6
 93 255 93 255 86 255 c 0,7,8
 54 255 54 255 32 277.5 c 128,-1,9
 10 300 10 300 10 332 c 0,10,11
 10 363 10 363 32 385 c 128,-1,12
 54 407 54 407 86 407 c 0,13,14
 120 407 120 407 142.5 384 c 128,-1,15
 165 361 165 361 165 326 c 2,16,-1
 165 166 l 2,17,18
 165 135 165 135 153 68 c 1,19,20
 162 92 162 92 175 116 c 2,21,-1
 238 221 l 1,22,-1
 282 221 l 1,23,-1
 345 116 l 2,24,25
 358 92 358 92 367 68 c 1,26,27
 355 135 355 135 355 166 c 2,28,-1
 355 257 l 1,29,30
 345 255 345 255 338 255 c 0,31,32
 306 255 306 255 284 277.5 c 128,-1,33
 262 300 262 300 262 332 c 0,34,35
 262 363 262 363 284 385 c 128,-1,36
 306 407 306 407 338 407 c 0,37,38
 361 407 361 407 378 396 c 1,39,40
 397 412 397 412 402 439 c 1,41,-1
 456 439 l 1,42,43
 449 388 449 388 409 362 c 1,44,45
 417 346 417 346 417 326 c 2,46,-1
 417 0 l 1,0,-1
372 331 m 256,47,48
 372 345 372 345 362 355 c 128,-1,49
 352 365 352 365 338 365 c 256,50,51
 324 365 324 365 314 355 c 128,-1,52
 304 345 304 345 304 331 c 256,53,54
 304 317 304 317 314 307 c 128,-1,55
 324 297 324 297 338 297 c 256,56,57
 352 297 352 297 362 307 c 128,-1,58
 372 317 372 317 372 331 c 256,47,48
120 331 m 256,59,60
 120 345 120 345 110 355 c 128,-1,61
 100 365 100 365 86 365 c 256,62,63
 72 365 72 365 62 355 c 128,-1,64
 52 345 52 345 52 331 c 256,65,66
 52 317 52 317 62 307 c 128,-1,67
 72 297 72 297 86 297 c 256,68,69
 100 297 100 297 110 307 c 128,-1,70
 120 317 120 317 120 331 c 256,59,60
EndSplineSet
Substitution: 0 65534 'L055' uni0E2C.alt1
Substitution: 0 65534 'L055' uni0E2C.alt1
EndChar
StartChar: uni0E2D
Encoding: 3629 3629 258
Width: 394
Flags: W
Fore
343 90 m 2,0,1
 343 38 343 38 296 13 c 0,2,3
 258 -8 258 -8 198 -8 c 256,4,5
 138 -8 138 -8 101 13 c 0,6,7
 56 38 56 38 56 90 c 2,8,-1
 56 191 l 2,9,10
 56 227 56 227 76 251.5 c 128,-1,11
 96 276 96 276 133 276 c 0,12,13
 165 276 165 276 187 254.5 c 128,-1,14
 209 233 209 233 209 201 c 0,15,16
 209 170 209 170 187 148 c 128,-1,17
 165 126 165 126 133 126 c 0,18,19
 124 126 124 126 118 128 c 1,20,-1
 118 97 l 2,21,22
 118 45 118 45 199 45 c 0,23,24
 281 45 281 45 281 98 c 2,25,-1
 281 290 l 2,26,27
 281 323 281 323 250 340 c 0,28,29
 224 354 224 354 186 354 c 0,30,31
 91 354 91 354 83 305 c 1,32,-1
 23 305 l 1,33,34
 36 406 36 406 181 407 c 0,35,36
 248 407 248 407 291 382 c 0,37,38
 343 350 343 350 343 286 c 2,39,-1
 343 90 l 2,0,1
167 201 m 256,40,41
 167 215 167 215 157 225 c 128,-1,42
 147 235 147 235 133 235 c 256,43,44
 119 235 119 235 109 225 c 128,-1,45
 99 215 99 215 99 201 c 256,46,47
 99 187 99 187 109 177 c 128,-1,48
 119 167 119 167 133 167 c 256,49,50
 147 167 147 167 157 177 c 128,-1,51
 167 187 167 187 167 201 c 256,40,41
EndSplineSet
EndChar
StartChar: uni0E2E
Encoding: 3630 3630 259
Width: 385
Flags: W
Fore
259 336 m 1,0,1
 229 363 229 363 171 363 c 0,2,3
 91 363 91 363 91 338 c 0,4,5
 91 322 91 322 165 322 c 0,6,7
 225 322 225 322 259 336 c 1,0,1
334 90 m 2,8,9
 334 38 334 38 287 13 c 0,10,11
 249 -8 249 -8 189 -8 c 256,12,13
 129 -8 129 -8 92 13 c 0,14,15
 47 38 47 38 47 90 c 2,16,-1
 47 172 l 2,17,18
 47 208 47 208 67 232.5 c 128,-1,19
 87 257 87 257 124 257 c 0,20,21
 156 257 156 257 178 235.5 c 128,-1,22
 200 214 200 214 200 182 c 0,23,24
 200 151 200 151 178 129 c 128,-1,25
 156 107 156 107 124 107 c 0,26,27
 115 107 115 107 109 109 c 1,28,-1
 109 97 l 2,29,30
 109 45 109 45 190 45 c 0,31,32
 272 45 272 45 272 98 c 2,33,-1
 272 296 l 1,34,35
 226 281 226 281 160 281 c 0,36,37
 33 281 33 281 33 334 c 0,38,39
 33 408 33 408 180 408 c 0,40,41
 252 408 252 408 298 369 c 1,42,43
 306 384 306 384 311 408 c 1,44,-1
 371 408 l 1,45,46
 359 348 359 348 330 317 c 1,47,48
 334 304 334 304 334 283 c 2,49,-1
 334 90 l 2,8,9
158 182 m 256,50,51
 158 196 158 196 148 206 c 128,-1,52
 138 216 138 216 124 216 c 256,53,54
 110 216 110 216 100 206 c 128,-1,55
 90 196 90 196 90 182 c 256,56,57
 90 168 90 168 100 158 c 128,-1,58
 110 148 110 148 124 148 c 256,59,60
 138 148 138 148 148 158 c 128,-1,61
 158 168 158 168 158 182 c 256,50,51
EndSplineSet
EndChar
StartChar: uni0E2F
Encoding: 3631 3631 260
Width: 380
Flags: W
Fore
328 0 m 1,0,-1
 266 0 l 1,1,-1
 266 315 l 2,2,3
 266 351 266 351 255 353 c 1,4,5
 251 306 251 306 209.5 277.5 c 128,-1,6
 168 249 168 249 119 249 c 0,7,8
 80 249 80 249 54 269 c 0,9,10
 24 291 24 291 24 330 c 0,11,12
 24 362 24 362 46 384.5 c 128,-1,13
 68 407 68 407 100 407 c 256,14,15
 132 407 132 407 154.5 384.5 c 128,-1,16
 177 362 177 362 177 330 c 0,17,18
 177 325 177 325 175 315 c 1,19,20
 208 340 208 340 215 399 c 1,21,-1
 260 399 l 2,22,23
 328 399 328 399 328 327 c 2,24,-1
 328 0 l 1,0,-1
134 330 m 256,25,26
 134 344 134 344 124 354 c 128,-1,27
 114 364 114 364 100 364 c 256,28,29
 86 364 86 364 76 354 c 128,-1,30
 66 344 66 344 66 330 c 256,31,32
 66 316 66 316 76 306 c 128,-1,33
 86 296 86 296 100 296 c 256,34,35
 114 296 114 296 124 306 c 128,-1,36
 134 316 134 316 134 330 c 256,25,26
EndSplineSet
EndChar
StartChar: uni0E30
Encoding: 3632 3632 261
Width: 340
Flags: W
Fore
302 397 m 1,0,1
 297 238 297 238 153 238 c 0,2,3
 93 238 93 238 61 262.5 c 128,-1,4
 29 287 29 287 29 325 c 0,5,6
 29 354 29 354 49 374 c 128,-1,7
 69 394 69 394 98 394 c 0,8,9
 129 394 129 394 148.5 373.5 c 128,-1,10
 168 353 168 353 168 325 c 0,11,12
 168 298 168 298 153 285 c 1,13,14
 246 289 246 289 246 397 c 1,15,-1
 302 397 l 1,0,1
128 325 m 256,16,17
 128 338 128 338 119 347 c 128,-1,18
 110 356 110 356 97 356 c 256,19,20
 84 356 84 356 75.5 347 c 128,-1,21
 67 338 67 338 67 325 c 256,22,23
 67 312 67 312 75.5 303.5 c 128,-1,24
 84 295 84 295 97 295 c 256,25,26
 110 295 110 295 119 303.5 c 128,-1,27
 128 312 128 312 128 325 c 256,16,17
302 170 m 1,28,29
 297 11 297 11 153 11 c 0,30,31
 93 11 93 11 61 35.5 c 128,-1,32
 29 60 29 60 29 98 c 0,33,34
 29 127 29 127 49 147 c 128,-1,35
 69 167 69 167 98 167 c 0,36,37
 129 167 129 167 148.5 146.5 c 128,-1,38
 168 126 168 126 168 98 c 0,39,40
 168 71 168 71 153 58 c 1,41,42
 246 62 246 62 246 170 c 1,43,-1
 302 170 l 1,28,29
128 98 m 256,44,45
 128 111 128 111 119 120 c 128,-1,46
 110 129 110 129 97 129 c 256,47,48
 84 129 84 129 75.5 120 c 128,-1,49
 67 111 67 111 67 98 c 256,50,51
 67 85 67 85 75.5 76.5 c 128,-1,52
 84 68 84 68 97 68 c 256,53,54
 110 68 110 68 119 76.5 c 128,-1,55
 128 85 128 85 128 98 c 256,44,45
EndSplineSet
EndChar
StartChar: uni0E31
Encoding: 3633 3633 262
Width: 0
Flags: W
Fore
50 643 m 1,0,1
 24 477 24 477 -130 477 c 0,2,3
 -190 477 -190 477 -222 501.5 c 128,-1,4
 -254 526 -254 526 -254 564 c 0,5,6
 -254 593 -254 593 -234 613 c 128,-1,7
 -214 633 -214 633 -185 633 c 0,8,9
 -154 633 -154 633 -134.5 612.5 c 128,-1,10
 -115 592 -115 592 -115 564 c 0,11,12
 -115 537 -115 537 -130 524 c 1,13,14
 -26 528 -26 528 -9 643 c 1,15,-1
 50 643 l 1,0,1
-155 564 m 256,16,17
 -155 577 -155 577 -164 586 c 128,-1,18
 -173 595 -173 595 -186 595 c 256,19,20
 -199 595 -199 595 -207.5 586 c 128,-1,21
 -216 577 -216 577 -216 564 c 256,22,23
 -216 551 -216 551 -207.5 542.5 c 128,-1,24
 -199 534 -199 534 -186 534 c 256,25,26
 -173 534 -173 534 -164 542.5 c 128,-1,27
 -155 551 -155 551 -155 564 c 256,16,17
EndSplineSet
Substitution: 0 65534 'L055' uni0E31.alt1
Substitution: 0 65534 'L055' uni0E31.alt1
EndChar
StartChar: uni0E32
Encoding: 3634 3634 263
Width: 336
Flags: W
Fore
285 0 m 1,0,-1
 223 0 l 1,1,-1
 223 291 l 2,2,3
 223 319 223 319 204 336.5 c 128,-1,4
 185 354 185 354 152 354 c 256,5,6
 119 354 119 354 98 332 c 128,-1,7
 77 310 77 310 76 276 c 1,8,-1
 16 276 l 1,9,10
 19 336 19 336 55.5 371.5 c 128,-1,11
 92 407 92 407 152 407 c 0,12,13
 208 407 208 407 246.5 378.5 c 128,-1,14
 285 350 285 350 285 292 c 2,15,-1
 285 0 l 1,0,-1
EndSplineSet
EndChar
StartChar: uni0E33
Encoding: 3635 3635 264
Width: 336
Flags: W
Fore
-11 549 m 0,0,1
 -11 514 -11 514 -35.5 489.5 c 128,-1,2
 -60 465 -60 465 -95 465 c 0,3,4
 -131 465 -131 465 -155.5 489.5 c 128,-1,5
 -180 514 -180 514 -180 549 c 256,6,7
 -180 584 -180 584 -155 609 c 128,-1,8
 -130 634 -130 634 -95 634 c 256,9,10
 -60 634 -60 634 -35.5 609.5 c 128,-1,11
 -11 585 -11 585 -11 549 c 0,0,1
-55 549 m 256,12,13
 -55 566 -55 566 -66.5 578 c 128,-1,14
 -78 590 -78 590 -95 590 c 256,15,16
 -112 590 -112 590 -124 578 c 128,-1,17
 -136 566 -136 566 -136 549 c 256,18,19
 -136 532 -136 532 -124 520.5 c 128,-1,20
 -112 509 -112 509 -95 509 c 256,21,22
 -78 509 -78 509 -66.5 520.5 c 128,-1,23
 -55 532 -55 532 -55 549 c 256,12,13
285 0 m 1,24,-1
 223 0 l 1,25,-1
 223 291 l 2,26,27
 223 319 223 319 204 336.5 c 128,-1,28
 185 354 185 354 152 354 c 256,29,30
 119 354 119 354 98 332 c 128,-1,31
 77 310 77 310 76 276 c 1,32,-1
 16 276 l 1,33,34
 19 336 19 336 55.5 371.5 c 128,-1,35
 92 407 92 407 152 407 c 0,36,37
 208 407 208 407 246.5 378.5 c 128,-1,38
 285 350 285 350 285 292 c 2,39,-1
 285 0 l 1,24,-1
EndSplineSet
Substitution: 0 65534 'L055' uni0E33.alt1
Substitution: 0 65534 'L055' uni0E33.alt1
EndChar
StartChar: uni0E34
Encoding: 3636 3636 265
Width: 0
Flags: W
Fore
-49 450 m 1,0,1
 -173 490 -173 490 -276 490 c 0,2,3
 -323 490 -323 490 -371 484 c 1,4,5
 -359 618 -359 618 -225 618 c 0,6,7
 -148 618 -148 618 -103 571.5 c 128,-1,8
 -58 525 -58 525 -49 450 c 1,0,1
-113 509 m 1,9,10
 -119 534 -119 534 -149 556 c 128,-1,11
 -179 578 -179 578 -217 578 c 0,12,13
 -253 578 -253 578 -279 563.5 c 128,-1,14
 -305 549 -305 549 -312 525 c 1,15,16
 -295 529 -295 529 -259 529 c 0,17,18
 -185 529 -185 529 -113 509 c 1,9,10
EndSplineSet
Substitution: 0 65534 'L055' uni0E34.alt1
Substitution: 0 65534 'L055' uni0E34.alt1
EndChar
StartChar: uni0E35
Encoding: 3637 3637 266
Width: 0
Flags: W
Fore
-49 450 m 1,0,1
 -173 490 -173 490 -276 490 c 0,2,3
 -323 490 -323 490 -371 484 c 1,4,5
 -359 618 -359 618 -225 618 c 0,6,7
 -154 618 -154 618 -111 579 c 1,8,-1
 -111 648 l 1,9,-1
 -51 648 l 1,10,-1
 -51 464 l 1,11,12
 -49 450 l 1,0,1
-113 509 m 1,13,14
 -119 534 -119 534 -149 556 c 128,-1,15
 -179 578 -179 578 -217 578 c 0,16,17
 -253 578 -253 578 -279 563.5 c 128,-1,18
 -305 549 -305 549 -312 525 c 1,19,20
 -295 529 -295 529 -259 529 c 0,21,22
 -185 529 -185 529 -113 509 c 1,13,14
EndSplineSet
Substitution: 0 65534 'L055' uni0E35.alt1
Substitution: 0 65534 'L055' uni0E35.alt1
EndChar
StartChar: uni0E36
Encoding: 3638 3638 267
Width: 0
Flags: W
Fore
-113 509 m 1,0,1
 -119 534 -119 534 -149 556 c 128,-1,2
 -179 578 -179 578 -217 578 c 0,3,4
 -253 578 -253 578 -279 563.5 c 128,-1,5
 -305 549 -305 549 -312 525 c 1,6,7
 -295 529 -295 529 -259 529 c 0,8,9
 -185 529 -185 529 -113 509 c 1,0,1
-69 598 m 256,10,11
 -69 610 -69 610 -77.5 618.5 c 128,-1,12
 -86 627 -86 627 -97 627 c 256,13,14
 -108 627 -108 627 -117 618.5 c 128,-1,15
 -126 610 -126 610 -126 598 c 256,16,17
 -126 586 -126 586 -117 578 c 128,-1,18
 -108 570 -108 570 -97 570 c 256,19,20
 -86 570 -86 570 -77.5 578 c 128,-1,21
 -69 586 -69 586 -69 598 c 256,10,11
-38 598 m 0,22,23
 -38 578 -38 578 -49.5 562 c 128,-1,24
 -61 546 -61 546 -79 541 c 1,25,26
 -55 502 -55 502 -49 450 c 1,27,28
 -173 490 -173 490 -276 490 c 0,29,30
 -323 490 -323 490 -371 484 c 1,31,32
 -359 618 -359 618 -225 618 c 0,33,34
 -186 618 -186 618 -155 606 c 1,35,36
 -152 628 -152 628 -136 643 c 128,-1,37
 -120 658 -120 658 -97 658 c 0,38,39
 -72 658 -72 658 -55 640.5 c 128,-1,40
 -38 623 -38 623 -38 598 c 0,22,23
EndSplineSet
Substitution: 0 65534 'L055' uni0E36.alt1
Substitution: 0 65534 'L055' uni0E36.alt1
EndChar
StartChar: uni0E37
Encoding: 3639 3639 268
Width: 0
Flags: W
Fore
-49 450 m 1,0,1
 -173 490 -173 490 -276 490 c 0,2,3
 -323 490 -323 490 -371 484 c 1,4,5
 -359 618 -359 618 -225 618 c 0,6,7
 -210 618 -210 618 -197 616 c 1,8,-1
 -197 648 l 1,9,-1
 -152 648 l 1,10,-1
 -152 606 l 1,11,12
 -130 597 -130 597 -111 579 c 1,13,-1
 -111 648 l 1,14,-1
 -51 648 l 1,15,-1
 -51 464 l 1,16,-1
 -49 450 l 1,0,1
-113 509 m 1,17,18
 -119 534 -119 534 -149 556 c 128,-1,19
 -179 578 -179 578 -217 578 c 0,20,21
 -253 578 -253 578 -279 563.5 c 128,-1,22
 -305 549 -305 549 -312 525 c 1,23,24
 -295 529 -295 529 -259 529 c 0,25,26
 -185 529 -185 529 -113 509 c 1,17,18
EndSplineSet
Substitution: 0 65534 'L055' uni0E37.alt1
Substitution: 0 65534 'L055' uni0E37.alt1
EndChar
StartChar: uni0E38
Encoding: 3640 3640 269
Width: 0
Flags: W
Fore
-51 -235 m 1,0,-1
 -111 -235 l 1,1,-1
 -111 -159 l 1,2,-1
 -115 -159 l 2,3,4
 -140 -159 -140 -159 -157.5 -141.5 c 128,-1,5
 -175 -124 -175 -124 -175 -100 c 0,6,7
 -175 -75 -175 -75 -157.5 -57 c 128,-1,8
 -140 -39 -140 -39 -114 -39 c 0,9,10
 -89 -39 -89 -39 -70 -55 c 128,-1,11
 -51 -71 -51 -71 -51 -99 c 2,12,-1
 -51 -235 l 1,0,-1
-86 -97 m 256,13,14
 -86 -86 -86 -86 -94 -78 c 128,-1,15
 -102 -70 -102 -70 -113 -70 c 256,16,17
 -124 -70 -124 -70 -132.5 -78 c 128,-1,18
 -141 -86 -141 -86 -141 -97 c 256,19,20
 -141 -108 -141 -108 -132.5 -116.5 c 128,-1,21
 -124 -125 -124 -125 -113 -125 c 256,22,23
 -102 -125 -102 -125 -94 -116.5 c 128,-1,24
 -86 -108 -86 -108 -86 -97 c 256,13,14
EndSplineSet
Substitution: 0 65534 'L056' a
Substitution: 0 65534 'L055' uni0E38.alt1
Substitution: 0 65534 'L056' a
Substitution: 0 65534 'L055' uni0E38.alt1
EndChar
StartChar: uni0E39
Encoding: 3641 3641 270
Width: 0
Flags: W
Fore
-51 -182 m 2,0,1
 -51 -215 -51 -215 -79 -232 c 0,2,3
 -103 -247 -103 -247 -142 -247 c 0,4,5
 -176 -247 -176 -247 -201 -233 c 0,6,7
 -229 -217 -229 -217 -229 -189 c 2,8,-1
 -229 -159 l 1,9,-1
 -235 -159 l 2,10,11
 -260 -159 -260 -159 -277.5 -141.5 c 128,-1,12
 -295 -124 -295 -124 -295 -100 c 0,13,14
 -295 -75 -295 -75 -277.5 -57 c 128,-1,15
 -260 -39 -260 -39 -234 -39 c 0,16,17
 -209 -39 -209 -39 -190 -55 c 128,-1,18
 -171 -71 -171 -71 -171 -99 c 2,19,-1
 -171 -189 l 2,20,21
 -171 -204 -171 -204 -141 -204 c 0,22,23
 -109 -204 -109 -204 -109 -189 c 2,24,-1
 -109 -48 l 1,25,-1
 -51 -48 l 1,26,-1
 -51 -182 l 2,0,1
-206 -97 m 256,27,28
 -206 -86 -206 -86 -214 -78 c 128,-1,29
 -222 -70 -222 -70 -233 -70 c 256,30,31
 -244 -70 -244 -70 -252.5 -78 c 128,-1,32
 -261 -86 -261 -86 -261 -97 c 256,33,34
 -261 -108 -261 -108 -252.5 -116.5 c 128,-1,35
 -244 -125 -244 -125 -233 -125 c 256,36,37
 -222 -125 -222 -125 -214 -116.5 c 128,-1,38
 -206 -108 -206 -108 -206 -97 c 256,27,28
EndSplineSet
Substitution: 0 65534 'L056' b
Substitution: 0 65534 'L055' uni0E39.alt1
Substitution: 0 65534 'L056' b
Substitution: 0 65534 'L055' uni0E39.alt1
EndChar
StartChar: uni0E3A
Encoding: 3642 3642 271
Width: 0
Flags: W
Fore
-37 -76 m 256,0,1
 -37 -90 -37 -90 -47.5 -100.5 c 128,-1,2
 -58 -111 -58 -111 -72 -111 c 256,3,4
 -86 -111 -86 -111 -96.5 -100.5 c 128,-1,5
 -107 -90 -107 -90 -107 -76 c 256,6,7
 -107 -62 -107 -62 -96.5 -51.5 c 128,-1,8
 -86 -41 -86 -41 -72 -41 c 256,9,10
 -58 -41 -58 -41 -47.5 -51.5 c 128,-1,11
 -37 -62 -37 -62 -37 -76 c 256,0,1
EndSplineSet
Substitution: 0 65534 'L056' c
Substitution: 0 65534 'L055' uni0E3A.alt1
Substitution: 0 65534 'L056' c
Substitution: 0 65534 'L055' uni0E3A.alt1
EndChar
StartChar: uni0E3F
Encoding: 3647 3647 272
Width: 389
Flags: W
Fore
335 151 m 0,0,1
 335 44 335 44 212 25 c 1,2,-1
 212 -56 l 1,3,-1
 157 -56 l 1,4,-1
 157 21 l 1,5,6
 122 21 122 21 64 31 c 1,7,-1
 64 442 l 1,8,9
 122 455 122 455 157 456 c 1,10,-1
 157 522 l 1,11,-1
 212 522 l 1,12,-1
 212 453 l 1,13,14
 319 436 319 436 319 342 c 0,15,16
 319 287 319 287 272 252 c 1,17,18
 335 215 335 215 335 151 c 0,0,1
278 150 m 0,19,20
 278 223 278 223 168 223 c 2,21,-1
 123 223 l 1,22,-1
 123 77 l 1,23,24
 140 74 140 74 161 74 c 0,25,26
 208 74 208 74 240 91 c 0,27,28
 278 111 278 111 278 150 c 0,19,20
260 341 m 0,29,30
 260 403 260 403 162 403 c 0,31,32
 156 403 156 403 123 398 c 1,33,-1
 123 278 l 1,34,-1
 178 278 l 2,35,36
 216 278 216 278 238 296 c 128,-1,37
 260 314 260 314 260 341 c 0,29,30
EndSplineSet
EndChar
StartChar: uni0E40
Encoding: 3648 3648 273
Width: 208
Flags: W
Fore
204 68 m 256,0,1
 204 36 204 36 181.5 14 c 128,-1,2
 159 -8 159 -8 128 -8 c 0,3,4
 94 -8 94 -8 71 15 c 128,-1,5
 48 38 48 38 48 73 c 2,6,-1
 48 399 l 1,7,-1
 110 399 l 1,8,-1
 110 142 l 1,9,10
 115 144 115 144 128 144 c 0,11,12
 159 144 159 144 181.5 122 c 128,-1,13
 204 100 204 100 204 68 c 256,0,1
162 68 m 256,14,15
 162 82 162 82 152 92 c 128,-1,16
 142 102 142 102 128 102 c 256,17,18
 114 102 114 102 104 92 c 128,-1,19
 94 82 94 82 94 68 c 256,20,21
 94 54 94 54 104 44 c 128,-1,22
 114 34 114 34 128 34 c 256,23,24
 142 34 142 34 152 44 c 128,-1,25
 162 54 162 54 162 68 c 256,14,15
EndSplineSet
KernsSLIFO: 252 -20 0 0 248 -25 0 0 230 -30 0 0 224 -30 0 0 223 -30 0 0 221 -20 0 0 216 -30 0 0 215 -30 0 0
EndChar
StartChar: uni0E41
Encoding: 3649 3649 274
Width: 395
Flags: W
Fore
204 68 m 256,0,1
 204 36 204 36 181.5 14 c 128,-1,2
 159 -8 159 -8 128 -8 c 0,3,4
 94 -8 94 -8 71 15 c 128,-1,5
 48 38 48 38 48 73 c 2,6,-1
 48 399 l 1,7,-1
 110 399 l 1,8,-1
 110 142 l 1,9,10
 115 144 115 144 128 144 c 0,11,12
 159 144 159 144 181.5 122 c 128,-1,13
 204 100 204 100 204 68 c 256,0,1
391 68 m 256,14,15
 391 36 391 36 368.5 14 c 128,-1,16
 346 -8 346 -8 315 -8 c 0,17,18
 281 -8 281 -8 258 15 c 128,-1,19
 235 38 235 38 235 73 c 2,20,-1
 235 399 l 1,21,-1
 297 399 l 1,22,-1
 297 142 l 1,23,24
 302 144 302 144 315 144 c 0,25,26
 346 144 346 144 368.5 122 c 128,-1,27
 391 100 391 100 391 68 c 256,14,15
162 68 m 256,28,29
 162 82 162 82 152 92 c 128,-1,30
 142 102 142 102 128 102 c 256,31,32
 114 102 114 102 104 92 c 128,-1,33
 94 82 94 82 94 68 c 256,34,35
 94 54 94 54 104 44 c 128,-1,36
 114 34 114 34 128 34 c 256,37,38
 142 34 142 34 152 44 c 128,-1,39
 162 54 162 54 162 68 c 256,28,29
349 68 m 256,40,41
 349 82 349 82 339 92 c 128,-1,42
 329 102 329 102 315 102 c 256,43,44
 301 102 301 102 291 92 c 128,-1,45
 281 82 281 82 281 68 c 256,46,47
 281 54 281 54 291 44 c 128,-1,48
 301 34 301 34 315 34 c 256,49,50
 329 34 329 34 339 44 c 128,-1,51
 349 54 349 54 349 68 c 256,40,41
EndSplineSet
KernsSLIFO: 252 -20 0 0 248 -25 0 0 230 -20 0 0 224 -30 0 0 223 -30 0 0 221 -20 0 0 216 -30 0 0 215 -30 0 0
EndChar
StartChar: uni0E42
Encoding: 3650 3650 275
Width: 252
Flags: W
Fore
248 68 m 256,0,1
 248 36 248 36 225.5 14 c 128,-1,2
 203 -8 203 -8 172 -8 c 0,3,4
 138 -8 138 -8 115 15 c 128,-1,5
 92 38 92 38 92 73 c 2,6,-1
 92 470 l 1,7,8
 87 504 87 504 42 525 c 0,9,10
 5 542 5 542 -33 542 c 1,11,12
 -28 656 -28 656 69 656 c 0,13,14
 95 656 95 656 127.5 639.5 c 128,-1,15
 160 623 160 623 173 623 c 0,16,17
 184 623 184 623 195 653 c 1,18,-1
 241 641 l 1,19,20
 222 573 222 573 181 573 c 0,21,22
 162 573 162 573 127 589.5 c 128,-1,23
 92 606 92 606 69 606 c 0,24,25
 34 606 34 606 23 581 c 1,26,27
 154 547 154 547 154 465 c 2,28,-1
 154 142 l 1,29,30
 159 144 159 144 172 144 c 0,31,32
 203 144 203 144 225.5 122 c 128,-1,33
 248 100 248 100 248 68 c 256,0,1
206 68 m 256,34,35
 206 82 206 82 196 92 c 128,-1,36
 186 102 186 102 172 102 c 256,37,38
 158 102 158 102 148 92 c 128,-1,39
 138 82 138 82 138 68 c 256,40,41
 138 54 138 54 148 44 c 128,-1,42
 158 34 158 34 172 34 c 256,43,44
 186 34 186 34 196 44 c 128,-1,45
 206 54 206 54 206 68 c 256,34,35
EndSplineSet
KernsSLIFO: 252 -20 0 0 248 -25 0 0 230 -30 0 0 224 -30 0 0 223 -30 0 0 221 -20 0 0 216 -30 0 0 215 -30 0 0
EndChar
StartChar: uni0E43
Encoding: 3651 3651 276
Width: 269
Flags: W
Fore
265 68 m 256,0,1
 265 36 265 36 242.5 14 c 128,-1,2
 220 -8 220 -8 189 -8 c 0,3,4
 155 -8 155 -8 132 15 c 128,-1,5
 109 38 109 38 109 73 c 2,6,-1
 109 450 l 2,7,8
 109 473 109 473 126.5 510.5 c 128,-1,9
 144 548 144 548 144 567 c 0,10,11
 144 589 144 589 128.5 602 c 128,-1,12
 113 615 113 615 91 615 c 0,13,14
 57 615 57 615 41 603 c 1,15,16
 66 603 66 603 83 584 c 0,17,18
 97 567 97 567 97 544 c 0,19,20
 97 517 97 517 78 497.5 c 128,-1,21
 59 478 59 478 31 478 c 0,22,23
 2 478 2 478 -16 499 c 128,-1,24
 -34 520 -34 520 -34 548 c 0,25,26
 -34 602 -34 602 2 632 c 0,27,28
 35 659 35 659 89 659 c 0,29,30
 133 659 133 659 166 636 c 0,31,32
 203 610 203 610 203 569 c 0,33,34
 203 546 203 546 187 504.5 c 128,-1,35
 171 463 171 463 171 442 c 2,36,-1
 171 142 l 1,37,38
 176 144 176 144 189 144 c 0,39,40
 220 144 220 144 242.5 122 c 128,-1,41
 265 100 265 100 265 68 c 256,0,1
223 68 m 256,42,43
 223 82 223 82 213 92 c 128,-1,44
 203 102 203 102 189 102 c 256,45,46
 175 102 175 102 165 92 c 128,-1,47
 155 82 155 82 155 68 c 256,48,49
 155 54 155 54 165 44 c 128,-1,50
 175 34 175 34 189 34 c 256,51,52
 203 34 203 34 213 44 c 128,-1,53
 223 54 223 54 223 68 c 256,42,43
62 543 m 256,54,55
 62 556 62 556 53 565 c 128,-1,56
 44 574 44 574 31 574 c 256,57,58
 18 574 18 574 9 565 c 128,-1,59
 0 556 0 556 0 543 c 256,60,61
 0 530 0 530 9 521 c 128,-1,62
 18 512 18 512 31 512 c 256,63,64
 44 512 44 512 53 521 c 128,-1,65
 62 530 62 530 62 543 c 256,54,55
EndSplineSet
KernsSLIFO: 252 -20 0 0 248 -25 0 0 230 -30 0 0 224 -30 0 0 223 -30 0 0 221 -20 0 0 216 -30 0 0 215 -30 0 0
EndChar
StartChar: uni0E44
Encoding: 3652 3652 277
Width: 252
Flags: W
Fore
248 68 m 256,0,1
 248 36 248 36 225.5 14 c 128,-1,2
 203 -8 203 -8 172 -8 c 0,3,4
 138 -8 138 -8 115 15 c 128,-1,5
 92 38 92 38 92 73 c 2,6,-1
 92 567 l 1,7,-1
 32 479 l 1,8,-1
 -8 491 l 1,9,10
 -12 585 -12 585 -36 666 c 1,11,-1
 18 666 l 1,12,13
 30 587 30 587 31 547 c 1,14,-1
 102 658 l 1,15,16
 122 655 122 655 138 639 c 128,-1,17
 154 623 154 623 154 601 c 2,18,-1
 154 142 l 1,19,20
 159 144 159 144 172 144 c 0,21,22
 203 144 203 144 225.5 122 c 128,-1,23
 248 100 248 100 248 68 c 256,0,1
206 68 m 256,24,25
 206 82 206 82 196 92 c 128,-1,26
 186 102 186 102 172 102 c 256,27,28
 158 102 158 102 148 92 c 128,-1,29
 138 82 138 82 138 68 c 256,30,31
 138 54 138 54 148 44 c 128,-1,32
 158 34 158 34 172 34 c 256,33,34
 186 34 186 34 196 44 c 128,-1,35
 206 54 206 54 206 68 c 256,24,25
EndSplineSet
KernsSLIFO: 252 -20 0 0 248 -25 0 0 230 -30 0 0 224 -30 0 0 223 -30 0 0 221 -20 0 0 216 -30 0 0 215 -30 0 0
EndChar
StartChar: uni0E45
Encoding: 3653 3653 278
Width: 209
Flags: W
Fore
158 -140 m 1,0,-1
 96 -140 l 1,1,-1
 96 291 l 2,2,3
 96 319 96 319 77 336.5 c 128,-1,4
 58 354 58 354 25 354 c 256,5,6
 -8 354 -8 354 -29 332 c 128,-1,7
 -50 310 -50 310 -51 276 c 1,8,-1
 -111 276 l 1,9,10
 -108 336 -108 336 -71.5 371.5 c 128,-1,11
 -35 407 -35 407 25 407 c 0,12,13
 81 407 81 407 119.5 378.5 c 128,-1,14
 158 350 158 350 158 292 c 2,15,-1
 158 -140 l 1,0,-1
EndSplineSet
EndChar
StartChar: uni0E46
Encoding: 3654 3654 279
Width: 437
Flags: W
Fore
381 -140 m 1,0,-1
 319 -140 l 1,1,-1
 319 289 l 2,2,3
 319 330 319 330 280 355 c 1,4,-1
 234 319 l 1,5,-1
 175 356 l 1,6,7
 158 345 158 345 151 325 c 1,8,-1
 158 325 l 2,9,10
 190 325 190 325 212.5 302.5 c 128,-1,11
 235 280 235 280 235 248 c 256,12,13
 235 216 235 216 212.5 193.5 c 128,-1,14
 190 171 190 171 158 171 c 0,15,16
 118 171 118 171 95 202 c 128,-1,17
 72 233 72 233 72 274 c 0,18,19
 72 324 72 324 103.5 362.5 c 128,-1,20
 135 401 135 401 184 413 c 1,21,-1
 232 375 l 1,22,-1
 275 413 l 1,23,24
 323 401 323 401 352 368.5 c 128,-1,25
 381 336 381 336 381 290 c 2,26,-1
 381 -140 l 1,0,-1
193 248 m 256,27,28
 193 263 193 263 182 274 c 128,-1,29
 171 285 171 285 156 285 c 256,30,31
 141 285 141 285 130 274 c 128,-1,32
 119 263 119 263 119 248 c 256,33,34
 119 233 119 233 130 222 c 128,-1,35
 141 211 141 211 156 211 c 256,36,37
 171 211 171 211 182 222 c 128,-1,38
 193 233 193 233 193 248 c 256,27,28
EndSplineSet
EndChar
StartChar: uni0E47
Encoding: 3655 3655 280
Width: 0
Flags: W
Fore
-63 521 m 256,0,1
 -63 500 -63 500 -78 484.5 c 128,-1,2
 -93 469 -93 469 -115 469 c 0,3,4
 -164 469 -164 469 -227 511 c 1,5,6
 -240 507 -240 507 -255.5 491.5 c 128,-1,7
 -271 476 -271 476 -273 464 c 1,8,9
 -326 499 -326 499 -326 549 c 0,10,11
 -326 588 -326 588 -295 610 c 0,12,13
 -268 630 -268 630 -225 630 c 2,14,-1
 -157 630 l 2,15,16
 -108 630 -108 630 -108 674 c 2,17,-1
 -108 697 l 1,18,-1
 -60 697 l 1,19,-1
 -60 675 l 2,20,21
 -60 634 -60 634 -87 612 c 128,-1,22
 -114 590 -114 590 -156 590 c 2,23,-1
 -229 590 l 2,24,25
 -245 590 -245 590 -258 579.5 c 128,-1,26
 -271 569 -271 569 -271 552 c 0,27,28
 -271 536 -271 536 -265 526 c 1,29,30
 -250 549 -250 549 -220 551 c 1,31,32
 -197 536 -197 536 -165 525 c 1,33,34
 -165 545 -165 545 -149.5 559 c 128,-1,35
 -134 573 -134 573 -115 573 c 0,36,37
 -93 573 -93 573 -78 557.5 c 128,-1,38
 -63 542 -63 542 -63 521 c 256,0,1
-93 521 m 256,39,40
 -93 530 -93 530 -99.5 536.5 c 128,-1,41
 -106 543 -106 543 -115 543 c 256,42,43
 -124 543 -124 543 -130.5 536.5 c 128,-1,44
 -137 530 -137 530 -137 521 c 256,45,46
 -137 512 -137 512 -130.5 505.5 c 128,-1,47
 -124 499 -124 499 -115 499 c 256,48,49
 -106 499 -106 499 -99.5 505.5 c 128,-1,50
 -93 512 -93 512 -93 521 c 256,39,40
EndSplineSet
Substitution: 0 65534 'L055' uni0E47.alt1
Substitution: 0 65534 'L055' uni0E47.alt1
EndChar
StartChar: uni0E48
Encoding: 3656 3656 281
Width: 0
Flags: W
Fore
-51 677 m 1,0,-1
 -111 677 l 1,1,-1
 -111 791 l 1,2,-1
 -51 791 l 1,3,-1
 -51 677 l 1,0,-1
EndSplineSet
Substitution: 0 65534 'L055' uni0E48.alt2
Substitution: 0 65534 'L055' uni0E48.alt2
EndChar
StartChar: uni0E49
Encoding: 3657 3657 282
Width: 0
Flags: W
Fore
22 835 m 1,0,1
 4 740 4 740 -44.5 703.5 c 128,-1,2
 -93 667 -93 667 -186 667 c 2,3,-1
 -214 667 l 1,4,-1
 -214 700 l 1,5,6
 -174 703 -174 703 -165 729 c 1,7,8
 -216 742 -216 742 -216 788 c 0,9,10
 -216 812 -216 812 -199 828 c 128,-1,11
 -182 844 -182 844 -158 844 c 0,12,13
 -131 844 -131 844 -115.5 827.5 c 128,-1,14
 -100 811 -100 811 -100 785 c 0,15,16
 -100 746 -100 746 -144 702 c 1,17,18
 -95 712 -95 712 -64 748.5 c 128,-1,19
 -33 785 -33 785 -30 835 c 1,20,-1
 22 835 l 1,0,1
-133 786 m 256,21,22
 -133 797 -133 797 -140.5 804.5 c 128,-1,23
 -148 812 -148 812 -159 812 c 256,24,25
 -170 812 -170 812 -177.5 804.5 c 128,-1,26
 -185 797 -185 797 -185 786 c 256,27,28
 -185 775 -185 775 -177.5 767.5 c 128,-1,29
 -170 760 -170 760 -159 760 c 256,30,31
 -148 760 -148 760 -140.5 767.5 c 128,-1,32
 -133 775 -133 775 -133 786 c 256,21,22
EndSplineSet
Substitution: 0 65534 'L055' uni0E49.alt2
Substitution: 0 65534 'L055' uni0E49.alt2
EndChar
StartChar: uni0E4A
Encoding: 3658 3658 283
Width: 0
Flags: W
Fore
-6 829 m 1,0,1
 -10 672 -10 672 -158 672 c 1,2,-1
 -158 701 l 1,3,4
 -119 720 -119 720 -119 761 c 0,5,6
 -119 790 -119 790 -148 798 c 1,7,-1
 -179 766 l 1,8,-1
 -211 800 l 1,9,10
 -228 796 -228 796 -241 778 c 1,11,12
 -217 778 -217 778 -200.5 762 c 128,-1,13
 -184 746 -184 746 -184 722 c 0,14,15
 -184 700 -184 700 -200 684 c 128,-1,16
 -216 668 -216 668 -239 668 c 0,17,18
 -263 668 -263 668 -279 683.5 c 128,-1,19
 -295 699 -295 699 -295 726 c 0,20,21
 -295 744 -295 744 -289 762 c 128,-1,22
 -283 780 -283 780 -271.5 796 c 128,-1,23
 -260 812 -260 812 -242.5 822.5 c 128,-1,24
 -225 833 -225 833 -201 836 c 1,25,-1
 -178 810 l 1,26,-1
 -155 836 l 1,27,28
 -124 835 -124 835 -103.5 815 c 128,-1,29
 -83 795 -83 795 -83 764 c 0,30,31
 -83 736 -83 736 -95 714 c 1,32,33
 -48 743 -48 743 -48 829 c 1,34,-1
 -6 829 l 1,0,1
-215 722 m 256,35,36
 -215 733 -215 733 -222 740.5 c 128,-1,37
 -229 748 -229 748 -240 748 c 256,38,39
 -251 748 -251 748 -258.5 740.5 c 128,-1,40
 -266 733 -266 733 -266 722 c 256,41,42
 -266 711 -266 711 -258.5 704 c 128,-1,43
 -251 697 -251 697 -240 697 c 256,44,45
 -229 697 -229 697 -222 704 c 128,-1,46
 -215 711 -215 711 -215 722 c 256,35,36
EndSplineSet
Substitution: 0 65534 'L055' uni0E4A.alt2
Substitution: 0 65534 'L055' uni0E4A.alt2
EndChar
StartChar: uni0E4B
Encoding: 3659 3659 284
Width: 0
Flags: W
Fore
-1 721 m 1,0,-1
 -53 721 l 1,1,-1
 -53 677 l 1,2,-1
 -108 677 l 1,3,-1
 -108 721 l 1,4,-1
 -156 721 l 1,5,-1
 -156 762 l 1,6,-1
 -108 762 l 1,7,-1
 -108 804 l 1,8,-1
 -53 804 l 1,9,-1
 -53 762 l 1,10,-1
 -1 762 l 1,11,-1
 -1 721 l 1,0,-1
EndSplineSet
Substitution: 0 65534 'L055' uni0E4B.alt2
Substitution: 0 65534 'L055' uni0E4B.alt2
EndChar
StartChar: uni0E4C
Encoding: 3660 3660 285
Width: 0
Flags: W
Fore
-10 835 m 1,0,1
 -13 798 -13 798 -35 779 c 0,2,3
 -52 763 -52 763 -92 752 c 1,4,5
 -59 736 -59 736 -59 699 c 0,6,7
 -59 674 -59 674 -76.5 656.5 c 128,-1,8
 -94 639 -94 639 -119 639 c 256,9,10
 -144 639 -144 639 -161.5 657 c 128,-1,11
 -179 675 -179 675 -179 700 c 0,12,13
 -179 763 -179 763 -111 785 c 0,14,15
 -80 795 -80 795 -71 801 c 0,16,17
 -51 813 -51 813 -51 835 c 1,18,-1
 -10 835 l 1,0,1
-93 699 m 256,19,20
 -93 710 -93 710 -100 717.5 c 128,-1,21
 -107 725 -107 725 -118 725 c 256,22,23
 -129 725 -129 725 -136.5 717.5 c 128,-1,24
 -144 710 -144 710 -144 699 c 256,25,26
 -144 688 -144 688 -136.5 681 c 128,-1,27
 -129 674 -129 674 -118 674 c 256,28,29
 -107 674 -107 674 -100 681 c 128,-1,30
 -93 688 -93 688 -93 699 c 256,19,20
EndSplineSet
Substitution: 0 65534 'L055' uni0E4C.alt2
Substitution: 0 65534 'L055' uni0E4C.alt2
EndChar
StartChar: uni0E4D
Encoding: 3661 3661 286
Width: 0
Flags: W
Fore
-11 549 m 0,0,1
 -11 514 -11 514 -35.5 489.5 c 128,-1,2
 -60 465 -60 465 -95 465 c 0,3,4
 -131 465 -131 465 -155.5 489.5 c 128,-1,5
 -180 514 -180 514 -180 549 c 256,6,7
 -180 584 -180 584 -155 609 c 128,-1,8
 -130 634 -130 634 -95 634 c 256,9,10
 -60 634 -60 634 -35.5 609.5 c 128,-1,11
 -11 585 -11 585 -11 549 c 0,0,1
-55 549 m 256,12,13
 -55 566 -55 566 -66.5 578 c 128,-1,14
 -78 590 -78 590 -95 590 c 256,15,16
 -112 590 -112 590 -124 578 c 128,-1,17
 -136 566 -136 566 -136 549 c 256,18,19
 -136 532 -136 532 -124 520.5 c 128,-1,20
 -112 509 -112 509 -95 509 c 256,21,22
 -78 509 -78 509 -66.5 520.5 c 128,-1,23
 -55 532 -55 532 -55 549 c 256,12,13
EndSplineSet
Substitution: 0 65534 'L055' uni0E4D.alt1
Substitution: 0 65534 'L055' uni0E4D.alt1
EndChar
StartChar: uni0E4E
Encoding: 3662 3662 287
Width: 0
Flags: W
Fore
-102 464 m 1,0,1
 -122 455 -122 455 -152 455 c 0,2,3
 -179 455 -179 455 -199 471.5 c 128,-1,4
 -219 488 -219 488 -219 514 c 0,5,6
 -219 538 -219 538 -203.5 555.5 c 128,-1,7
 -188 573 -188 573 -165 577 c 1,8,9
 -175 592 -175 592 -175 608 c 0,10,11
 -175 641 -175 641 -149 658 c 0,12,13
 -126 672 -126 672 -93 672 c 0,14,15
 -65 672 -65 672 -39 662 c 1,16,-1
 -54 625 l 1,17,18
 -74 632 -74 632 -94 632 c 0,19,20
 -131 632 -131 632 -131 608 c 0,21,22
 -131 581 -131 581 -79 576 c 1,23,-1
 -95 538 l 1,24,25
 -114 545 -114 545 -127 545 c 0,26,27
 -177 545 -177 545 -177 513 c 0,28,29
 -177 493 -177 493 -139 493 c 0,30,31
 -124 493 -124 493 -102 502 c 1,32,-1
 -102 464 l 1,0,1
EndSplineSet
Substitution: 0 65534 'L055' uni0E4E.alt1
Substitution: 0 65534 'L055' uni0E4E.alt1
EndChar
StartChar: uni0E4F
Encoding: 3663 3663 288
Width: 450
Flags: W
Fore
289 163 m 0,0,1
 289 189 289 189 270.5 208 c 128,-1,2
 252 227 252 227 225 227 c 256,3,4
 198 227 198 227 179.5 208 c 128,-1,5
 161 189 161 189 161 163 c 0,6,7
 161 136 161 136 179.5 117.5 c 128,-1,8
 198 99 198 99 225 99 c 256,9,10
 252 99 252 99 270.5 117.5 c 128,-1,11
 289 136 289 136 289 163 c 0,0,1
324 163 m 256,12,13
 324 122 324 122 295 92.5 c 128,-1,14
 266 63 266 63 225 63 c 256,15,16
 184 63 184 63 155 92.5 c 128,-1,17
 126 122 126 122 126 163 c 256,18,19
 126 204 126 204 155 233 c 128,-1,20
 184 262 184 262 225 262 c 256,21,22
 266 262 266 262 295 233 c 128,-1,23
 324 204 324 204 324 163 c 256,12,13
359 163 m 0,24,25
 359 219 359 219 320 258 c 128,-1,26
 281 297 281 297 225 297 c 0,27,28
 170 297 170 297 130.5 258 c 128,-1,29
 91 219 91 219 91 163 c 256,30,31
 91 107 91 107 130.5 67.5 c 128,-1,32
 170 28 170 28 225 28 c 256,33,34
 280 28 280 28 319.5 68 c 128,-1,35
 359 108 359 108 359 163 c 0,24,25
394 163 m 0,36,37
 394 93 394 93 344.5 43.5 c 128,-1,38
 295 -6 295 -6 225 -6 c 256,39,40
 155 -6 155 -6 105.5 43.5 c 128,-1,41
 56 93 56 93 56 163 c 256,42,43
 56 233 56 233 105.5 282.5 c 128,-1,44
 155 332 155 332 225 332 c 0,45,46
 293 332 293 332 343.5 281.5 c 128,-1,47
 394 231 394 231 394 163 c 0,36,37
EndSplineSet
EndChar
StartChar: uni0E50
Encoding: 3664 3664 289
Width: 456
Flags: W
Fore
338 146 m 256,0,1
 338 192 338 192 305.5 219 c 128,-1,2
 273 246 273 246 228 246 c 256,3,4
 183 246 183 246 150.5 219 c 128,-1,5
 118 192 118 192 118 146 c 256,6,7
 118 100 118 100 150.5 73 c 128,-1,8
 183 46 183 46 228 46 c 256,9,10
 273 46 273 46 305.5 73 c 128,-1,11
 338 100 338 100 338 146 c 256,0,1
404 146 m 256,12,13
 404 77 404 77 347 32 c 0,14,15
 295 -9 295 -9 228 -9 c 0,16,17
 160 -9 160 -9 108 32 c 0,18,19
 51 77 51 77 51 146 c 256,20,21
 51 215 51 215 108 260 c 0,22,23
 160 301 160 301 228 301 c 0,24,25
 295 301 295 301 347 260 c 0,26,27
 404 215 404 215 404 146 c 256,12,13
EndSplineSet
EndChar
StartChar: uni0E51
Encoding: 3665 3665 290
Width: 456
Flags: W
Fore
408 119 m 0,0,1
 408 39 408 39 355 -20 c 1,2,-1
 281 -20 l 1,3,4
 349 45 349 45 349 119 c 0,5,6
 349 176 349 176 315.5 210.5 c 128,-1,7
 282 245 282 245 225 245 c 0,8,9
 176 245 176 245 141.5 214.5 c 128,-1,10
 107 184 107 184 107 139 c 0,11,12
 107 99 107 99 129 71.5 c 128,-1,13
 151 44 151 44 188 44 c 0,14,15
 203 44 203 44 218 49 c 1,16,17
 183 49 183 49 162 73 c 0,18,19
 143 94 143 94 143 122 c 0,20,21
 143 153 143 153 166 174.5 c 128,-1,22
 189 196 189 196 219 196 c 0,23,24
 256 196 256 196 278 171 c 128,-1,25
 300 146 300 146 300 109 c 0,26,27
 300 58 300 58 265.5 25.5 c 128,-1,28
 231 -7 231 -7 178 -7 c 0,29,30
 120 -7 120 -7 83.5 35.5 c 128,-1,31
 47 78 47 78 47 137 c 0,32,33
 47 208 47 208 101 254 c 128,-1,34
 155 300 155 300 227 300 c 0,35,36
 307 300 307 300 357.5 247 c 128,-1,37
 408 194 408 194 408 119 c 0,0,1
254 122 m 256,38,39
 254 136 254 136 244 146 c 128,-1,40
 234 156 234 156 220 156 c 256,41,42
 206 156 206 156 196 146 c 128,-1,43
 186 136 186 136 186 122 c 256,44,45
 186 108 186 108 196 98 c 128,-1,46
 206 88 206 88 220 88 c 256,47,48
 234 88 234 88 244 98 c 128,-1,49
 254 108 254 108 254 122 c 256,38,39
EndSplineSet
EndChar
StartChar: uni0E52
Encoding: 3666 3666 291
Width: 456
Flags: W
Fore
421 70 m 2,0,1
 421 0 421 0 354 0 c 2,2,-1
 95 0 l 2,3,4
 39 0 39 0 39 65 c 2,5,-1
 39 348 l 2,6,7
 39 361 39 361 29 365 c 1,8,9
 28 365 28 365 11 367 c 1,10,-1
 11 418 l 1,11,12
 55 418 55 418 75 405 c 0,13,14
 100 389 100 389 100 347 c 2,15,-1
 100 84 l 2,16,17
 100 52 100 52 128 52 c 2,18,-1
 334 52 l 2,19,20
 360 52 360 52 360 76 c 2,21,-1
 360 211 l 2,22,23
 360 247 360 247 338 247 c 0,24,25
 306 247 306 247 306 189 c 1,26,-1
 266 189 l 1,27,28
 255 249 255 249 219 249 c 0,29,30
 204 249 204 249 194.5 236 c 128,-1,31
 185 223 185 223 184 207 c 1,32,-1
 192 207 l 2,33,34
 221 207 221 207 240.5 187.5 c 128,-1,35
 260 168 260 168 260 140 c 0,36,37
 260 111 260 111 240.5 91.5 c 128,-1,38
 221 72 221 72 192 72 c 0,39,40
 114 72 114 72 114 162 c 0,41,42
 114 221 114 221 139 259 c 0,43,44
 167 302 167 302 219 302 c 0,45,46
 268 302 268 302 283 263 c 1,47,48
 300 302 300 302 342 302 c 0,49,50
 379 302 379 302 400 275 c 128,-1,51
 421 248 421 248 421 213 c 2,52,-1
 421 70 l 2,0,1
222 139 m 256,53,54
 222 152 222 152 213.5 160.5 c 128,-1,55
 205 169 205 169 192 169 c 256,56,57
 179 169 179 169 171 160.5 c 128,-1,58
 163 152 163 152 163 139 c 256,59,60
 163 126 163 126 171 118 c 128,-1,61
 179 110 179 110 192 110 c 256,62,63
 205 110 205 110 213.5 118 c 128,-1,64
 222 126 222 126 222 139 c 256,53,54
EndSplineSet
EndChar
StartChar: uni0E53
Encoding: 3667 3667 292
Width: 456
Flags: W
Fore
416 0 m 1,0,-1
 358 0 l 1,1,-1
 358 190 l 2,2,3
 358 247 358 247 318 247 c 0,4,5
 298 247 298 247 284 228 c 128,-1,6
 270 209 270 209 270 187 c 2,7,-1
 270 0 l 1,8,-1
 211 0 l 1,9,-1
 211 187 l 2,10,11
 211 246 211 246 147 246 c 0,12,13
 111 246 111 246 94 203 c 0,14,15
 82 172 82 172 82 131 c 1,16,17
 98 140 98 140 117 140 c 0,18,19
 148 140 148 140 170 119.5 c 128,-1,20
 192 99 192 99 192 67 c 0,21,22
 192 37 192 37 172 17 c 0,23,24
 151 -6 151 -6 116 -7 c 0,25,26
 68 -8 68 -8 44 39 c 0,27,28
 26 76 26 76 26 129 c 0,29,30
 26 197 26 197 55 245 c 0,31,32
 89 301 89 301 150 301 c 0,33,34
 209 301 209 301 239 256 c 1,35,36
 267 302 267 302 320 301 c 0,37,38
 366 301 366 301 391 269.5 c 128,-1,39
 416 238 416 238 416 191 c 2,40,-1
 416 0 l 1,0,-1
150 64 m 256,41,42
 150 78 150 78 140.5 87.5 c 128,-1,43
 131 97 131 97 117 97 c 256,44,45
 103 97 103 97 94 87.5 c 128,-1,46
 85 78 85 78 85 64 c 256,47,48
 85 50 85 50 94 41 c 128,-1,49
 103 32 103 32 117 32 c 256,50,51
 131 32 131 32 140.5 41 c 128,-1,52
 150 50 150 50 150 64 c 256,41,42
EndSplineSet
EndChar
StartChar: uni0E54
Encoding: 3668 3668 293
Width: 456
Flags: W
Fore
402 -9 m 1,0,1
 346 18 346 18 309 18 c 0,2,3
 284 18 284 18 237 5.5 c 128,-1,4
 190 -7 190 -7 166 -7 c 0,5,6
 100 -7 100 -7 59 36 c 0,7,8
 19 76 19 76 19 138 c 0,9,10
 19 303 19 303 233 303 c 0,11,12
 318 303 318 303 354 316 c 0,13,14
 413 337 413 337 426 418 c 1,15,-1
 483 418 l 1,16,17
 461 309 461 309 399 273 c 0,18,19
 356 248 356 248 247 248 c 0,20,21
 170 248 170 248 136 234 c 0,22,23
 81 210 81 210 81 142 c 0,24,25
 81 103 81 103 107.5 73.5 c 128,-1,26
 134 44 134 44 164 44 c 0,27,28
 170 44 170 44 240 55 c 1,29,30
 148 79 148 79 148 151 c 0,31,32
 148 184 148 184 170 205 c 128,-1,33
 192 226 192 226 222 226 c 0,34,35
 254 226 254 226 274 203.5 c 128,-1,36
 294 181 294 181 294 152 c 0,37,38
 294 117 294 117 264 93 c 1,39,40
 280 85 280 85 307 80 c 0,41,42
 335 76 335 76 362.5 69.5 c 128,-1,43
 390 63 390 63 431 38 c 1,44,-1
 402 -9 l 1,0,1
250 153 m 256,45,46
 250 166 250 166 241.5 174.5 c 128,-1,47
 233 183 233 183 220 183 c 256,48,49
 207 183 207 183 198.5 174.5 c 128,-1,50
 190 166 190 166 190 153 c 256,51,52
 190 140 190 140 198.5 131.5 c 128,-1,53
 207 123 207 123 220 123 c 256,54,55
 233 123 233 123 241.5 131.5 c 128,-1,56
 250 140 250 140 250 153 c 256,45,46
EndSplineSet
EndChar
StartChar: uni0E55
Encoding: 3669 3669 294
Width: 456
Flags: W
Fore
402 -9 m 1,0,1
 346 18 346 18 309 18 c 0,2,3
 284 18 284 18 237 5.5 c 128,-1,4
 190 -7 190 -7 166 -7 c 0,5,6
 100 -7 100 -7 59 36 c 0,7,8
 19 76 19 76 19 138 c 0,9,10
 19 289 19 289 197 302 c 1,11,12
 178 321 178 321 178 350 c 256,13,14
 178 379 178 379 198 398.5 c 128,-1,15
 218 418 218 418 246 418 c 0,16,17
 275 418 275 418 294.5 398.5 c 128,-1,18
 314 379 314 379 314 350 c 0,19,20
 314 324 314 324 297 304 c 1,21,22
 330 307 330 307 354 316 c 0,23,24
 413 338 413 338 426 418 c 1,25,-1
 483 418 l 1,26,27
 461 309 461 309 399 273 c 0,28,29
 356 248 356 248 247 248 c 0,30,31
 170 248 170 248 136 234 c 0,32,33
 81 210 81 210 81 142 c 0,34,35
 81 103 81 103 107.5 73.5 c 128,-1,36
 134 44 134 44 164 44 c 0,37,38
 170 44 170 44 240 55 c 1,39,40
 148 79 148 79 148 151 c 0,41,42
 148 184 148 184 170 205 c 128,-1,43
 192 226 192 226 222 226 c 0,44,45
 254 226 254 226 274 203.5 c 128,-1,46
 294 181 294 181 294 152 c 0,47,48
 294 117 294 117 264 93 c 1,49,50
 280 85 280 85 307 80 c 0,51,52
 339 75 339 75 364.5 69 c 128,-1,53
 390 63 390 63 431 38 c 1,54,-1
 402 -9 l 1,0,1
250 153 m 256,55,56
 250 166 250 166 241.5 174.5 c 128,-1,57
 233 183 233 183 220 183 c 256,58,59
 207 183 207 183 198.5 174.5 c 128,-1,60
 190 166 190 166 190 153 c 256,61,62
 190 140 190 140 198.5 131.5 c 128,-1,63
 207 123 207 123 220 123 c 256,64,65
 233 123 233 123 241.5 131.5 c 128,-1,66
 250 140 250 140 250 153 c 256,55,56
276 349 m 256,67,68
 276 362 276 362 267.5 370.5 c 128,-1,69
 259 379 259 379 246 379 c 256,70,71
 233 379 233 379 224.5 370.5 c 128,-1,72
 216 362 216 362 216 349 c 256,73,74
 216 336 216 336 224.5 327.5 c 128,-1,75
 233 319 233 319 246 319 c 256,76,77
 259 319 259 319 267.5 327.5 c 128,-1,78
 276 336 276 336 276 349 c 256,67,68
EndSplineSet
EndChar
StartChar: uni0E56
Encoding: 3670 3670 295
Width: 456
Flags: W
Fore
427 153 m 0,0,1
 427 73 427 73 365 29 c 0,2,3
 312 -9 312 -9 235 -9 c 0,4,5
 170 -9 170 -9 136 5 c 0,6,7
 69 32 69 32 69 90 c 0,8,9
 69 123 69 123 89.5 145 c 128,-1,10
 110 167 110 167 143 167 c 256,11,12
 176 167 176 167 198 145 c 128,-1,13
 220 123 220 123 220 92 c 0,14,15
 220 64 220 64 207 48 c 1,16,17
 214 47 214 47 230 47 c 0,18,19
 286 47 286 47 323 71 c 0,20,21
 367 98 367 98 367 151 c 0,22,23
 367 198 367 198 329 223 c 0,24,25
 296 245 296 245 248 245 c 0,26,27
 139 245 139 245 93 182 c 1,28,-1
 72 182 l 1,29,30
 69 264 69 264 61 305 c 0,31,32
 47 371 47 371 11 418 c 1,33,-1
 79 418 l 1,34,35
 115 353 115 353 120 274 c 1,36,37
 163 301 163 301 246 301 c 0,38,39
 322 301 322 301 371 266 c 0,40,41
 427 226 427 226 427 153 c 0,0,1
178 92 m 256,42,43
 178 106 178 106 168.5 115.5 c 128,-1,44
 159 125 159 125 145 125 c 256,45,46
 131 125 131 125 122 115.5 c 128,-1,47
 113 106 113 106 113 92 c 256,48,49
 113 78 113 78 122 69 c 128,-1,50
 131 60 131 60 145 60 c 256,51,52
 159 60 159 60 168.5 69 c 128,-1,53
 178 78 178 78 178 92 c 256,42,43
EndSplineSet
EndChar
StartChar: uni0E57
Encoding: 3671 3671 296
Width: 456
Flags: W
Fore
437 231 m 0,0,1
 437 112 437 112 401 59 c 0,2,3
 358 -3 358 -3 254 -3 c 1,4,5
 295 108 295 108 295 188 c 0,6,7
 295 207 295 207 288 225 c 0,8,9
 278 249 278 249 262 249 c 0,10,11
 244 249 244 249 233 226 c 0,12,13
 225 207 225 207 225 187 c 2,14,-1
 225 147 l 1,15,-1
 165 147 l 1,16,-1
 165 185 l 2,17,18
 165 249 165 249 120 249 c 0,19,20
 96 249 96 249 83 215 c 0,21,22
 73 188 73 188 73 151 c 2,23,-1
 73 140 l 1,24,25
 91 148 91 148 105 148 c 0,26,27
 136 148 136 148 159 125.5 c 128,-1,28
 182 103 182 103 182 70 c 0,29,30
 182 38 182 38 160 17 c 128,-1,31
 138 -4 138 -4 105 -4 c 0,32,33
 56 -4 56 -4 32 46 c 0,34,35
 14 84 14 84 14 141 c 0,36,37
 14 202 14 202 35 245 c 0,38,39
 63 301 63 301 118 301 c 0,40,41
 172 301 172 301 194 262 c 1,42,43
 217 301 217 301 258 301 c 0,44,45
 307 301 307 301 332 262 c 0,46,47
 353 230 353 230 353 179 c 0,48,49
 353 127 353 127 338 71 c 1,50,51
 380 99 380 99 380 219 c 0,52,53
 380 375 380 375 400 418 c 1,54,-1
 461 418 l 1,55,56
 436 381 436 381 436.5 311 c 128,-1,57
 437 241 437 241 437 231 c 0,0,1
138 72 m 256,58,59
 138 86 138 86 127.5 96.5 c 128,-1,60
 117 107 117 107 103 107 c 256,61,62
 89 107 89 107 79 96.5 c 128,-1,63
 69 86 69 86 69 72 c 256,64,65
 69 58 69 58 79 48 c 128,-1,66
 89 38 89 38 103 38 c 256,67,68
 117 38 117 38 127.5 48 c 128,-1,69
 138 58 138 58 138 72 c 256,58,59
EndSplineSet
EndChar
StartChar: uni0E58
Encoding: 3672 3672 297
Width: 456
Flags: W
Fore
426 78 m 0,0,1
 426 44 426 44 401 18 c 128,-1,2
 376 -8 376 -8 341 -8 c 0,3,4
 269 -8 269 -8 187 68 c 1,5,6
 165 60 165 60 139.5 32.5 c 128,-1,7
 114 5 114 5 110 -16 c 1,8,9
 23 43 23 43 23 150 c 0,10,11
 23 242 23 242 77 275 c 0,12,13
 120 301 120 301 226 301 c 0,14,15
 303 301 303 301 333 315 c 0,16,17
 373 335 373 335 373 394 c 2,18,-1
 373 403 l 1,19,-1
 431 403 l 1,20,21
 432 395 432 395 432 381 c 0,22,23
 432 293 432 293 360 265 c 0,24,25
 317 248 317 248 204 248 c 0,26,27
 80 248 80 248 80 148 c 0,28,29
 80 88 80 88 108 70 c 1,30,31
 119 93 119 93 149 110.5 c 128,-1,32
 179 128 179 128 204 128 c 1,33,34
 227 98 227 98 259 84 c 1,35,36
 260 117 260 117 285 140 c 128,-1,37
 310 163 310 163 341 163 c 0,38,39
 377 163 377 163 401.5 138 c 128,-1,40
 426 113 426 113 426 78 c 0,0,1
377 78 m 0,41,42
 377 92 377 92 366.5 103 c 128,-1,43
 356 114 356 114 341 114 c 256,44,45
 326 114 326 114 315.5 103 c 128,-1,46
 305 92 305 92 305 78 c 0,47,48
 305 63 305 63 315.5 52.5 c 128,-1,49
 326 42 326 42 341 42 c 256,50,51
 356 42 356 42 366.5 52.5 c 128,-1,52
 377 63 377 63 377 78 c 0,41,42
EndSplineSet
EndChar
StartChar: uni0E59
Encoding: 3673 3673 298
Width: 456
Flags: W
Fore
398 -10 m 1,0,1
 325 47 325 47 261 174 c 0,2,3
 255 187 255 187 249 200.5 c 128,-1,4
 243 214 243 214 231 223 c 0,5,6
 200 246 200 246 164 246 c 256,7,8
 128 246 128 246 105.5 215 c 128,-1,9
 83 184 83 184 83 148 c 0,10,11
 83 113 83 113 100 84 c 1,12,13
 115 137 115 137 170 137 c 0,14,15
 199 137 199 137 220 116 c 128,-1,16
 241 95 241 95 241 65 c 0,17,18
 241 36 241 36 220 14.5 c 128,-1,19
 199 -7 199 -7 170 -7 c 0,20,21
 106 -7 106 -7 64 40 c 0,22,23
 24 84 24 84 24 147 c 0,24,25
 24 212 24 212 66.5 256.5 c 128,-1,26
 109 301 109 301 170 301 c 0,27,28
 226 301 226 301 262 268 c 1,29,30
 273 300 273 300 304 300 c 0,31,32
 318 300 318 300 341.5 285.5 c 128,-1,33
 365 271 365 271 379 271 c 0,34,35
 398 271 398 271 398 328 c 0,36,37
 398 378 398 378 386 415 c 1,38,-1
 435 415 l 1,39,40
 446 365 446 365 446 318 c 0,41,42
 446 217 446 217 388 217 c 0,43,44
 375 217 375 217 351.5 232 c 128,-1,45
 328 247 328 247 319 247 c 0,46,47
 301 247 301 247 301 228 c 0,48,49
 301 193 301 193 354 118 c 128,-1,50
 407 43 407 43 439 28 c 1,51,-1
 398 -10 l 1,0,1
202 64 m 256,52,53
 202 78 202 78 192.5 87.5 c 128,-1,54
 183 97 183 97 169 97 c 256,55,56
 155 97 155 97 146 87.5 c 128,-1,57
 137 78 137 78 137 64 c 256,58,59
 137 50 137 50 146 41 c 128,-1,60
 155 32 155 32 169 32 c 256,61,62
 183 32 183 32 192.5 41 c 128,-1,63
 202 50 202 50 202 64 c 256,52,53
EndSplineSet
EndChar
StartChar: uni0E5A
Encoding: 3674 3674 299
Width: 525
Flags: W
Fore
479 0 m 1,0,-1
 417 0 l 1,1,-1
 417 315 l 2,2,3
 417 351 417 351 406 353 c 1,4,5
 400 287 400 287 328 260 c 1,6,-1
 328 0 l 1,7,-1
 266 0 l 1,8,-1
 266 315 l 2,9,10
 266 351 266 351 255 353 c 1,11,12
 251 306 251 306 209.5 277.5 c 128,-1,13
 168 249 168 249 119 249 c 0,14,15
 80 249 80 249 52 270 c 128,-1,16
 24 291 24 291 24 330 c 0,17,18
 24 362 24 362 46 384.5 c 128,-1,19
 68 407 68 407 100 407 c 256,20,21
 132 407 132 407 154.5 384.5 c 128,-1,22
 177 362 177 362 177 330 c 0,23,24
 177 325 177 325 175 315 c 1,25,26
 208 340 208 340 215 399 c 1,27,-1
 260 399 l 2,28,29
 328 399 328 399 328 327 c 2,30,-1
 328 316 l 1,31,32
 360 342 360 342 366 399 c 1,33,-1
 411 399 l 2,34,35
 479 399 479 399 479 327 c 2,36,-1
 479 0 l 1,0,-1
134 330 m 256,37,38
 134 344 134 344 124 354 c 128,-1,39
 114 364 114 364 100 364 c 256,40,41
 86 364 86 364 76 354 c 128,-1,42
 66 344 66 344 66 330 c 256,43,44
 66 316 66 316 76 306 c 128,-1,45
 86 296 86 296 100 296 c 256,46,47
 114 296 114 296 124 306 c 128,-1,48
 134 316 134 316 134 330 c 256,37,38
EndSplineSet
EndChar
StartChar: uni0E5B
Encoding: 3675 3675 300
Width: 697
Flags: W
Fore
188 320 m 1,0,-1
 188 326 l 1,1,-1
 191 326 l 2,2,3
 194 326 194 326 194 323 c 256,4,5
 194 320 194 320 191 320 c 2,6,-1
 188 320 l 1,0,-1
188 313 m 1,7,-1
 188 319 l 1,8,-1
 191 319 l 2,9,10
 196 319 196 319 196 323 c 256,11,12
 196 327 196 327 191 327 c 2,13,-1
 186 327 l 1,14,-1
 186 313 l 1,15,-1
 188 313 l 1,7,-1
217 320 m 1,16,-1
 217 326 l 1,17,-1
 220 326 l 2,18,19
 223 326 223 326 223 323 c 256,20,21
 223 320 223 320 220 320 c 2,22,-1
 217 320 l 1,16,-1
184 313 m 1,23,-1
 184 315 l 1,24,-1
 177 315 l 1,25,-1
 177 327 l 1,26,-1
 175 327 l 1,27,-1
 175 313 l 1,28,-1
 184 313 l 1,23,-1
157 318 m 1,29,30
 157 314 157 314 153 314 c 256,31,32
 149 314 149 314 149 320 c 256,33,34
 149 326 149 326 153 326 c 0,35,36
 156 326 156 326 157 322 c 1,37,-1
 159 322 l 1,38,39
 157 327 157 327 153 327 c 0,40,41
 147 327 147 327 147 320 c 256,42,43
 147 313 147 313 153 313 c 256,44,45
 159 313 159 313 159 318 c 1,46,-1
 157 318 l 1,29,30
212 323 m 1,47,48
 212 327 212 327 208 327 c 0,49,50
 203 327 203 327 203 323 c 1,51,52
 206 320 206 320 211 317 c 1,53,54
 211 314 211 314 208 314 c 256,55,56
 205 314 205 314 205 318 c 1,57,-1
 203 318 l 1,58,59
 203 313 203 313 208 313 c 256,60,61
 213 313 213 313 213 317 c 1,62,63
 210 320 210 320 205 323 c 1,64,65
 205 326 205 326 208 326 c 1,66,67
 210 324 210 324 210 323 c 1,68,-1
 212 323 l 1,47,48
172 313 m 1,69,-1
 172 327 l 1,70,-1
 170 327 l 1,71,-1
 170 321 l 1,72,-1
 163 321 l 1,73,-1
 163 327 l 1,74,-1
 161 327 l 1,75,-1
 161 313 l 1,76,-1
 163 313 l 1,77,-1
 163 320 l 1,78,-1
 170 320 l 1,79,-1
 170 313 l 1,80,-1
 172 313 l 1,69,-1
238 313 m 1,81,-1
 233 321 l 1,82,-1
 238 327 l 1,83,-1
 235 327 l 1,84,-1
 230 320 l 1,85,-1
 230 327 l 1,86,-1
 228 327 l 1,87,-1
 228 313 l 1,88,-1
 230 313 l 1,89,-1
 230 318 l 1,90,-1
 232 320 l 1,91,-1
 235 313 l 1,92,-1
 238 313 l 1,81,-1
217 313 m 1,93,-1
 217 319 l 1,94,-1
 220 319 l 2,95,96
 225 319 225 319 225 323 c 256,97,98
 225 327 225 327 220 327 c 2,99,-1
 215 327 l 1,100,-1
 215 313 l 1,101,-1
 217 313 l 1,93,-1
214 156 m 256,102,103
 242 156 242 156 242 184 c 256,104,105
 242 212 242 212 214 212 c 256,106,107
 186 212 186 212 186 184 c 256,108,109
 186 156 186 156 214 156 c 256,102,103
669 179 m 1,110,111
 649 168 649 168 628 168 c 0,112,113
 595 168 595 168 570 193 c 1,114,115
 564 145 564 145 542 138 c 1,116,117
 533 138 533 138 522 171 c 0,118,119
 508 213 508 213 501 220 c 1,120,121
 501 128 501 128 474 128 c 0,122,123
 468 128 468 128 457 164 c 0,124,125
 445 204 445 204 436 215 c 1,126,127
 430 117 430 117 398 117 c 0,128,129
 392 117 392 117 381 156 c 0,130,131
 367 206 367 206 360 215 c 1,132,133
 360 24 360 24 211 24 c 0,134,135
 149 24 149 24 113 67 c 128,-1,136
 77 110 77 110 77 183 c 0,137,138
 77 258 77 258 108 299 c 128,-1,139
 139 340 139 340 195 340 c 0,140,141
 240 340 240 340 266 312.5 c 128,-1,142
 292 285 292 285 292 237 c 0,143,144
 292 194 292 194 275 165 c 0,145,146
 254 129 254 129 214 129 c 0,147,148
 192 129 192 129 176 145.5 c 128,-1,149
 160 162 160 162 160 184 c 0,150,151
 160 207 160 207 175.5 223 c 128,-1,152
 191 239 191 239 214 239 c 0,153,154
 240 239 240 239 257 219 c 1,155,-1
 257 221 l 1,156,-1
 259 245 l 2,157,158
 264 309 264 309 198 309 c 0,159,160
 157 309 157 309 135 274 c 128,-1,161
 113 239 113 239 113 178 c 0,162,163
 113 123 113 123 140.5 90 c 128,-1,164
 168 57 168 57 211 57 c 0,165,166
 270 57 270 57 301.5 100 c 128,-1,167
 333 143 333 143 333 222 c 0,168,169
 333 253 333 253 330 269 c 1,170,171
 386 258 386 258 405 163 c 1,172,173
 414 192 414 192 414 219 c 0,174,175
 414 238 414 238 406 267 c 1,176,177
 448 255 448 255 479 180 c 1,178,179
 484 205 484 205 484 217 c 0,180,181
 484 226 484 226 479 254 c 1,182,183
 522 242 522 242 543 170 c 1,184,185
 553 183 553 183 553 205 c 0,186,187
 553 217 553 217 550 232 c 1,188,189
 555 231 555 231 593 204 c 0,190,191
 627 179 627 179 664 179 c 2,192,-1
 669 179 l 1,110,111
EndSplineSet
EndChar
StartChar: zerowidthnonjoiner
Encoding: 8204 8204 301
Width: 0
Flags: W
Fore
18 -250 m 1,0,-1
 -17 -250 l 1,1,-1
 -17 287 l 1,2,-1
 18 287 l 1,3,-1
 18 -250 l 1,0,-1
EndSplineSet
EndChar
StartChar: zerowidthjoiner
Encoding: 8205 8205 302
Width: 0
Flags: W
Fore
18 -250 m 1,0,-1
 -17 -250 l 1,1,-1
 -17 198 l 1,2,-1
 -37 178 l 1,3,-1
 -54 195 l 1,4,-1
 -17 232 l 1,5,-1
 -54 271 l 1,6,-1
 -36 287 l 1,7,-1
 0 250 l 1,8,-1
 37 287 l 1,9,-1
 55 271 l 1,10,-1
 18 232 l 1,11,-1
 55 195 l 1,12,-1
 37 178 l 1,13,-1
 18 198 l 1,14,-1
 18 -250 l 1,0,-1
EndSplineSet
EndChar
StartChar: lefttorightmark
Encoding: 8206 8206 303
Width: 0
Flags: W
Fore
18 -250 m 1,0,-1
 -17 -250 l 1,1,-1
 -17 252 l 1,2,-1
 115 252 l 1,3,-1
 98 270 l 1,4,-1
 114 286 l 1,5,-1
 166 234 l 1,6,-1
 114 182 l 1,7,-1
 98 199 l 1,8,-1
 115 217 l 1,9,-1
 18 217 l 1,10,-1
 18 -250 l 1,0,-1
EndSplineSet
EndChar
StartChar: righttoleftmark
Encoding: 8207 8207 304
Width: 0
Flags: W
Fore
18 -250 m 1,0,-1
 -17 -250 l 1,1,-1
 -17 217 l 1,2,-1
 -114 217 l 1,3,-1
 -97 199 l 1,4,-1
 -113 182 l 1,5,-1
 -165 234 l 1,6,-1
 -113 286 l 1,7,8
 -111 283 -111 283 -106 278 c 128,-1,9
 -101 273 -101 273 -97 270 c 1,10,-1
 -114 252 l 1,11,-1
 18 252 l 1,12,-1
 18 -250 l 1,0,-1
EndSplineSet
EndChar
StartChar: endash
Encoding: 8211 8211 305
Width: 335
Flags: W
Fore
326 157 m 1,0,-1
 9 157 l 1,1,-1
 9 211 l 1,2,-1
 326 211 l 1,3,-1
 326 157 l 1,0,-1
EndSplineSet
EndChar
StartChar: emdash
Encoding: 8212 8212 306
Width: 693
Flags: W
Fore
684 157 m 1,0,-1
 9 157 l 1,1,-1
 9 211 l 1,2,-1
 684 211 l 1,3,-1
 684 157 l 1,0,-1
EndSplineSet
EndChar
